<mxfile host="app.diagrams.net" modified="2023-11-16T20:04:31.376Z" agent="Mozilla/5.0 (Windows NT 10.0; Win64; x64; rv:109.0) Gecko/20100101 Firefox/119.0" etag="iVBdV_JpDQFGCJ53PwMV" version="22.1.2" type="device">
  <diagram name="PÃ¡gina-1" id="Q9-WeFtxBPyBtibvtfyX">
    <mxGraphModel dx="1194" dy="716" grid="1" gridSize="10" guides="1" tooltips="1" connect="1" arrows="1" fold="1" page="1" pageScale="1" pageWidth="827" pageHeight="1169" math="0" shadow="0">
      <root>
        <mxCell id="0" />
        <mxCell id="1" parent="0" />
        <mxCell id="VC3NsQKQv-s5LEQHh1L6-1" value="" style="shape=image;verticalLabelPosition=bottom;labelBackgroundColor=default;verticalAlign=top;aspect=fixed;imageAspect=0;image=data:image/png,iVBORw0KGgoAAAANSUhEUgAAAakAAAEaCAYAAACrcqiAAADUGUlEQVR4Xu39B5hsWXIeBp70meXN87afb9/T05jpcZjBDIDBDCEQIAnQAbskSIIiRFKiVlxyJVFaUUut8K1E7ScRSwHiR4ECSFgRAzMDzADj/Uz3tO/Xz3tvypv0uf8fcc7Nm7cyK7Pcq8yqc19XZ1XmzWvinhP/iYg/ImLGb14C20QCL99aTJQrtWSpVEoVy6VEvmpSC5V4Ol8xycVCKbm4uJhcWFhI4zWdL5ZyxXK5r1yu5KqmlsP3+iqVSq5crvK1r1SpjeD94XKpNlSuVQfwXrpcLvMnid/lp1arJWLY4vG4SSQSVfxUkslkGT8l/F5KxGrzmVR6KhmPTScSsWm8P4PfZ/HZQjIRW8T3CulkYiGdTuf7spmFvr6+Ql82W8hms8VMJlVKJ0x1wJTLmWSsgv147Aq+x+PzvfLxwVh1mzxaf5tbWAKxLXxv/ta2sASuzNWS+WI5Oz0zn57PF5LTMzOJ6enp+Oz8QgIgkyDoEDDKlWqyWCmniti3WCr1lUoVgE9poFgsDhQq1cHFshmsmnhfLRYfgLhy+OkDrgCYYn34PVOpmmwtZlLGxFNVeTVJU4sn+FqLxfCTSAGM4vg7jlfOp/CPIUjhvRofBX7lK38IHrV4zVRMrVLBr1WgWalWq5TxfhEfl7FnMRavlWqVagFglU/EzAI+W8Tf89wHhyqmYmaxPx2fzyTi86lUCmCWnE+nUvg9sZhNpQF08UI2nVzE36X+XF9xYLCvPDQwWB0aGqoMD/RXcn3Z4vhweg7HLu9MeEDbwtOlp2/Ng1RPP76td/EXZmrpYqmcK5QrmVKlnL53fzI5Oz+fmJycTk1MTWanp2b6Zubn+gqFwsBipba7ZOK7i9XYGACpH9ZLtmbiWUglDeDJ8BVAkq7UqgSSFJAhFQOo4H3+naxWq0koehg0hiCTxE8Cv9L6ERAy8Rj2AWRglmA3Qwgi5sA2klecw+CcSx6C7rN0auGcsq975e9JHMsAHwhftRpsM+zDH14QsQxnwrFqFRytgvfLADKesIrvVU0iXgHo8trKADL8Ui0D+AhypThALx6PlU2lWsL7JRyngPcLeH8RVtsCQG0+lYg9SJvKrWwmeXd4cHByZGRkYXR4ZHF8dDg/NDRQ7stlKvg7n07Ei+kUfhKmcCAXW3rDW28Y+jvqIgl4kOqih7FdLuX2fDX2cGp6cGJ2IXdneiEzu1hKTU5NZQFEQ5PTUztmZmb2z8wt7MoXi8PxZHoQINNfrZh+gEQ/8KMvlkjkAAKZajyRKZpYGiqdwCPgUo3FE7RsKuVqAt+LQxnHqzCT8HkcYANdruoff8L0qcIcqgCZFBy4VcQYqm8AueAPMX8in8O1FnzXAUyz5+hAK/oKcJXdE4CaKsAqTqOMoGXPq5jEq3Xgph68BG8JBl0phlsXTLWf435kf9wTjgERlHELsQp+qnGYbbhG7EBLLV6JxyrFeLVYiJtqHl/JAygXYNwt4HUOwDgPgc6nk8mpvmx6Ynhw6MbIyND9sdHRybGxkfmx4ZHiYF+quHeoL9+fTcw9NtoHEPSbl8D6S8CD1PrL1B/RSuDibC0zN7/Yf39iOnf91u3M7bv34Z6bHUTcZ3RuMb97sVA5PFup7YclNAplPQi9OgDrYBhAMgDFmwV0ILZTS+E9eKQSqVhCECaJGFCcyh2WkMkk02p90NzBJso9oZYOf+QzqHi+4njBsxGwAfKpPVQP3bjviQ0TsYYEn8SzV98AAqFj1o/fzJJqNjDEaOO18tD0uMl96PXwGGJpyR91K8sBKq+xjOtRDNb9YUnp7+4yqzVaYvqZkwdxSrAMQCZfsPtYa41uSLoe8bUyfq1AEkW8twhzjwA2i6cwC/CfySbMw/H+9IW+VOzaQF/fveHhwemdO8bm9+7eld+7a3dheCg315c2+V1JcXP6zUtgVRLwILUqsfkvhSXw2v1ybnJyMvdgYjJ79/7DzO07dwdu3bu/e3p2bl+hVBmpmcSuSiy+C8p0BxTrKNxlQwChPujjfoR3MmVaQ3DH8QfqNQUNGRNQAQgl0xkBGMSGFHDigKtEQn6owCvFgoCMAyl3XdyPitlZKgSqZtaMWFYWHKrQ3LAwTNVaVTxW2DXngEDep+sPqjeO/7Xap5NRwvtyx41aYuJShCXlgFPBhlYTvwRw4hdhTfEv3gJhmBcmcGzvge5C3SzwhS5Kv+/AXYEsUAgAcLdhhaDXiAOLy9FUSnQxpmLVfLmwsAiXKeNa8/j+FK54AhJ8mKyZ+5DN/Z07Rm6Mj47cPrRv79T+vXsWAWJ0JS4+PZZijM1vXgJtJeBBqq2I/A5hCVxYrOVu3JoavHrleub2/Yd992bmR2cWi/vgont8bmHxQKFU2gEwGsXPTgBDf6lSzcYS6XQsnszAFUciQgrgg9gPV/Y4cg0hE7vSV2UMJYwPlsRvQi4tgpd+DksAypR2FsHGgZD7nPtgxR9cvgM+vqEWFi6gBnedAA7dZ3hHXsMxJYsisEjc98LyIEi5LQpW0f3D1lVwrdZ9GLW86oCKWFgAmhacYAmp25GgJCEquAvhMOT121d3TZSLA7/w9allKRIUsBO2R5NYGmUZU9ehjZO52JnCXiqVAXJRjgyJ4WHWKnAf1kr4ThGAVcDzWYA4wWA098FcvJfLpm/A4np7bGTk2nBf//ThveNzh/btzh/YPzZzLBdDPM1vXgKNEvAg5UdEUwlcnCylZxYLAxMz89mbdx9kz1++OnTj1r3903NzcM/VdoOPtg9qaW/BxHZBSQ0DNsCOi4MJF8sAMUBcMBko0ngcPAUqwooQA/A/ARustQkMAJgM4v+qaKH0AvCpK8xAsdoVv7jbGLOxyrhSIci1fog8Jje6ugK3WvA3jiUgpYp8KQhZ62MZZ5UDKff9KBC584evMAwWBGUentfnLDh+Hj5OOA4WxKoEoyoGETf8giMARBVsATpi3SmYKPxYN2jo1YFUPJ5UN6gF4fC+7ne3IODfiFOp5UbrFnIrVWHJ4Zx8l9fG2BoflYS+sE+S12SqRawjCniviGtm/GsG9zuBz+7i+V9HTPAGPLR3RgYHrx0+sP/u8aOH5g7s3lnIZZOL7z0wSDaj37axBDxIbeOHH751ULqziBkNXr99O3fj9r3+m7fv7743Of34w+m545VYYnc1ltwNisEeWEMDsJBycOFlATQZ6CWlZasqDOI+FhpU8QdrcHqjGmM6CbjYwjGhZtZIwyOyIEWwkvANra7Q8Z1bK/pYxWizKltf1SqJxpgavmdZ2Y8iosLQkA2rNRmRdZlF8RIOTdmfe8gdiVzsvbl7DB0xwvswCecr7HAeCAvRujopdwJV+JmqrMKuRZJBKHAX99M7IMUe10zLCYSNah7PYwGLlgmwXgBY1duId91IJ2NXj+zfe250ZHDqyIG9848d2p/fu3Ns9lDfo3giHQrE77bhEvAgteEi7s4TnH+wMAA33cDrZ87nbt17OHjtxs3Dk1MzJ8vV2hGw5g6A2byvVK2NIirUD5AitTtnX6EEbTxEMIKqqk48CIOMU5VhCTDYH9648taAilpIElsSSjaVn766GEz0VRx+iMk0Al/9WqwybP0AQud15w8stUcU6ndEB3eRrYHK7RGVi7vfCKEjOrMt4SMMUlT1ZDYGgB2AmnUrRp6Dex7BK+W/Kg1SHxnOalT+RqUAwFqM18oFWFmLoLzPwfK6DWvxMiy4a+l47dJAf+7Gwf377j1x6uTs0cP753cN9c0c7veg1Z1aZn2ualVDbH1O7Y/yKCXw0s2FwbsPHg7cufeg78bNW6M3b94+cXdi+vlKJvfYYqm6u1qpjSXSqRHEMPpK5WoW+Tdk18Fbx3SjurUSBihev7q76tCjLqb6tkR92BW1WA4ErBjcTTIKFYxcrMVZBELJjijP+t90Yyn9utW2nPqislWrI2p5RKG09fE737P5McIA39F4sJZS3WKqg1f4+1GLyVmMUZASY1Se2VI5O0p8q1eRm8jP2aiNd9A4EhREg/PjPgiOdIe6eCJiWjgS85sRY5MxgU/LlUIyGc+nkslFLEfmy5XSFN67ic+upxO1s7sH+988uHfX3aNHHps5uH/v4s7xsfnnd6VKHcnS79QTEvAg1ROPaeUXeXW+lr0zMT3y6hvv9N+dnB6+dWfi8L3JiXcv5MvHEUPYD/tnJ5JnhguxdB+skRwUBRl2woaj4iDhAOV3DJJm7cmtkuFfIQukzh7T3SQWYVWefUdeArBoClIhd1aIWRe+66jF4T5rR/Vut8auA5UesdEeaS/3Rw5Sy1zSatx9tFSdbLlYWN7tWH+iqjgcfb8JSDl3LMdEyD0YvXxS+IWUYfPXwgxHvs9xiOogSE8uC6MzlU4UcZ955I8tVMvluYFU7X41v3AVp7jUn82cGx4auLZv1447J48dmj56aP/8R46OTbd/in6PbpaAB6lufjorvLY37swOX75+c/CdcxfHzl+6fuLe1MzzCGwfK8eTewBEu5DzOhqLp1ECyPTBrZdCPTqULkgLjZmrYSoIyXqlwsCqVkkJNvAecumFLRlhdoW2ADQ6jOfQcgp71paCjs0BauZ+C6ygxjX78mLT4wWg16Ya0FpBqNNH2AqE67Gc5kcigcFtYeKEEiaaWzjhI8GdG8TlAjBpoxXcfs6Sar4QqLuE68dtXAKQNUjSDEt+1J9gPefL5bcJcNkqH7x2pCjIOBVrq1IoxKvVfCqRnM+k43O1cmkivzh3PWHKVwfSqbdGB/vOnDxy8O5Tjx+fPrRvz/y79w15BmGng7JL9vMg1SUPYrWX8dXLk+OXr14fOHfh4o5b9+6dmp7Pv3tusfg4Fp4HK7HkaCKTGwDpIQs8ymHNqu60ENWb52VVBVpQLPGTBEChoCneRdYQDuLyiOqKKAwIzClaClJ1Jdb+rpTxF1ZRZKep5RVQw1seRl11ZLPVt6UUiQYQDXZV99ZyllOY/NH+TtZnjyVg1QZEHUiFK2N0fCVacjCIKzUSSxTimm0reb7trkXzzBylvr63y2uT8SEpAYheYpyWMEadizAFy6pSKiJ3m+xMHKMMKx65W6lkbBFsnnnEtmZRUON6Kl47059LvzE21H9hz87xO0cOHpg8deLY/IcOD3vmYLsH1AWfe5Dqgoewkks4O1VNX7t1d/i1t94eOn3h4v6HC5X3F8rxJ8vVymEA0R6ABsgOsQGUE8olkZ6Eqg4CSo5qHM6Z4UqW7hb4/MWVIoBlk2jFwuGK1blhWo2UEHWZ36ciaViRLwnY12FBzi8JtHWQchTnMFutlXw0nhTdmsWw6vvUQUD3qx+jNVw1qzThjqikg9VvjcxERxjn8ZofN2oBKsyu1EkZlYeeK+zua+3246KgvogghV+ee3DIFtcduR+3CEGBXmGEOsJMVJIsO8XFkwMm2md1lyD/imP86jWgur0seORv0PPLxWItm07PV0qFRfw9jQrxD1BH9zro7hcHcn1vjfSnzn/fqcM3H9u/e+7okcNzj4/mfF3C1Q/lDfumB6kNE+36Hfjcw1Lq/LWbw6+fPjt67tKVQw9nZ58GGD2DLhNPFmOZPfDWD8AF0o+J3GeQ90JgoYUDl15DkmuQY2NdRASHJNJqq2XGmRmQQHwCv5Ult0iBS3KXQqMkrFTFgMEKtoHdFyQtuRhWKN60xEKiu4eKBUdVJADIcf/2bion3aibqJXUlYAR3QhSDhCaK/pwoL/ZsdcbpNw5Wh03DFIOoNTiWY5g0pwYUT+H0sSbESSWHrdRCsKsFBLE0iciV9VAPw/FJvmU8SXeQwOZw9UspItP3Hr1ih7Bgonfknww3AFuzVnzLhnZ5X3J35Kgrc8YVmceby3iahcAZtOJSvFapjRzuj8VfwNFdc8fPXTw1lOPn5p6/PjRmRPDkoDmty6QgAepLngIzS7h4mItfvPe3Ng3X3p15Nqde/tv3H7wvvlC8blqPHkMtgdylmLDKNLNoqssJdRwCOfEiq7Sw1RtEo+pAJhno5aMKguhfgdKL6qQwspOFc5KlPRSN57TA82VKM8ezZtqR5To0sf5CC5r5SDlLipw8zWhnEep+W1vJLIYcAQL971W7swoIkTz6RrP61ITml+NgJ618JeOl8DFWwFoLSaqpTnQ8GfgR7gD1+O5dDz26q6x4VeffeqJG8+cOjb90RMjM23v2e+woRLwILWh4l35wb987vbo2+cuj7xx9sL+q7fvP19NZF9YLFWOI7y8N5ZKD4PkgKrgaEGBQydh6ZCu24zG3CzasjSp1uXI2OsMFEwr91FElYhSW/k9ruQbHqRWIq3V7RssThxrs9PDhNytDUm+ocXOcgpGqO8hCnt4dC0PUvULXDbFIFK5o9ltMU+P8VgmE6cTydl4rDplyoXLiHa9nY2bVw7u2fHOu586cfvJ449Nf+DYzsVOReP3Wz8JeJBaP1mu+kjfuz039PY7Z4bOnL+86/rtu08+mF74QKFmHgff4QD4tmMmkR4AQGU4cdF7AT56a+uwXl1LkFga9m9OE2gkQuhNtAOpZt9Z9e0v+0UPUhsj16hl0lipYqXn1JHVYA9bCnpL1mLoFK5CRoSDs+xFrNfiKJlO1WNe8CGAMYhUv/I8uphMxyqVh7FK/kJ/Ovm9kf709w7t23X52SdOTjx58vjMc7sHPUtwpcNklft7kFql4Nb6tbceLGTPXbk6+vVvvbr7/sTsiYfTM+9FXOnJeCp3BKVmxsCrG5RK4YwL2fgSY0wCIYwdub5IEeJC/bqW46bVYz5LHe+NANWgZCKlbXgu2mJrCdy3k6MHqXYSWtvnUSu80xifO2vbZOSmscDQKMXwCYgpbZiM4TtdD5DieZkHmADRgvFXIQ3VMPNwInopUOECzSKrc9VSYSZeLV1Px81byVjltb5U6uKxo0cuP/fkqYd/6cXHp9b2BPy320nAg1Q7Ca3z59+7vTDy7VdfH3vjzJljtx5MfahQij+PMqFHcJodmC2DqPGAyuHS0EcIDFKANPSUCE6cUIwjiUUl1TxDjLkIi8opkXA+TZCMi5NK8Dl0j61sKFUK1myzykQLIm0sSEXF70FrfQekPEHJQ3LHba4SWpH124LUMpcrpImAOKG2WDTpez3AqNUl8J6F1Yo5AAJ7UOBYGlCSMMReYezHhUuLVysgXJTZCHISPvZbaBNzpj8b//aR3eOvPPfEsTvvevqpqRd293vran2HpxzNg9QGCLXZIV+6NrPzK9/53s5XT59912yh9MFKIvX83GJpfzWWGa4lEgOg4CZKoM2SrRRnZj3KEaHJn9Bq0e5bLCeh3mLiaHNVBQytot0apLhPXZE4plP9ClF1wv7hHDb6Zwuum81fcrX1Nt6S8iC1sQO0E5BaziZv6s6L1EQU1qBAUJQryBwtXoGySgOQ6jARfF0kY9vCkOZesYvCuqdCryqV0thvGUXc6Q7ETJzH/guwrh6mY5U3M8nqt8eH+l55+uSxSx944dmHH35sp++VtS4PRw/iQWodhRk91OmJfObs1Rvj33r59YNvnb38kUI1/r54OneqWDG7ytXYEMApXWX7b1R8INcuzETipCFoqVuvXsRV7B62aKA1xWRGG59y544y+vQh11l0YfBxyqeZu6VxBdvoBKpayvhyymujxOotqfWV7FJ338ryxVrZXWE40oK0ofJIoVQEW+MkyJULswGbE4Lc/dsUhw7IEctJrIaqKtJAM5GWuYaOjqZcQmqCTYdweYPSVwsXl06i9QxcggpeqWq5WkLbkepkvLx4FZT2V0f7M984cXDP6y8+99TDP/+eU5Pr+7S259E8SG3Acz8zVRz47lunx19+68yRyzfvf2ihbD5YrSVPIZ9pFEnxYOglgS8pSWCsYq5JzyEghQMptEfXvjwp5Dxx0mAiodImu6KjIoS6IpQ2rt8Ju2KagVTTW3T+/2jMoEVcoJmS2QDRtT2kB6m2IlrFDsw7qleeaHaA1vliChbh8RGuIBLwelrFm+z4cwuppu5pe0GuqkZ4cdSsj1enAuDc4pxiXUCCk1hQLHgslVn4hsapEpiHtKRcxXYposySYjCrKgRcvCZq5YVEtTwdr+TvpKul740PZr65f3zktRff9eTt73v6iYljoxnvCuz0wUT28yC1SsE1+9rpOzNDX335td1f+e6rz9+Znv9ganj8XQulytGKSY9jguU0dqSMvLDgo3lJLs+DK9AgTTKge7e2X5yPn9fmKLzhzqyiTGz3VZe175IlXZFPriBJyXXVJoLafbxIlqdh0idXmVwZM9myRdBgLcojLNv1Os5qH3Or82/2da32fqLf00WOdiR2TRfDHXrDFUrc+Am/SiUTSeqW3vLSvNF5kOXYjOvIx7aRYwis+B7yktSNDc8BN9bxU9Cz3ZfxecBmlTqTcYPuzzKPUuksnAqrL3hOkJKIqkVSSewOLdrcHHJuyrrs1N1NgCpZ4gfnKd5hRflyqlaajlVLD/B6Jl5eeAlg9Y33PPvk+e9/8fmHT+8ZZtNHv61AAh6kViCsVrtemCj2v/TaW7sRc3r3tQcTPxjLDL6nEM/sm5hfHEtn+zNsDCfgJJnynBRNcpuarGSDid1w4kaQCtdu00+w6uNcs80F0b49YAM610W4DBHqmollFnSw5WoyqXXSuKmVp4m+rlQS36+3V9D25Ru1NZfBRp1t6XG3EkhFZclnjOFRLyIcqvbgJNFQpSSU7MtSHYpNdQ9Ag/SkHl9N4zm2eoTW6KvnTEjaOKqd0DtAlxsXPDLe4M52+9GbzWr8ScRop2ZmTRzAFIMXgsWRhZFnQXC1I8IBlfv+0gaa2kSyFZUe/g1NgmdUDdfvEtxjNZR2rlVmBzKJB5X87IVEtfi1w7t3fPV9Lzx96X0vPHf/1EjWW1YdPjQPUh0Kqtlul6crA196+Y3d33vn/BOXr1z/M5V46j2VRObQfL4yzqhR39CwyRfsWOQAZnUHXW2F4kRaVqa+ae27VluUidcOpKREUgiEOLFZPVosJ1xTOb9gMlAkXBEXbZFZObclavDVlZ4Rdwh88tzK6IpIN2QWrhCxrULKJ7oSX4OIN/2rWwWkmt2HFGwt64gKPzP53S483OJFwYpuaKREiNJW96C+X4+nam8qRlHVMiqB4s1xg/KQARgSrGT84SzZFD0LOn7o6mNrDjQ2NKOjo6Z/YMiM79xtUpmsuXv/gXn51TcMEtsFpApFtfZTPPAatuVzs+pUjzrrMASyXHDSjGSJJroGeQdczMmdELCqZnFhzgzmMnP96dh9U1w4H68UvnVo387Pv++9z196zzNPPnx6JOV64azhLrb2Vz1IreL5np8oZ19/661d33z17affun73x0rJ7AuVauxgqRIbi8VT6SQmlakl4JYoBvlMBCeodnEJiAKI4W8Mbp3s2tMn6m6QyR6w7/RCozZLIxFCKb3hza2eneKh+4WuFYIb53cSf48MD2G1mjOL+byZm5szxQrAFKAlYMT6f3CzxJFLQn2GZoji1kljRctq6QWAnLuqMPEjWidwFWLuiq9sFZBqJUx0tawXbA1ZOq7mXt3dW1fODRaZ1HlUd54Cjbr1yEh1Y44xHI63GDQ9i7/25/rMwMCA6cumTQ7JtEMDfQClETM0NGRymDvch3EgglsRwaICArnf/d4b5tW33zF5DMJ0blA8BfycVdBXUpqrYW5Y7Ve/s9CnSxiGob3sZwnceoJziV8DAYpMWXQekDmoTk5j+vr6TH5uBhZf0fRlUNGiXJyolBbODA9kv7R/x+jXfujF5y89d+r43eMjqaaX0RWTYJMvwoPUCh7AFRRVfuPta3u+/cprhy9cvvZnHswtfrjaP36kWIuNw+2RlErOgiQ6Qdn2QpUcJzKBia/STiA4q9bK0ziVrupa8aUi4GMZUg2TLgJQnLxSJLYMaw7KhP5+rdeHwrJwsaRwjOOH95ljR46Y/fsPmMVC3ly5dsNcvX7N3H8wYeYW8lAWaQGqChgeVAzOjUg3kbT9sI1xA2XGKughq2oF4u3KXbsdpNrJOtxM0IGJEzSfmZQEsnHKulFST1WI2SaWztqRqvXWCtIxXh+vAl4k/fBzDNcExsue3TtNPyyjsZERMzIyjN/7TSadFCBCrhEAC+47WwTWuaPF8mdhWcadMv3m1r0H5rNf+KqZmJ03i1zrJTKsDSEeggS/u0p3s7OilgOpxkHZuCetRjRlsyAFpi3nB66Lr+orUTdmDYs+ujDpuRAZ18pzplK+F6+Uzu7sS37h2P7dX/rw93/o+o8+ved+V06CTb4oD1IdPIDrhVrs7Qu39n7h6999/I0z5z9ZrMXfk8oNHFssm53FOBOaUnbi6ipShicUu9JWrYhDwNRZBEczS1qxrtqx+JTzVxV3SxozQ5QJ8jzochyD5XTy2FFz7PBhs3/XKIw60N0x2YixtJD4en9i0ty7/9Ccu3DZzMwvmMnpebhY0AQR7r4ELKsqosZFKjDmaYUUVQNorpEe3MGj2fBdtgJIhYEsGpfi31y8KPDYDdY1UyCoWF2siIDCMKcSbMgyRS4frCUCTl82I1bQCIBodHjYDGN8DcI6ymKBIxX2HQXdWlTiNrRNDKVdPMcJk2bl2EQ3dYFT2c8tFsxrb50xX/3WyybZN4QxlzAgjYN4l5ZrXAtICWi31IDNfBbWarQLREblkOQrQgMc2aru+uoWrFzgEZDp2mQTUW5oGSLsXZArpiuLs/cHs+k3aqX8Fx4/dvgbP/ljP3L9Q4cHJzZ8YPfQCTxItXlYl+drg5/78jcPf/Wl1z45sVD6ZDGRPbVYjo2jGnmG7KJaiX46tZQ4vxDlweoUYMBVJganrA6lnQGHNF1oVAXud5ojXMlG1nKhZMh6VfLWFxouxulIEWJFAURymZTJz89gMpXNrvFhANNBc+jgXrNnxzh85TlTWZw3GSgFAlMJKz6ZcwAixp7ovgA718zOL5rbAKxr12+b67fvmGkEsKvkzmOfGtwyFd6bdfeEV+kbPQ8eBami10Eq+gzCFq98xvbtgavOkXIsYGBcZuGOy2AMDfYPmMGhfjMyOCSuOsaN+Nko3ktZ4oOMY8vUc1Ry4g2jNZaGo+zQIIUCQygDILMxU/c8uTet9DIAaQbW/Oe/8k1z+RaMjHSfgFShChWPtaE06ZQ4b2fLvmbjcWkLl8ZjOedIPe/L5XtptwABWc5oWZyGNptsnwKY8zrVBaquVSboi2tUypsJ1Wk6Ga/cLc9Nfm/nQObTP/pDH/rGD73/3TcO9DEm4DcPUi3GwOXZcvLKnYf7fucP/viFO5NzPzG9UHx/OZnZh6rk/WVYDxVMljKsj1wC/nPMPLKMKrbuF9KgZPCKKwUDU9pgcAhLgzhXIcIlI3KlyZ5MXIGtvKp4FKCcBUWAQmdSAae9u8bMyaOPAaAOQKkMALzIoNK8qxiuUSor8YcKhr5+SVhkPypeOlau8O1Vcb9c2ZL+e//eQ3P52nVz8/Z9MwEri/uy8K2UkiFguRWxdXeG+YjRletKy9642J1YqkHgvvEhRq1MpyDdXmGmVl0JNR8I3QhSrmp5lLASTn51Zayi109XXA0CIAGC3x+AJZTAAGDjyxwWLcODg4gPDZsRkH5yfbCQBvplsZXCYBFGp2hkfaIcyQgKcYiI644b84n4uYxykm7wuWCXkC7UDV5vLK8xTz4D/YwH1wVTFZYULaazF66aT3/+SyaeUSuqCldfif2rQLCgsk8JIWntIBXkeYmjUZ3uunRsdLOHx4s68nF2uV8dZeJFEazmnFbwkmegg7XxeIj7aldsyLBWqA1mkg9T1fyV2sL0nzxz8sgf/ugPffjiR07t3/YuQA9STXTT6w8q45//xstHvvzt7/1lJOJ+pBxPHsEwHBefs4xem8AYfNc1jdMSRM2njBvs0X5NOqnFYmoCUgQ6Mp6Cwc6JIWAAJQAA5GRW7YBrANil6IKr5E0/GHujQznz7OMnAVLjZvf4KFa8uDZOCHrOqQhkGrr6e/YwwYiwK0VrJUnGFleLAGWen9cFDoW5euueuXX7rrl+67aZJekCwM3agwm6BREEL8AUo9xIJZaYlohP66XxVDEgIdt/u/tz90YlR1eTW4U6xdiQp2VBSlwt4nLUXB+eJ5ARjs0qASR4MJhPZVouFUTxCnONnWHx1WjH2ybDwgqotdJq+Z01fEDAdTLgNQsjT2Ic6nbj4ijsrmMMqYpnwPgHP6fE+T1aPQShPtC5cwMAowHEh/rSZjyXMQPZlMaKMhl1t3HRZYkODYuISEIuZRZ2JdaJM1rRUZR2qOuyE4ObAS5uI+OKtShp1eGKmQJBIEKFFvMbv/tpM50vmzl0mK7G0+AjMS9LFX/gWl8HyoFb/ERf2z06WRA1xJibf6N5p2OOV8vmhQtDYsWmmk/GSg9Qbukt/Hz2Bz/43j/+2Afee/u5seRsu2vZqp97kIo82d976cKRz331Ox++OTH/l+bL8adQI3kXlGzWWSycTC7fiV9ttxJfj4HjlDWBQWIEtgI6JykVGPrgcAmLZWnRZJI1s3ts0DyBmNPJo4cBTDWTA803iYnEAK7QdrEqdt9llXXnjGl2rUKOcAonRIoQFw0+q8aQYInzF4FY9x7cN5euXDdXb94yU9OzpshVMleLAKUqfwhWOBbdg9y0GJTmurh8GxfEj4VyZUTZRRJVCExUDvT9u+KgQoUm4OF6nIxKSAFwcZUaAZqfQxmIq4hAJffQvSAlz0liOXpvlDuvnffBeBAtZThcg4Ko4oJDTGgn2HL9fVlYRv1gbsIi6oN7DgCVpuVkx5BYQsWFkLsu7LYNxVPDAyNi+qpXyy7aIkzUViBVPxzGA9cJdIVJvEvjuKz+UEtkzYUbt83nvvQNM4c38hVAG70SjIFaMhIXN66G5XrMs0d/jDobVxeMVrdwYYHOwXBlonpF8YtHD+z61I/90Efe/uQT+249+mvc/DN6kLLP4M1bcyNf+c7Lj33+69/5q6VY5uML1cSRSjI7VAWlVC0oOxEdSFl7qVV16PV6tBLYtm3cJVDMmn2OlQVXCpweXH0JnffA3j3m1Imj5uDeXULtpbWUYR4TFBndLs4Pzu+rstO6Zctt0WTNBvcRrRBGBVh8EwBKZZ9C3KCAv2/duWOuwbq6feeemZqbN5NgZjEBkzEIqRSA85NanACIqRWlCtJZQAFYhRRf+NwsrMtJLQV5bUCf90EZWVZ0kHDMY2awOpe2DGzBAOr8wsKCvFpulhyr2dauH9JaFylLXZPNrqNOoHF5S7R6BvDMj+7facaHB8z46JiQFQbgossihoR+SEKa6YelJFYVQF8qiWChEufAwEYjh0QZF090shdwsWSKluxBC1ZhQ6luSXU++l0JImfx0bXMMG8exBySJd48d8XgqWGRg3gOYzrWsuQ90TJ+JKvEzm9nxXtKgWha/yJ0W3pJGJJYxNXKFeRV3cMcP90fq/3Bh198/o8+/v3vu/HU7oFtVbVCk2G2+fbSrcK+X/3d33vuzTPn/6+VePrFSiqxD74qaTJYV0Lqa1b/N3/WwcfQodzDrisHMFxJ96UzoMCWzfFD+82Jo8fMrl07zFB/nzL5oJRIdy3aPCauOoUOy0luY0eaC7X8fYQVTyNIaAyhXMqDnJFDWQCNEZSrBZPBudAgDvTjHWYBjMDJqWlxCd4A6eLBw0kAxJSwobKwZCTeZVfikvQJMBEJSzBdEzfdeTVWoO45h0RSFJRMNMTf6PbifZJ1xvuKYdJXJEhNF2MKiZ8ARNxzGS5GWnXidnSI1uGzeNS7OQo4FZjGOEjzJgVH2ZsEnT4A0fjYCACKZYKK8Pbmca8xM4yxkF+YEUtJCN2S/1bD89EIShnHKRcLSuyxm1scRKtDbNR9C87wOjCOGRylZUbm3r07d7HIuSO0CHlO+JG8KLG8dMyKy6+RrrBRl7lhx6XHQIYz/ucIGLQWK/QkYMZmM/17i/m5AczpvX/69ZeO3bk38evfvTF7/r0Htg8DcFtbUnfytcw33r555Hc+/bk/PzU796OouXKiWK3urJHeioGSx0o/Cbp1oMZD9fPqfvXlLZG1jm6ZmGwjYF08bnKSYbVnbMh88LkTZtdwDgqqH5MWQApFVKkiWI3ZLgVpXexFFJyWwRGljw/TZPUxsB0GqgizwYFiEANg/MBaPgQSiYvQAhJGFnvvAPhoHfHYUKMlMpusy29hcVGo7bdu3TK3oYAmwRKcyUPRkgFFqoncp9aAIxMqBsCqWJaUszi48pQYNMvyCH1a4zI8G/PShMQiLEWl+w5CLlQDC6AyU/nxXPN0AeK5qmxc2mXjk6pPjEbLJhq7WqslLZlrpGNHYjfNCq46i4fApVUcsBeta8huEASH/Xt3m0P795hdO8bg3svCemQuHN27QncWufA8ovMxBEiMkXwjSwevAxRjUupCDJprthjI4etuZknVo1PND+CSfxm7FMIOxwJiT1/+xnfN9946J7+XqLRpOYv1rKQEjUBqTLVXNxlLtvoGp50sfUMLBmECgn07DvdtKT9fAA/yXqJS+s7O0eHf+MQP/9C3/8qLh7aF+2/bgtTt2Vruj7/y3ZO///Xv/Y2FePrjC/P5g4hl9PcPDpjpedCyc/2miNIrwshpCIzWabpqV238JAnX1ePApTJnoHsvKOXvfvyw2QWCxCBYWWmQJaioZfWNH8eYoiJzOVtOkRAI5OqjI6ANSDmlJdcExEvAXHNuRGlvj3OVZRWIADjyZGj5FBEL4u4JEEBScFNxn9nZWbgAF8zF63fNnQcPze17d1FCpoDP4Q60++RF/gQwIhEDR1C2thKGcw8SoFikVBKnYdVViouivHcgcXR8x6h57PBR83Byypw+e8HMzOUBfFyAIJYDK5QVQcLJqGFl92hBSrgKDVuYseasKTfS+LcDLGRCiAWr7VsM4o9J0MT7hCyzd+e4OQzQYukhun1JnOF+QZoCx7ZU+m6MO+qFNJa6agUEawEpARnbjqYkieFYNMQz5u70nPn0575gbj2cgT8yh5Y1jBuq08fFFF1ysbp9e3MTNqa15GOcOzLMG4lVzKmitVtjXzksMEByuZefmzs7Mjz47/7ij33ij37mfYeu9+bdd37V2xKkztwv7vjqN146/gdf/PrPL+RGfgAxqP2ITyQYp1AjG+will9BzMLVIFMl0ixesLEgFY5DuccqiZbY+hF7SJQXzBhyVXZi9bx39y75GUJcgoObq2hhfxEyLPWX8QixhAAcYp0BSJpt0VhMlMqstFpljpXgYlKgUsICZSgsd5El4whW7TEOZi0uoScjCboEN1wB1tPU1JS5efO2uXL1qrn3cEJqs6lFRmuKril1h9ASIt2CK3QhsdB/L61N4MbCvQ3kEqKcTx49Yg4d2I/FRh9Aatq8+c5Z8/Y5JiYjhw2sQ8Y48gVtKNnJFlg27mbswmWti5QwW3TJdQQxCrWC5a7lVa1X2oCItolMk3hgBFx0PIdCQxSH8Uq8NzyQMXt2jqGyyGFz8MA+sbAkRinVGriWUfd1lKXnCgi7BdJqQcp9r5lFJVaUq3bOxQOe4gIA6VVYUF9/6TVh91Xo1WAmUegxMR6lz55Mzt4GqXrHbG37oSDFJ6wJBRU8SxJepN4nFifFPP5OJmdQqeNCfvr+pz7+vmd//RMfefHac3sHmrsEOhncXb5PZzO0y29iJZf3tUuT+373D//4fafPXf6bycGx52dq6b155F9Q4fZhAhOoSPnmJC2VMdkD8/vRAxTvi8qDQOBcfo44IbRkDFpnOZFansZtjAwNSl7UQbh+9mE1PUR2FytOYOjTBaZ9qZSKTdq2C9rGNPkmEGUrwoBTZuTIqdsPkNRkFAVxjtCH7hTylqyOEU8CWJTxhlh4WEnzvu7D8rlx/Sasq/vmDogXZAkyjlTS4JKs/tXlp4qZ9zWK5NJjjx00p44fRqLyqMlKiwclC/QNjZjpuUXzlW+9ZE6fvyL5NkUSLmBNcSHbSXRxo0BKnrEVfbMqIiIXm9xdr/itY1EsV4CUuMEATjESYViqJ45xQXHivTgWEHswDp4Aoebo4UPIe8qpixeyY4VylOdR2dstcClat267udXOkmoHUnx+JLRw4cAk3Vm4f//4S181F2/cQ1ohrtW6ioNkWrp/mZdk3aNrXSS0u7+N/FwWHcJU5LNUr4y6f7ls0MWvLOaYy2hHqRBG6ANBAcBMvHotWZr71IvPnvq3IFRc+f5jO7ZkR+BtBVJfvjj52G/+/h/98IXrd/9Gqn/wJBJ0x5jFTldCvVIDh4YDJB1EYXgK+4xlELUJ3LZkR9nRvxpGVHjicCEslc05phlfAQ2dDrIcFFAuHTe7EFB/DBbFUSTyDsOVyUKXBCqCVOC6Y9ULKH/LbLfJhzp5AneYtLbXGIUAJeTCqumSNxVe5RJH7MSLTnBH9ZZXASliFdl9SpZwshULgYx6TNwH9ycAWpPm8uWrQrwgWCVQbcAxAVkN4dSJY+apk8fg4hvAfZG+CyVtrQVe7yJaIWf6h8wk3H1f/+5r5h2UepJpD4BkVQ1bCDyI2Ym1QvchV+r2XmiJ6qajwbng1r6Sd+5jVUwOqJwsNBbIH8q8PhLd/ct18rnQmmQdO4IOyCt9YHcO5JLmA9/3bjM2Ooi4xqBQ1hmopytYmviJu7duiaxmLLqYUuBGtjl8Yuk2oaSHx4SzpLgvE+SrAKXTF6+ZP/nKt8BZTZu8JPrCEg8tFF0ycbeAVNTD4O6v1fvRORFOwA6DVDTWFjx7SdJ3gQbUu6mUr/Sn45/dP5L5jZ/+c59462Mn92y5fKptA1KffvXa4U999kt/9trD6Z8txFMn8rXYQCJF10fIH28VUHjguMHm1EPUZ6yuh9brrY0EKSo0+vLVBWRdIAAh4lUKq026e2QFVkGsByi2Z8cOcwRlkfbv32uGUXlCqk3TGrMuL6mQwarnJFxYajr94XQRiuXlKOJ29U33Xi3SKiGa4NlaMvYTa2kJg4tApZw1qejBj5Kwduh6pdwX4Z67ev26OXcOAXX4//bs2WOeevoJkwOzkCSQGgEaicxSpofWh9yL5tcsFEAoQbWCPGrtfvN7r5jX3jyN1bvGO3ASPTcUJfenq1Hyz+DuDeKBGwRS4bGmEFh390gYLgSWQdsMkh+4WKBRScuY4MUAPACI8SfGo546dcIcR5WRcmEBgMWKEdaSxrOjleUWKC7e1w5QWj1HsaZpETCHnAxEEloYO2wDUO54vFt5tnD5LlYS5ovffMmcu3rboPRYPceO8U27QHAVHZytsdmW1FpBqr4gVgvK9W6ryztEqnFjWiwwtcAT6b7SwuzkzT2D2T8aTVd++2/91H/wykce37elgGpbUNC/fm7y0P/52S9+8tz1O3+z1jd0Ip7t76uWyGUlG6weSK4HpuuoYzMYuHYOzVP1GTePUbVVy+u6Ay2dhngCWXEYxGUoC6H1ivXDUjIxc+X+tLlydwI+7rOi4PftHjdHDuwxI3ABsRoB2ozICptJo6TASsIrgJwuPVocyhak+aM1CTXRVCeL21qR8+usuEZEd8zCmOvgSjlTiXK+El9Boa/iJFSqo7jGAbjzDoHaTgIFy/cUQZaQNhAA50QMCphxOjLTcB8VuEBJ1qghtkEgJrGkvz9rXnjmCfH1n7l4BTanApTkecG+SgCYuG+NybNhN5i9wY1Y1WlsJXRkce+p91VcYfhMC7oqkJMIo4xG7FOYx75waSJh9+ChfebkccTi9u1lWwjsiH5fsKZY7Z7jgOchUUasbtwtjao4XacdjchWsVelt/P6Y0JsEWeUgn4Lizp8Ok3zgKzB7Lt79465egPWMp63WE9i5SlANXo6eIQovHd0E124kwUnd2VkEDcIyKW9UKDCoeUvOg7IzMQKrJYeeOzuzOwni+la7Nc+9ZnCq7dn33x+7yAGxtbYNmLOdZVkvnF+6sDv/vEXP/76xat/N94/ciofj/cvcGVONxVor1nMA3Ud6IOPWkWaCc4BQVHpgHKBTVnNbaIlJYqA1xS4pFSZq4JgFWslf2gSpxa51O/QZUCARhJwomJ2I4ZDksGuXbvEwupHbylaXlydx4U5RwFgvQxLxcVFCI6yio7E7KLyC64tIBw0ghTdpa7OWd3xxWvk8ZWaTrq4Yw0yJYD3WMQzZCHfBOskkoou5BApTaqdj20yKhUxgTSNeyrA+qI1lkUzPeZrfeOlV8wZrNqZDs3NVcIgWYNWlSu/I+PCys4p4PVy9zWzpNxz5WsaYJNH3lMZ+WasZu+Aiq5d1mbcgQXGwX07zZHHDuE57kTOmoIs86h4jRXIiENC25s71yEXGojzUThSraS55eMWIjqhm4OUxE+4SGCs0JJJAnAnk7CNRcXxU8TzicPtTjffG2cvm0Uugmziro4vtRxcNfVuUjBrtaSaxXPD91efT87NXF9SEKTykBV7VlXzM5VcrHx1MFX5/eFk9df/4c//7FvP7urbEkm/WxqkXr2V3/uvf/NTn7h8Z/Lnp4u1pxK5vr4CLAxWRGBTNXb1jIHa2cmaLOxWCDOy1lLccj0mW7PValgxUMERqHi/zl2n7kG4tmA5JCWnChYHRgIH+zisk91ICj6A1fguVEpXejeR2bZuwK88HgGwWMwHrsLovbjJJWDZYhPHlnVnUWnKAsBaaIqmWvJI3IoEYlttO5w3xsKogQzIFENumzIiwW6EFcUYllR0x9dJ1Wa9QzIO88WimVksmT+CYrx5f1IIFGxRzuTjCskqtipGPT9Lp0oAUi5/q0Wbkk6fbTtrw5FjuFBgnhNBhwsIlj7agVjTc088bkZBOWeFcml/YRmPcq2ST1S3aqSvEeFGUMsuMhyQRLTlUuW7FKTcgo3uPa0m3mhBcaEQHMfG0xwBgNchsSg82zyGyBzq833qM39qHs4VDTrjSMyQz8qNo+g8C55LGzuwrXw7dEu2ep7rBVJRMGp3Pp0eXBhop2zr1q/ESvlLo9nEvz+2b/xXf/Yv/cS5d+3K9Hwl9S3r7nvp2tTY73/hS8++c+3Wz9YyAyfjfem+AjieVFY5KaRJeucyrE23MnQFXMPeGDEGOnOSdKqsVr9fnZZM5eryh6iEpCpF/6AcmoqbibVUZAmb4Mv+UKSxs5o74x352UW0RiiaazfvmTdPn5MKBuw7tW8PqkfAykojGF9EImwe7RNYLzCVIlMM7ihHJljhhFfrlNYYAYjTjC7YUGox3k/DcpJitshpkg3AQ81FlUiiQCG/qDE5JreyogTLQEnuD+q9aRl3AC2sIgIU9iF5oIg4G4F5N2j773/ve8y3XnnDXEezR6b/sko4c1aYFEx5tuHFrP6xhb4ZIVYGnwSlf8EylQRtKPrRgaxYvY+fPCE5UNXCouZAAbi4D5lgrj07hykxVONGkC7jduJaFG6mpADq/1a5sQgsm/6J/HXBoW5arYjPihYu3im+W34W4lIKgYZFkuGWRRNR5LEhBQSdApJYVBQxNpOIr4n7WcaXm2+t3I6rvIee+ho9OY2eiGRN2wLRQwBZokfDyKGp/MKfu3B7cvo3/+Bzv4nbu9JTt9jkYtcwQrv31t+8Ozf4qT/58jNff+30Py6nBz80U6yNxcEcoqtIVtn0y2Mi5VEBIYMchOb119zKsDH21GB1Sev3LpADV8UYu841GbZGXKWKwF0leFCPt0giKJUZ3pPKBFRibL8A+TD8xORYWbmPDJnDB/chhnXI7EDeDRUjV8op0pztKrmZa2c5S0pPbF2QyksPhOmORUChhcdyR64Pj9wp9heChyV0iDtQMEVbjYjnXogeNseI94zviTysBUfKc3xwB+rDXTavvfEm6g3elQ7E7JPFK9GKDKoU6+4+vUR3X+3cWe1Gh6uCHbUYHD2ZCcr9IIbsGBk0hw/sNcePHJLUAoJpKT8nybs1gpMw/CzT01qkfI9lpwQ8uAgIrCeVjYyTqM53RBYLKvX7a2JJQTbJbL+ZX1wwc6yAD8uaFee12jqSsrGgKAJERX5NLClWkahgXt6dnDFf/Nq3zA3ES5keAN+sVNOnm5fuZVnD2LHhPBpbxZJyY74V9Ab3y+lBfcPFhtU51GE5zD/GLVNgr5bBlGUsGhZzEZSg04n81C/90Pue/YP/4q98/Ha7cdjNn3eDil1X+dwGLezTX3rlSRAl/mEpmft4JZHbw2RR9kOSeAZUVQmTiTEMJskV4fZpBJrWw0V0asSC2mx2kQOmBkXKlbNTQvZ3iUkw5wKTXqqpc/VL0LYUdn5f86i0zTw/5yQgEFVhxRBLsmz7jV8IGocO7jePoWbg4T07sB8hoW7RhWMIWqV6qdXpWhc0UvqXVt5mTpdrDSIEAuvec3R4Kf9ETSv7afxJLCmelS48m2OmeKglk7jxPkh7XqxCmWKCn7t02Xz7O99DIvGU1ItzPYuEGCLB+/pUEX1h3Ziuj1Ang7g+zupjjPEc1eIad3HghOKiAqqjyHM7cfSQOXXsiAAVKfZScIqvdNOSDCGxJr0+rXmocpTiwbQiHS3cWlVLEttCq/MoOzOgwlPG0k5Gr12juMhrIuMSVe8vXTxvHjx4AMJG1uzbtwfW3kEzNo5K7EimdsxTtQxdbAWLAIxHxlRY7fzzqHa+AGCqxbOSD5dAknkJqQOMOS4FqbrTsJ27vdvdfR2DlF0s1WPkdNij2grcv5wTZEeSpcoeXFXMiUzMzGZjpZfTxalf/L/82R/58s985JmJTsZoN+6z5UDqd1+/efRXfvv3fg7B158CjfVYVYgEUDJWF2ghxzqjRtWZ36IScGCs+ktlVFdPunc9cL/LHDnymFS9yLFVNr7EwL3EUYSFJh2f5Dt1kodoTLV23CiMsi7kHO7KVLlFLVeClLsy1wC9GRjoUZaCZQy14YrM2cI4uXn7ofnKd79rbt6bNEmUxZqEWzOJsjxFIDk7rHKRQ9cU2XVieRIMmW/EBQHrPoirsD6l5N4QEXB9oNhyg5sr5SMV222DQBZ+FVYijs/Ugf1gMDK37clTx4VenyYZwhJYlPhiySGWKKKyocCtZWrBRCqAkA1IxU83H67PWV2cGkVWRSed3V22bYfupC7sOxblhRIkcFMeTBe492DC3ECi9UtvvGUW4Tane07uzY6XDKwoWtuPHToAFuku3M9Osa44Dng/SfxwkVBIZs2v/vbvmoeoMqK9oqB6mToAi4yWcxIVJ+S4Ld193eJ2dxLb2NcgdEj2aTA/6C7QscQxoBxAppdUH6TKhS+Mpmq//PN/+Se+88ln9/Zksu+WAqmXbs/v+Ne/85k/c/7Ww3+QryWfhE2AdHxVdEEAGSoTrWmk1ApXr0kym7omvrSxA3y9j87pwKoG7M5K1tnIcD8qXexBrITt6UdRkR0KDVYY3YgSmyA5wlldpMizcrl0Lm6jaCLgRT3oBi6Pp4U6l8/NaeWW1bwwxKkwLljI9PKNu+ar33nZXEcScQaNAVmMNgOXFq0ytUBtg0ZaK7YslNyXdMqqb86SJcmE1rp8lwBuSSBy3YwLQX6ooytWLAtAHNizU1x6dO2xBYfUbEPNPen6RVC3VlFguYZnMGSgSqxuqUnVeMiZVpBjPLLKhO6De8DJeS1Sakvq/2lsj0BGl5uszmlNIo2BCvDB1Jy5iMRqxpBYGQTdqoWIJCDIJG+yQOl6xL3xudNyzeCYrCe4b+9OjI19Zs/4Do0N4gpu4Hif++KXzfz8osSnpPyVuCHhcuVxbM0+J9mlCmt7gVTjHKZFqYn18VgBk8I2GJVKJKiag2eertWu9tcK//7oWP+//qV/9FdPr7cOeBTH21Ig9T/89udf+Ow3Xv5viqn+70fuwHAZRAldbdTdDFQNBCmuNIRCLiHk7TzQVz/MqBDZk0po6qx6QWXIxotQtuOo/jCGKgePI29nfHhYyjNJywgpqEmlS+VI66OeV9P6ShqfTwPRwLLsZLW9ChIA0xAyqJS+ADCKw0pge/LXUefvpTdOm7ugqct7sBwKYJ8xfkQXMZUoV/nSPJAViZzLrglIWU5IQCogAUTyz/BFuk9jyNditfIdY6Pm8RNHQCU/KJ1y45BTEgm47AMlzi1S6gXk1SqSPkSU5zLMDsV2kiUIoNJe0gIdj6H2MdmTjmTDuRAwJ2HJKNsR5wfQTkwvmnfOnzfnL103k2hoqYV6mEyuSwxXiYS/K+CpI1wUKKvy0SNLaxOgxb5Xjx06aA4dOWreunDFnL14WY4leXe0AoSwon3Ggi3ohu3nal0oLvFbeJJiTamXiHJkFR0sOBCw7DPlM7WZe//iz3/8w7/3d3/igz3Xjn7LgNR3r0zs+4X/37/6+YV4308j1H+kyJUfV9diRdWBqg5Sutpsl+e0ehW+9b8pGe+suYbALQvW0hJg4mgMjL8kACttXVgEqqcef9zsZAt71hF01ogQG5opHWXlNRApGsRZ/7yJh3BFghcrDBo0j+RuKtwEe2PBOjh76Zr54le+AUuqJFUpmDfl8qekJisVMNuR2CTkgFgRcfeJuxMy4UJJrCeSTWBhyOIIAH8MRV9PojIE3WJMyKULVRiTtGrI0NToWkDFDgoeszMxgI42kdpkbqvvK9+1iE5PozCWQ95tATg8NHZVJhGFFhTvU0gojGHC1Xb77j3E665I4vP0fB5uOK0VyORwiV/ahpwiD1iJUurKPlO6JyWnjWxK3AMbTxKsyrAsSc6RdjHZQTO3iBgxzy2uX3VZUu1K/zO3APAg1XRc1wkkGmt17kBdhNNZhJJgscp0X630xdFM9X/+Obj9fuDJAz2VP7UlKOhXZmqZf/upTx+fXih9ND6Y3INSIaaEeEIC/m6JE8iQ5z/N2Kf6k7RPmdk+JrWcVl8u8MyqDCVQ1qkik1BeLMVE9xRpcRmsvof7UubZJx8XF9Y+UtihEKtsskd3E91CtHDxXth9p9figCvE9gs/JmraUB27FaFSZOc4qvIWUCspiXhImuWTyFCD8j8Od1vh+54z33r5VdDyoWSpXaE0FwnI2JdWBt14EvJkc0VrCThHpGM8soMuewIRHXLQ2mVYUjCQUAz3sHny8RPmwPiYsPco5/LirCTs9tEUpeuO8S9SvIGkIiOOZbLfrDJiEN31g1JvQX1zZAXt/Eo5Ej3kIJaSruN/Ac8v2we3IsBhHhW22XqF7UyugQzxzvmL5uate2YW98+4XCzVL0BeEGo/KniAhSdBN14P43J4W2K+wrwUu0lKWvF4vP8Cd4DlypU+S5IRhGYJUMyHEpYm7gi7JAj+PIdbYcrZoosZ93crotNaRkUPfdcmUAdgZedJPbwhTUWHi7XYuybzpY9+/hvfYWuPSz10hxZue+mKm1zra2cv73rzzOUfS2QHjswXyjk4Y6RFOSsI1OP+jStzHiY0B3pcAptz+ZwIVOwiRyaF4ofEiX37HkPB16PmBGIraXxIi4qle4qoRM5KCYx7sEsuV815uqJC2lVW+vI/VX7RauzykShdJb9EisgECtNJpJ0LUCjpsGyqUsMwbfoR8C+gFFMaoPsULECC6StvvG1uIUaVzNEFB6CRPCDG05yrWC0jsqoUEPQeCBQFWB8s9koLKQPl/Pjxo+ZdTz8pMbsKAJvWJ4v+0rpMZ1n9oWLmZ+eEyNCPmB6acIZcejRTNddJnKY4nxAbA8B2DEGt46iXIQ49gIA2phR1L9aegkg/+pDNIeFbymBh0XH91l1z+tx5gNRdtDIpS7yJZAmCNH+ndyJNa5PsSJAlUnbpLgtAAUAFU717a8gRKHm9ZCzCjZiIgYBClynjdLC+aMExV08Hgrok2z23zRnx3XhWO96QX+Y2jcFzMYA1AccPciFnFyp7+hOJj6GA7yufefXS/R99/mjP1PfreUvqymIt+S/+908dmS/XXqwkUjvQIEkCvtn+ARTXRGg27NYOjzHXyNAbUqueeZwMccSgoGEkEH4AdQBPwHXFJNNBWAdkq7HoK5ViHP5yVq9IQElRkdWYoEtmGcr+hNfIsi4OWUlRd16YYajEPrEZgnto6/6L7FDCWJG+YbAASwUWp01IyxNOcoLQC089jnykvOQAzcLiSiQQo8J9lRHh5/dibAJkL5nycPQJRATEzUcQJ/AdPQjgPoXEaPS6QgcuxLgLph8nYkPILPtbQZkUkFNEa3NoCJ1YcT0z8wuGlphYs1rewdLrpRm82FEKOwEuyrtBxWxaeDBtJNbD9AMqL4IcAQrHYwuUKjwOrDZ/9/5Dc/rMOXPl+i1h67FCfBlWWxzlpOZw3y4el4AVKe5dABafuTAdGS+TOC8BRp9Q4KUT151lFZJ9RqDjFTB3S0oy6TWxRJOwIMVVqAtKib0Fd+djUUsnKmVSr/sopakoTzI/9SmA5s/FAeSdyeXmC/PHQVP6yLe+9+bb+NCD1Ko13wq/ePPe4s53Ll39eDmWPgSVx8JuoL5qnISP0OWxuDYRPLzk6PARbpmI3AqFtl67s9I6VtiHQT8/dfI4aMa7Ja6CrlBiOdSYwyQES415lKHcCUxUPtIHC3XmpEFi4PCzq31Hn7a62YbmZfIFfXaYsyN+W60f6B6l6nK38rCBGInp0PLiq1a4cK8ssCrMNChIalYSG8jgSwFAFuHO43vPP31K4icvI+F3VlxiKLOEe2MB2yRZcxxPNhYlq1i6s4BQ5C0+/ewz5ijyyR4Ds43gVGMpKcal6A5jZ2AoagKgyITXgGtncqz0NwMNXrscE4mc8teKGAJOzpXdkChbV+aaUcUdbS1CsXDwdAhaANk8aOU37twxZ2A5Xbl6U4ArDg8EQYukIyFOwJqiV4JuQ6kBWULElyxFxJdoTcYIPDwH87PUEBKLyiKqWlWk2lNRsioI5KgsRY4DAjmukfUVsQ+Tf/3WuQTq+mvpSls84gw5YnwvYBwnsdiIm/4dmIEfOHvp+te+efbevQ+c2tUTQNXzltQfffEreyvxzPehOAiqSmSkVhtvSkq1UGFx+WiXdeH4ijhMZEL1bmfPTobzWpMZo26X6PF2Qvmm+8H+mpkyC6iAQKp5FvkxXGVTITEnhkqN79FKSDCOYZUaX5isqe4q644lScHaI5JwbBOQqdCoEOlWYoyG3iFxdzF+gefc4BYMFh9QxsQpieUoE07VJwkM4ieTIArzl8RliR9JgMVxS3DFKe8QgAKF/Axq5DGX6pvoGJuHO7B/cNgswsLgmKuCeMBrkEA/4zJk5sECGhpAx+SdkI9t+YGqNYhngXSAYzMwxVyiIoCboKiUdfZ6gjsNIMiNoCD3L+49tdHECrVAKH/zfUtUEPAlAMj9a74My0TRIlJXHe4Z8SHGni6CUXcOZIjbd+8LaCmQgeTASyBNHu/R0hIyBWXHdAERGS+A9R65ANR6iwpOzp7le6o0A3e6IqpIXh0Y3FeBlvfCkL+TUZDHJcE+vQsZLvJ/v7WTAKUWngucIwn2TVMySgr26sGZwsL7XnrznVewqwepdgJd6+dnJkqD/99/83tPLpTNYUzGQZkatnWFq0iw1nP47y8vgfOXLoKWnZbETQEwKjbUXGNFByp5cYlxetC6gILmapnv5eAnTxO8oMwJZHwlvZsldeQHfaSkWgTcXlzFCxuOtGRRfgpeunGxIasNDbzbBYnreJpig0S7IJF8IFHobHSo7jMqYP7NpobSOBBnEvUuyl7Pwd9zubQ5ceyYkAheffuMWZibAeFgSNqIiJLWYAyL/wkhpIDV6/Rc1Xzxq182Q5DPHiQ6Hz2ISgyoxjAyhJgOLIl5WFBU5LTalCXHSvNaIDfo9xRKHJZrEjDjHWn6hMjF9vRijpHcHwGdgEkrDUwHaYUBMlEe3oUL5y+ZN99+xzycmMaCAYs6aSpIKSp1ue4oUqTnZ1K0VpSfpnLERcbWcrKOJTdKGrwTriq6ZeaFladb6XdFWbEtM8ndYs/eEIEJgmbytS40sPCo1cYT8cwLl67fPnDuYfnWyfFk17ed72lL6sKVa0P3JqbfBynvYOBZfd9UVLZiN4tXhuIbnKz1IPOWGZmbdiOcEtncoDDcilDWWtlAlRmVpwDGoqXGWuXqlL50E+bKn72irHvOKWCJRVgPxsCANmcUUAO48YdxGvkdFs5gH6oYQPuR9EBlz/cFCKGgeV2xAt1MLIOkDQ3JJGNuE/tM0SKj24vLe1rc/Ef3mitsLtfPagtUybBEhkdHzXPvfh5Jv0nz9tkzqKQOJiNdf9bZSAtCrDVcVxEgxLp1GZAmJuC+m7o6bc5dPi85UGznfuTwfrMfVtYYrK0Y26jYJF3mnNHKo7tQNkmUhR0lxZAtGYKAb89ZkmRkrcsnMToCOe6N/gSWF2IdiBmQN85dPGveOP0OknFnkJyMUkWwqGbxfpIV7eXILorhwL9uDWn7eh7bLQhoeeo3ShIGoaDdMHSEjfqwdOAU7ELAC+5Gn76rFuLuMVp+TKusW6tt00Z8t524LkVlMOtWRfK3KzuGASreB1rAZONiIZTFhDpy/tqtFy7duncGu090211Fr6enQeriletDcF0cjaPKJXM0OJllBSquBU4oNjQMT41ufxy9dn2goHOlz3iPWCU23gAVxArYmi+jxU3jsJZoragVQEDjZ/hNCr5qcD9wLdIgscVQJxdoSSH2MYdgvSw+9PsEMa1fxxiSVjsgmDEPSwCQibYSnwSIyWdwOxK8uA9euS8/HwS7jZ9LGR+AH0v3sCcT90kAbLRED1qZw6Kr5kvotzVinnvuOXE3vnX2rOQTxVhZgW5DAg2vW36YbwSMhkWVgkuT560BkCdAuZ66esNcRTHbAQDYvrERcwAlgw4fPixNHOmQLIFUUUJ3YG5pxmmkO6GUzlXgpcWDC5BOyrQUba3CGuN8CMsypjSHayU4Xbh41Vy6dt3cAzsxDsupf2gUMS9UVQehJQ2LtSLFDi3QNBt+tqZgc4ebOJfEAmtFWBFokWM48Ou1Md7t16tkCQtPdiGhYK7LPy7M6dJmHFi9EBgkI9OF4vNnrlz9Qw9SG/x8b965vwNe+10IeuckiVAqPmtGlCgw6zPXy7ArRRvgrrOGNvgiN/nwG03lJUDxR/Jx3GxhHIi6iY42Km6SDEJlg6jIk1IxgW016gJi7MW56yQCY2OGym5T5UzwEiAgWJG4Ib2itC0EYvwIl/BL/AVxH27M76EStcrdAaJT9lTSYpWw9TmVvIwb7q8zHy3IzACaJCYIBjhIDqzRQQAViQMstDsNdpzQcyRWxJiLuup4jRKjwnlJ714EYYQKIgkiCS2uOQLYXMnMzt015y9fN+lX3kL8aoc5jKTeQygdNIJqHQTYArsL092J6yuTbCDVKgi4cKPimhDRwkKBdfU4xLFogGU4MTltzqKSA8FpcgphB8a4EAtk65IqAFDLM7k4mDIFQ5pO7tvdfxR8xCUobWwUnHiD4WXgUrBSy4qklfCmvLQ6TT2wEgOF23ziLLWotnm0CtRztaK0Bohzo8LXi1gjAUzdfJyd0oYG/zBfhhK5/mPnrlzbBSlf2WQV1fb0PWtJvXZ7fuAX/81v7gM4DUt4VdhCEvUV9cigvWaTiDe9rSD8DquTgNbe0408tBiLtbImImuuWXJA2I3nqhGoQtduuHULimBEBWgVG45J0oXGWRQCqRip8KSIJt6mJcNnzHgVFR0VulOw4gyB6yOoBmFLChE0wYhXcg2rNsiBNelVw1t1xTeZnzXVB9Pa6BHXxiaSKVDGaXUtgDghkIb7VABVxS8kArZAxytdd7S0Yoz9ADClGy6tQKIkYndkXqVAvmCO0pU70+bK7Un08TorjSfHR0fMkYMHzTBKSg32o10JRM0E3zxYgezjJLLDsRMs+opj30R1iDMXLplLYOrNIieNSorAaqsiiRuQNCE+A8b6pGIEwK6+ErcPUu4/6oEIOeBCHwnAOWCR79VdUDyaOgXd/0NjTI4RiaGsZAgG46TxfCs5RM/va3WdeCvkidnVIf7S0m98V+spCkjJ+GZH62oqmcvtunnvweErs8VXHxtMa3XgLt16FqTuT0z2zczOn0CmWp/QmKkQrJLgapYKg7pNFZSlyTY8BA9c6zEmWSSWmwCRcAeU6q2WE+jUUOraz0gVcxwKvc4QpEXEyWUZlhKY5+xSYKF1zIRXaSFPUBLFpiDFFTVp31WAk42CyPmYz6NIowF/YQVahSuMPqtg5XjYh/lOsi/BL+CQ6Xjh7jlQ6ufn52Gls98WzsU8PHHFsbwTLBzsWC2r5aXEBnok9R6Tcn34nYBFlQHrK430CLor6aorFlhWCAm7BEux3nBeANA8zKypwgOTvTNlXn3rPGJYO2Bd7ZHmk6OogzjQhzggj0hqN753AQ0bz124bG4BpFgdgww9g4aUcSZMc0/bvoMsRC7kOPK5iCPYFlAOSiQQkBxEjFZMdRAR2QuNX0cNjyuKkfuGrR8BDzeynBWlOVr63UbLZ6nh1Pi5O3bjfn7uNp+76kJnHAqcVBkb+pTwzDEGmfogiegcfybRny9XDt25e78fO0w1P153vNuzIDU9M5dGkuF+JACwNkuwKmbVZWVscVXLAqbdIegtexWWTUlBc2Ggm+1hBM0kFohVa1TcqEwXiELcsvIdVfD6zDSMLkfBpKqIVUZLRNfotJ7I3FMriMCidGY9s6umIBoVStGWEJIjW/XIvCPGxey4YEKpfldLZzkAFUcUzkXLSWjpdKhA2adgtSgtXtvR0yUXp1XDgqouHirsQwmsCSFCfucZII8ik595vbDgMiCDUHOzXQaVB3Na4iA1EFxJvJB+SgDhSzfvm4vXb6NcUtrsBeliPyrND6O3FK/r7bfA1EM18qmZOaGSJwFONenSi+tlx2WbfxSX3lJ0OWq8juzCBeZ8sWKIxG9VBnVJuYmj76kbKWT5CIkiBBbO+mxw6+mChVszgHLjotHT0WgZBSHlBpRyFoO75mBIbatfdJTbRYI8LjuSG3SetnRxOpL7sOxUoVhOJ7OZkXsTk12fnNazIHX28tVUJZkdhWpJOxcSA9WS8c4VuPjooSwfsasvmke00TGhRz0rl+RNCTaoraKsPJ0orLnNN6mjFBC0NE6wEncgYZVPsBonGgWreiITV4Uhj5SAmlKlWSk8BeujVkFFBJ6BMSAWSKUFJclTdeCTySxIJ2XLpWoEXWRxth/m6pLV3HGmwT6QJ0AoKKD6xPT0tMR+tHsuroM0ceyVRwCIZIVEBrRuKW3E47JCg1qTNdf+wrZWF4gjk5HXyLiXLSEl3hmSPuDCo/uQlo/kXpGFaBPSGfRm9+jFhTlcdsJcvTdtzl+7I5XEuTHnidJmh1uO/RKtN455Wq38BNFyBs3FBcl7wEWo9xSxDMbNIrGiuqRDFqZlyGrFCk0ujksJKH0wJMQ4l5+rLuGIMPX6wfX0ACJe8Lk9hiwsLcuS90W3rnpGbA2PJdf5qEf+5pxv+TxHuwiXyeesXI5vPie20eFzxqKdEIU/CiQBYYxQN6ZiyWSpsDA8OTvX9YmiPQtS+XI5hYBxHzqAR+7BuwIe9XRqZqyGc2K0wgcXD7oSZ8wqHHtSpaRXLWBl4w2it4IVdPi51n9nMJhEBOYr0ZqJJfQcwgHEe4z38BB0r5WxiiGQMalYiB5UiqV55GilpWHjYbSPOHn0sBkH425qasLcuoWOs6gAPju3YCZnF4ThxxZltJ6kLiTAJgtQY7uSCo4vTQ0ZE2M3WYIYQIDUcVqDCet2FIDiFVrLhavaJBKfmVdVZcFaWDZk3omVxuK0cNG5vCkCb5kKnqWJ4KZkVRXGlMRh52J2dlHmlLtamla2/I0g7f4GCBDAXLRJgIEKzX6DQEKZBftb61UAho9JwK/+9MXly++L8aToE7A2uZs8T3GkysfqGlUrTo/JeGLd0m6uoN3nfp5Tyi6lRheCEZlg3Ll8QZdjJ1XmdfzBURHLFUolD1LBCF/nXzD50Tm7Rl+SH63rLNuVHC6oE2e/FC0IW9dw1E2uAKpVNDZJNHy+QOU1uHe4R2OsQt7BzmSsSZIvLSKeglYIgEIIAlhFVtBinUCHEoHwDAOwoHQrKO0jpAH46g/sGjNHULboxJEjSLIdkMKuseKs2dGfMjtOoFL5kQMCUjfvPkCb9Nvm9r37iPvMgFFH3QrLpaT1pqXkD7sXEphwXpZX4jlc/ylndmiTOr12quU8SyvBgkqARMFrZvNIVp2tEvRwnf3CZGTbE7jucC9032mNO1h+0r9LAUEwQEDEJiIHYKQWTCA921qEICvyklic6impqi4LCit8/JFG3KqB+MJj2SouCiLWVUtwFrcsgUaMU9mc+9Z1I3ZuP3fMFO5bXIk2jkephM9XT9peyajcOvu29cQsmSeN9x58P7Ifxh+XA1kshrpef/asJQXhQx9pKLy+1ts6g3Pr3YkClKzT7Wv4HuvJh53fubjW6PZDHpPmDpXoaxeXlPrhqe9Zpw4181gWCPRryQ8CmOzbtxvgtM88c+IxVLdAySYmkZBwQ/cbf4Uyp/XFpOD+0X6zY3TIPH7skBR9vYdW59dv3Da3AFjzecaPQBQRkgZyl4pU9FodPp0D7RtNDZUGLE4yUeIkfDhwoMVVgLsyBzAAa8IU0NaDDRDHh3eY2Zlp6bskTRIBTLSuWE6Q1he3LFrR8LxC8xclr9eg5BEwD23sTmrkWbE6y4almGjdKqFBQUrJG7qvXB8Ow3MGcTqh6LONfV2vuc/knBaU5FrEpaj5a2pxhZ+rEkxckrJcswU1JdnoTx3kOh8Tfs+OJcAHRv3vQapjka1wR7hCUEpNJ014tfGoY0KP+nwrFNOG775khNvYQdTuaTcTxAUWutpoLDHkVarvJbXoGIPiyl3dRhLP4dtW2VYBSrkkzQMAB5Bw/8H95olTJ81B5CL1p6mFURUiDquENQNJYAAw0SwhKDABmGBFl1QCJ8nh2H3DfWYPAOvUwb1mDhUnrtx+CFbdA3Pz5k0zN4cWG/hyhqWRYKVVi3MmyzboJHhUNU4k1HncjBRVpSXJ1h8o5spq6OTiEUBJjnjP88+a3WjnUUC1ClauYL4XAWMRTRjp5lsAoYMtl0jsIK2d183P+VMGY0/cm3iffzMXTNiEtM7Y0JCvcBfShorj+motlnm09khaD8a4JGDX3Xu0uAhCdBk6MotaUnQrOutISwjTHcvNzVdxF2JBIN2aXbHg4MnKkevnlX3th5Gk4KV9pjZ8yHfVCVqVlYrmqwWlu6QsiWycbnh8Xe/t691+UgAphBS4VOuqMbPtLkaJElAqocDUUsdcXSxLkz3dpAkrv87EqDErljISorVUZBdiAoPtrNgNy4TARGIFSxA998yT0kZEWktUQXjA8KdXTEnsrNaAyuWIT3ETFxmIDzwHrTHGgUpQ0hUcC7x4LaILJt7Q4Ajavh9F88AFc+fuXbS6uIFGgbfN9OyMWgeoACGkEVLzqyBSMZ+LJ6UiB3ARtNBFAbGxogAVA97XrlwWYO1/4XkzRCIHGHsltJ2JoX7gHsSpuJWt0k+iaoXQitlZWJBPX6VEldVgBEMBrwDIFKyYBEzLkPsXUKGCgLe4uCivBELuw2uSEJJYgvy1vpQQCgU7D1trTj9Xt5+TYRJWLmn4BHqpH2fjUfxcqfiOqUkQdxaW7i/H8/TczibDCvaqxwnhjEpaP/kKvv+od+1Zdx/cMMhrREAgkWnjlX3UIt2O5+OyWe9byrGIjmqEKi7gGqgPwf5WocnS28rOBoEbHmzwWf24mmkPYBHmHGNMABFYGjW0XyeIDKCu317EnJ584qQ5jqRYZuVXUdQ1C+o3pyabG/K6ytK8UDSighNBjzlQJDFQUUOBw+QCwQE1A9HyQKj0sNDKYAAy7yuFYwyhJt84miQ+g267s7Cobty+I+7Aq9duImEXjQzzAAKhqmNn1uaT7r7oTLswDwYhpqHQx1m2KY7vT5l30NsJJpF54blnzJ6dY8A5WEZgEnJNQBcgCSOSR5bnXcMiwgfkErMHFtu0ExgJGQJW4s5jHy9lzAV5abwrgq7cuospuViVrv4IXgQ3JhAreOkruxKz7QrBmRaaA0BnqTnCB8GU79Gao8WlPwR7BckYLDmSTbhwEOKJVMHn+3qtFotx0+1s8a0575Zn97UH8WBxYcFeYqHuByOBxZy7fetZkALtNYaJEkvYzg/dLuiten2a1e4AqtGiit6zGBZi/VAXqQWmTDz3fX0NH7PhGBEashQ55Uqe0RXGMAACcSjwPlgcRx87hBbtB81htIGXgk1lAApAii3uq8VFsOQ0oZVg5GI6OnuhrK11zlhnHGy+WNLWnsN3nYVBN0kOdf6Yi8Qq7lz5V6i4i5j4cBUeO6jljZ489aS5jzJF19GG/fqdB+bh9BziZnDLMYkYwmCdQIIOr4G0eEolCWo7bB1z/sp1rSfY9y7kSCFulgaRASDGjrZp0uG5ICA8C6vORmYpTBGo5pwxftWgqMTdwxiQVFA0fa6QrZSSottUwc8xMofSAIpUDCCMiTbIvlLavoQlnqQSO0ousVwT271XYZFJNQtxKeKH7kYANOsfSjwN+/C9AhiPBYAeW8vPALxhBEKuJXGXzoCksgjwlwRkQc/tCU7rrS+iYIXnKFRMEnu6fetZkKpxEhRL1CeQv1ab4OZadMhkqidpbNhzaOeO2OoxK9aocw3rWBKJxVGZOMpkVedWkGZ5eBasRM64jJAYQuwvqcUnFGQXX1TFKhaCgzDSxZWzLNUruD9zfJIsMCs9laBDUTroyGNHzSm430gpZ/NFEiHUqaZ5Ixr7sq5FORyBlQd0hly9P5Uy8OzfVunLql8Tn+S+Gf8qldByA5+TmUflXka/pTjKIJGCPgzG4MDQsDl0+Ih5OLtozqBVxltnzppJgFU21Yfza0UaJePRdUcA1x5QZSjzV96+gHJGafPCk0+iPxWqX8DKyuJG+gFaVOoxUOzDjDiRi5AVAAjsfGwXEWLdhkxTKdfEWJuj4QUzRAnpuoTAXUnuoYKebAQyKxeh8EttRIAVBSH3wP34o25JJguzCDEtIonHsfCu2Eo4D3LgCsghWQRV8joszrffOSPuRoI3C/wS1Lo9rh9V/k6Mrd5fqSJqp1/aHY/XwfiqxFrlebDwsbqxc339/CzkqG93tM35vGdBCgBESyqeZtDWVj1wYOVyAjZHpNvrrI4uLBW5GQiHciFIkSpNqyNpA7NSpYEBdKGMQ/nBIkiyZp2099AyQvyR2HzQ4I+oQugS9aa5uVyVsE4jLQIm4KKQ7I7hIXPsyGFz9OhRqXfHxosxNukTi4AWhoIULTgHelIyKbJKVz2ubQ64pwAO3GEynvCHLoQIlkG/54B5x33KULa0GhJg6rEqP11efL8IF9n1W3fNG2fOg2RxH/uAgAErjE0ic7CUFK81GZPKW+wpcZsq4Lz06mmThavxmVPHAE45gH3FzMzM2CaLPIeFXVE3RAPy410NbItMAn7WQgrkolattuBwFkudsiIAx33lsHU3q0CHgA5+w+cKdDaGFAChyrdYmJcOv7xGNlGkWy+Nv+n6nIOr8DISk88hF+36jVsyPrLoe1UAuNLNyOtlJXq/rV4CHLOcm5yXfJWFu9WXcPUtFz5e/UnX+Zs9DVLwjcdy7MXDvlG2PplrQU3lt9ZVyDrLeksejjKmzNXNAycV3Dus4sA6d4z9yEqbbjUobXlG1HfQxgQj6WgrLcitJcVcIxsXUstKXUdSIVUC9wQaWmTs5Joygzj+M8efMAfRSHA3iBEEJdKZ0xZMSpIca5WvWFT1zQGUpP2GFHB9WWmhQxaaBFAy4vQ9WQzJ1VUBMjlxTzGmk4Kbjm4w1EST5N4SFP/Zt05LftVNuPoKEpcBIw9xMca7RoYGEe9iB2DgrQAFK0Ko3adwAwUDayoDq+wb331Vzvt9aGXP/lNpnItsRG7SlNDR2oX+rUcgw5EWldt4/wrU+ipkDgFqBSO3BYyxMBsmBOhStSIEqg0DO7IuZ/xLcrIs649U9fuTM+biZVRpR8uSabQTmQV5Q4vd2jHC3zF++IzpEgxv253NF1UiDUnwTTQMxwXnUAbpEFy8uIR2gFetf3DAtgrobtXUsyAF5RcrLubjZD2loSiiNHQOeirPdoHH7n483X91BBkJcENhEjxYjUHzdeBuQu8MKW2DZ4Hwu4ATLQy6AoXZZdtOOLKCVC8nVdtWK6e6JkFAcpdIk5bCwehwOTZkThw/bo6hceBYPyqSs6KDkB+Ues1eTAQR9nAKko1Drq6oVOtRsUBNq+LmVYIeLjX4qGftCpQJw2INQgHPLixKh1tSuRfgq2PwfxFBlkuXr8Ktdw6tMmbwN66JLaHYXgMxHDZn5Pika0swlO1OCFRyRrEZ5UL4N11puDkAW9m8/OobwjR8/knUVWbbebIZJccIQA9kYTV2xtgIqOLUDNx0lr0olo/Cq/YusefjvUlZHY29aepvI3DxesToks91E5edPUerZqKsiEHiBirEmAcAJ7YPuQLXHgpEyz3R8mShW3XvgS4PkCXDkmWoSM7geAk2AfLunxPddoUu9KHzVOtM9g8MVBGP6vquvJRlz4IU5wgEHqc1lUCPH5c06BQeb867/R7BdIGCTELxMi+I+ipGCjSUC+NPWcZopI6dNl0jVVxq5glYaZNCWj9MsJUVv8SbpMyruPaYNEqQKeXBgIO5sR8W06ljR8yB/bvN8MAgO11o7T662QAEpKAzz0hozjTVlsRbVCk3bJYT75Rs3f3Fm2FNP1X84q6kh5EDD4dm/XFaSonMgMSQ2Kp9Zn7OnD1/HnGny2ZiZlY6/BSKVaxi0V0YpxUXFlyUJENwvFIJs0VIeFOIaLQeFrAQI3FhDoSPl157W+T2+PGjkpOVFbcg7oq3i+tDGRYBIBGnrdWmJSAEZRtfaU1xESEXsPQ1OnrEXYg3w6/NRphLM+ApKbd7Dx4CnK6Bnn/L3HkwYeZxP1JeKtdn0qwlR6IFftSdqjETyb0K088bSDN1l+Sjrs35CGbUup6C+lAWABhrLPbMBRYXSLbZp6OBrus51/tgPQtStpRKDG0UBKTYgM6BEh+Md/Wt91BpdjxaMGTI0cVUBqsODQIRjF2YRw8mgAbZXotoCkjXFl05tGy4dCPDizElKqUSc4PI0mOw3Ab82bxSYhx4PwXQeezIIXMCNfUO7N0leUOknMdjoGHzOQM10lD6ShVflOeezSEGgn+kSlOhu01W/S5EY7HKks+FbUhDzlkT7jtijRPzmBBLzQ9AYtNAiQPB6ivDFUfFexGW0+Ur1wBO89q+HaSI+flF1PYbNPOwGDgmafHTnVlEFQreO+m/AlRi21gLh+64wALiVeAeYaLOo6PvUF/OTM3Omq9+5zWUVe43j6NkUxmyImNRlpskmxCLCEZQP0IiEknWa/JpfElv3rn15C8CXfg1BJTOeHElr6Kv8jU9opHSiXYT1y4s7B2ohSjlorAX+3/FUbF9MV8WS1Jdjow9oZo8mzPieZJoQauVSrVIE7Rh64kwSuSaN+9P51GqgE3pYvaUa//QIGoXV1mluOuDfj0LUqT0USFhoMeSCMBS8M6acvkgj4Ldt3nDb/PPLLENWhSsiACwOXzguHnmqafMImIMd25i1XznDqyLeZMHgaKISRJHgmrdfWMJFNZq4qKZQMdnRrfhIBTy0EC/ee6px83OsWGzexSdalkBAhUiGJMBdIgbrgjXGmvr8dn3YbHCZ59H/hNjYVJ3zsZtRAVbQoTz46vyVSo3LSlNDtauznVFq1agqEq49OIoRcT95wC+MwCht2E1Xbt5B9bClORAVdjfimQQuuKyQ1p5mnlQ2MR9h4ugC4x5VtOzc2JVhRlsjuDhiAi0JmllZNjXCkCVTKTNLBT8177zPbhWk+bQWBZGCTv1ak4X5efckWrvaXkjAQz7GoaRaO3FpqNKEKi5n03bkTNPS79JR67bKMYi6PYJWIEs9USW45NPPm0mMCZugkhCWv4dWFmLGB+s/s6FDfttSWFdLAq4yOACh5t7JC6uyCRu6Qzst6YScM9DmoRa9rMUKsY8GRoaIvUcQ22BA9OD1EaNIXElYAIiJhUrIfjMAc5+PGyX4Gp/MT6x3QtUro/8XZPBxqOJOsLAz0HpDsKK2rdrpzm8bydApGxOHNgluTEPJyfM1es3xdUzDfBi7yTH4ouBfp2RkkGwr5jYiWeaAxliz+6dqJN3wjyGmBPCN9iH0R/k0wB8yCRL00cIZcwk2wRW38xX4jHJJiRIscoBuOlwIyosRK/aKTy1HABK9JCFdgqIC2z7QYOOcRGSc7BXAcQQxlPOswMumg3OLVYk3kLyTgLKlRYi4yzSiVdw0brRbB8rac1BQwf7x7N0v4XpHLwIS9iw11NAAu/AwIBUnGArD1a+KAPwZxZL5k++9DXzk5/4EI6HmBgTj+nis4QhaQ0ilh+Zjs54qjct1ErzVP6OzRhCgrAsuM8yg0jujvJrcK3amBa+l8bzpLXMqhNJXHtC8r2GzRhII4+fOm7mQJwgs49jZHJ6Rnpc5RdBrYfwciBOsFhvmL/hLsW1rq9fnNqMLpZYf228+KYFkMNV+V3HX2mq2fzGLS6vz9TawKM4zwGTrrmIk8UOxlDfINzPHEslRIHDJUQ28FrWcuietaScaw9JjbV5DO4+BK/ZB4ghaFlR2sleH+CusGlj5sVG+7S7xe3YKl/LtWlwcnBBe8eiolUjzfPYYoLalf2d6FYSiwNsPKzsS1Ck+3fuMsdQTdwgfpRD8idoAVhBJ8zw7hFzfP9Os/D806jA8NBcu3VHKok/RIIr3T20iNgSvQ+r7YP79yPH6ZjEnKQdBvKP0oxfKS9dV+lQHHS7cYHCiUblhwOoBaS+LGmdoYF/JTgIJVu+r/EucQfbPkV81fiHliqyZHV8F7EtKFX2kKqRFAGX3a0798w75y5K8J/KlO67Ehh5VXbs5QmEiWjrSZJ0gTcbIIhKTzKZdco21w/6DWePJEDXZpt6Ua4EPYI5c12wwxyu4TN/+iXzyY99yMR2ZOVcGexfQ+5YEcmx/aiO4fJjxJKySlz7Y3GmkJ7M9vWuoGu9WK0zXRJc+DHPjTLiGWzyrxStFdKHWofaaDRIHmAwyt6HLhrFUsZz4rykbcQYI6Uz0B83h545bt739DGMiUlYWPfMzdt3YWE9MNMzC8xsFlak5D6zxBLGnywc3DNjXyuS9lnFA65hrQylBAuhr0seF69N8+ycl0WKAeO+pHadZY7yVVqcyN/1yvLuWegt2kWHA7BHTORYQgSzKy4XiyeLVuvxMR+R8xYxKehGJk/TpT2M/MG+YbBKaxVmSCVZDV1HY/duPQtSHEUSBuaqFQNqDoFquvwGkDMjsQ4ywaRJXX0U9coKqJuGi6NbsxioKE9XcVsmKwGCMRFjDqGq+AAsmgxyeFj1IcYkW53r+K+MKgwpcwzWFfebXSzCPYbqCw8fmssXL6It+g5UiDgiFlQ/Vt4EjloFAMYkUVEY9c2tbp21o59D9dlcoXr3JOugouLBCJGcKSEOqLLi2CDIMSZEBqG49Fj6QPK8kFMCSCuguSErnF+7ddVcuHxNyhzNsj07qyvAeoERZUsOqdKULVh9L6Fo6OerVGqORRcw9ngejPM5gOeffPWb5uMf+4jZu3OHdP5NAWCTeCjaVVjp/SybpDX0LNrxUvE+Y7ksD0U5sKCuAD+VPOVFUoX1TEiDe+te01JF7jhSf6LhtqqkmztBOLGIVQe5uyaG9pGyWketDPcs5vE4mJpjJ4+YJ44/ZiaQ7DyFOf3yG2+ZBbBEOWbyWLSUOesJgFDGmqZA4NFCwEU8ED7XFCwwR7121yx1A3ENshizgEtrVpcD7qHxtS6fbpqHra7F9Rpj48lwQQPuT7CW6vmwpDh+wOgzObjQ7WccGOqx7/Ktl0GKokXXA6yhNTZlZhFUFlMWioYgJQM0ouTkS5zfXf5guuXyZPVpV5su4VZ0sVCwuWwtmpHhfpQgOgALSinRLA/EfroUPZl/BAAqEZlQWA2PDfWb4cF+89iBfeZFFFHl8leiPqSqw0VIkBJLDu+Trdew2RW7s5AbnWNqqFg4ldmn7j9SvsGug0uYbjC23yDTcH4OFdBB9BAqNcGXCh0WHLDJPJyaNXcfTprToJFTYZKtV8JMZy5UgmQKlvyBtt7UItJQ2POIT9Ei+NMvf9184oc+JrKlvHOwgGqWxaC5UpAp2YgSp1LAoIpfACMxi3tOg/ZdYrNFghzuT7r88llYYJKFA1W4WKEAfVpHbFMvlHS7YJGB4TwWar3IZhc4S6tbEOQJOOz/pRUFyQYlADEuNTwCl+Djj6OU1Iy5DuvqBvLNmGPFvCrGsGjBM/+Hz7ZE8GMvLY47qWii+UGMB9K6EE1MoMa1i1UpYxJKHGMhvAXlpeybAdgGt6EAHjAYN1nH8zqUkapj3WEO33JdIoT5ipjm6Oio6e/vVwCHgGzD2K5Xhb0OUqKPpDsrVmJMjFycm1egktWVrmab+bS7BQS6/TpYy42eMOdeDdwlXFmz8y1myJEDu83O0WFtwsecHZbbgbKhYivDlUd3QwKKgkytAkgWZBpxhUf/eBG0agESFhQFSEClKLjIQyNFbeXdwsIUaIl/SZxG6fCSXMrxwgoSKAq7KKwJfoZgPZT93DSC+nfvga13Da6nO2YKQEa6PFY+klzK3FLGhJj7w3vYzDw8qUiR7YfCnjdT8wpUH/3Ih9BKBO4cWLNJ232YgQdlw1pIl5JIXAhA5kygZc1AvEdFxjlThFLjpmAVcpFKy3gFAYJ0DcKoxZjTxIWBpgtoG/OlVqSLBQUUf85LfIdAyMK9LoeH1p+cE1YOrWpWrBhDzcDRwSPmBBZCM7Pz5g4s2ms3bpq79x7A2pqXOCeTf/tyaiXkQdYgpObgQiYpo0IKqBTQZTV6dfkJm1MSpxV9gridjDuVU6vE4RCvZtOnr2u1UR+HXFTyWYjrQKwoPuNBkCXA6NMSSXRLw/Ri1Z4A1Tb9TlpfQM+DFHz0/E9W+0W4Ph7AjTSOh8OHwgRTGfACZW7BoAPQ+Zk3+9m0U3IbHdNaEpOz+Sjs8SPJN6QOi4KTtZnKUxYFXJlXUHM0YU4cPgA3Hwu3grgg8QEuHFjiSJd4WjVCC7omEMMS+bMYKRRUFspfJxV2gWKlu4rJvMyzohXV7jk5955zOOma3tlSvHyMCwAl3V6pdBbWVMUsLLJcU8r0gW22ADcS4x0Ls3nEQm4JIeIaAvm0uphkmkA7Do1TIX5DgOJ1i/uQyM14xublQ/Ka2EY+DRbhAoCzMrVgvvzVb5kf+diHUSqqT/pQZQmkUNJSlcLFcoQIrv9IqeezpWIHOkmqAOVEsGIhXFHWBHTeMx4sF4RcTGiLFMYp7RMiELqnFfKYNRIVQsQNjgHGNNFwUiwxyhGDIIiP4XdptUKHPS0jEinwXm6k3+wdGzRPHT8E1mjJ3JuwCcJXr8MVOyf7Sf4zgQhFhUmqYQyLz04ri9D6wwUy/ijtUvRiHe1CLC5XXUOGkXrD3L1FzY6VL6HWV+NI/p51wSu421igVHfRBdrQ0IgZGRnR0kh0aZOIxKHLRL8e2HoZpJx3HwtErNylRhVaIswWJP+EZi2tKTHru97r2qUjRUgA6hYJ556JGwVTgAmq+3btMPt2jkILsAMtwAUKTEog4ZaoxJhHRd84n41Mdq7+MUOkkgRJGXQD2tI3/C6VCnUHCwivqLRVk4CjIxukQCagomLDwBh+74OrkS0kJsEsm0O849ylq+Y8knAZuKc6qqEHVJw0aOowrV0rK3Del+s3JYqPgfdNnOZCcmE1ClxMAmxCpgE8gJvy81/5mvnER3/AjA71QbYsfmstB7rDCFR2uNFKps1BoEpD7gRduslJ65dFHWTFlbfQ8/EMuejj4oJWLwGL9Hg+W9k74lYPu8mieVliIVvThflQPKaSFmx9RFtNnRZeCu5hsj8lt05cjbwe5Jjh2aTBjkzvHjUHUen+ve9+FnURUWneWliTcM8uIARAq5c2Yw3yifFe6PrDWKE1wfgcc/MsCglQudgr36MrsjHa1n3zNOqC5xXyvjRtArUQkcoxDICid4lTxLWhca7wAIW779aCK+plkJJxJG2wJSDO/oe6MlyAi2YKLb7FvGUgHLOyDlSbqFW6eCC4S6v72vUdiddQOdA9AtEJYLGfESZ8PxTbqWOPgVHGZRmBS+NQfAxieZEZRmIL67AhKC9uFvk+20JoAVJJ9CWFkJOL7d+hIHkcKscUjlu2AFavJ+euVL+jp2u0txwdmscnkNCdROtHCpziQJys9yenUE/vfhCYlxYccuG62hcLltfHOJtAsoJ1BdYfN1m1yiVs7gqI98Zq6OwGjBsVayIWmzZfAFD94A980AywBBPdqZQ9r5ZWkY3bobU1XJj90h5DrA/I+86DSdTUuyLK/MCBA0J/T8PayWEe8XlCiuI2pBLkKanEU3yWgfWqzyVwszMGZEXUUNDXLuLRE87GN8kW5QN1z5/uOeTBiTXHBRGAkdVELKgJ+QVnISGH1U4SeE5H9+0yR/fvBcGijAaU9xHHuo1+XrekLFUeqQMEvSrOK9cuUVASSphvxfNavRCNYduYnBt1zvNQtxAd5G/O5HaeGGGnciYImQdjE3OK7vSxcZCR4DGgq5tALzE/bExO75X0nJ4HKQ4vDlYGwoWxBYXIZNISsvq5jYyPyfRpBKrNGVC9dFaZt/yxk1bdfFxf0/WifY0GcylzCO3YudKlK4/KUFx7eA5SkYFWFd9jHT8BG6UDa/dclYY0urO/c9JoUVSlAtN9S2XZbnPlXkU5WgWs3yG7CSQaAgutI0zQu/cfmnfOX0T1beTlIJ5RYf4TY06km/NC6C6SHkx6HZWg+gXdn3UKsx5+cxUUL4GEIZIMamwdj2vNgnY+hQrpZFx++WvfND8M1p9YgvhHuUsXXW1wg3cTZmIOCbNIoH04OQuSyCvm/MUroLwzDgd5vPyG2QHK8t49e8yhA/ulnX0/S+vYr9Mdx3YoAn4i7fqmin95gOLemoTMclFKdOLzF9GyIzA2unzFW2wtLaYr0KqTXEgQPuiW5RqHzMQ0mAAcTynkYvUf2muOIiWi8O4anvl9cxkdk2+jyO8kEqgXkXPG55uiJShsP16rLk7cE627wZvnui5dNLUbpRv3uSNMiHtPQBdVV+CqztCKQhJ1GrFG5ptxE7afjJVKPJ7FBCXqd/nWXgN09w0EWsIFEF1vI35wH3k5SbCWWDZHWkgEsRWOSetrZnzFKuJwfGilsaBobKnT73e631ofQ6vzRPOiBISCk6m71CWQJhg/YAVujJoq6MCnTj4hTfsSNV1dyzlczpDoe531AiI0w4T5pSrTbUuLu1orhuvk8PSJsPrc96PPTL+jFptagDg7QJOli946ex7K6rYw4op0dZE9iFwnVi3nd2gdUnmRQCFgKnRsPZPaIRZcG8gc1nKIrLjX+rw6/T7rFYr1AX2ToBsLl8m29vNwYxKIWZT2iVMnzThKE5ENJ6luODgTbIk2d+EevHDlNAriXodFNUcoQ95XTmI7NJXuTuXN7YfnIbtLZgfYdgf2ArBQQ3EP8uKGBwdNfgGACICgR4MA4dzCQn+hcQfZUymyZiHnqFjTrocWQQIxQgIOiQ/SQczORUeplkWM1HPkg7WFfqU+I9uo0M1PSWEf5kPJHi72xHdhTQCw+pBgfmjPTsSwmIg9gZjjdYk70iVYhEWhnYvVsac5WFxIwTVIkoEdAG6ehJ+LusyaR03Xa14LE48VTKwr1KUFBKkBGN+6COPUY14f5Qs3H6qv7Ny9S2KMkjdG/wQumF2UObGgD2vlMkp4cYJ0+dbrIBWINxwz0V43Mu7MA/ipR3eMm/TwsAxCoZ1K7TVVUs229RpgXf7sW16eCyJrPTdlA3G1HkcAnsmfUvsLzLijhw6ogmiySU02ed+65QQ8CFT8Btwz6zQ1lH2GjStIBsdxVv5NhUj21hzYYqffOYvyRVekjBHJ8fD8QKGiAC7YX84Cl0PI9er4qPv6owtNvV/nNG5+94/myQtwWvBuxHPtFEzXN1t8oEy7effzz6HkUE6SOnlvd+6RXn/W3MQrySN0iZFRR/q3uDZt7JAlrVjBg1K+9XBWErJff+sdANSANHR8z3NPIRE7IzHgNKu8k6XJ79PikTb3rMPnrDg+JvwtCbZU+xwPCg6aaKybxpHDbUasO9haZ+GhoyrWPhNnkcv3+YzwPaYJYA9WomGV+KMArOOoZELyzBSYwGcuXTS3bt839x4+EGDm2Ga8kvUDWQhF+6A1DxGoq3ljtyBOx3PZBXWQq2g9DvQQ8NrzZM0ijkjraQw6L4Px7RocNrtKclM29urX5+i9DFJOwIGgZRVmH6S8id/zSL6cQl01AtfgyLDJSNFKTCAGTcl2sbTcdiy79RF37x2lwcqErJKY6EzUPbL/IGjnQyitkl/mpji5XU2L0G+iWAMobPr9pj2Nmu1pn3lYwWkGELUUYhYg0Rw+esykB0bNHbj6bsDlcxfjoYr8Lq4yyRxzyU7sAUULOy65M1jBuooE/MspQHuibqkdF7DORGPWXadSmR3PK9M/aL77yuuomFExzz3ztJkEOeTtt9829+ECI6NvsYgvAoQSmBe0rDgfpIeTuF2h5tkji3FfeZSQD1T+AmKKpbmCmcExL37mC1KXb9++fUjK3mV2oOnk0EAfFjFZ9PWCsi8sCMGG+VmSmsAYJd6XsD5rNaL+hANFdSnT1KsnHcuC0VnRMqcbbW/hXdpno4ChkKeLIFogKKOFe6OLkykQ4vbC/eV4Uf1p8/4Xvg85ViDRIBeLBYIvo3zXxNQ0jqp9sDZbi9ctJhvPFe+AMmxlk6RmJXhwcUWCxAieRw5J2iROREnmoXHsMHajcXbNSq+XQUpGpKx4OZTsQwtbVIwZkMpcwGp6CvXWuLpmIJiuBJrEsiLZ9GG45me46gMI9TdEt4WKEmqxjH22qbC9hRgnKCPGx9UvKc1ZjJqnHj+BpF3EM8AYW16E6mqIblbvrPra3ReFrcT4hJu0TOKkspbFNZ9v3IyNjWGBssMcOlIxz4Kyzdyai1dQtRy05TkkhTKALitOXqb4cHTVyh5RS4oUO2r+hq+hOxNNEMAP3E5Kl9dnKOnWcGeWzHkwGG/dfSAJ7ySJUGYLcH+lkFuEpQe8CtpgUsgsiOPRVSuOWcyhEmNGABQ2sszAKiNLroCF3uICOiMjv+zmBHLLJs6b1Dvn0EKl3xwAWB0+sMfsgotxGFUk8G0hVyBwhu9r3Fg8dAC7FAAE0RG7CFCLSGRObwh7ZtmYpBunYUdxKyteWZ3qtub3CxinshZl7UDmSuET5r4NwSU2C1cvPyNF+6mnBk1ucMS8dfodlO56KHKURHZu4e7FDbX+OntOa91LrEvrenRuU9F9GKv0dMRgTQ1jET48vkMYffQS0VUq+7Y+uXw0Af/mWBe7/XodpCTOLYPJaT07WR1Rgg8yiRUzA/eMUXGCjo/DFAYriuaxAFboKW53V190PDvKOOvBMfeJbpxDhw+a/bt3mAJacmQQkwpv4uqhHSPuJo1H1W2p6NEb3TgNn1pt1BrMVKG55+VqxyltmB9YV5LQjXUhw5XmAJRiH3pR7UbbjxdffI+5cgNdc1nN4NYtSRQtsUAsrKsCG/Dheww6S1DdKirnlOq6cLNlp7nrFGUvazcmsCYlKZmlhVTRkaCQECsrj35XztVG2TGfjGkD3M+1Ha+RWCIcR8iSitHFcRjvkCRpbTNCxfhwBsza6Yug9V9GJYsYGlMekDSFA3tQNgtWrVgGkG8S/aTiIHmQzUkihF6sddvRmBISRbhpqX3eBE5x+9VHi5u/QX3D0HyWxonMwyP9XBJZUYgYFpWsaRBLjSXg8gVB5yZiVO8gZnn15k3Jv0qmcxInIyMu2Fw1Det9eVTr20bykt6cME2FVclHEzfosisksT64XSkfjl0Xp29cJmpLGrGTwz7WtaLoBn6/10EKCz6Gi+ujMgwywvrTJZlwkDjp5mb04UnTL4IXqUN2Fe4BSkeaMvhonSjVmP2dmE8SB5uLjvpTJ4/j9zIsqsgazVLrnENG4yIKVLotjeCsNYctaHZpqyHIMyRVmq9U0LwEW12AbjyJddiKCRwajwFwDx1CYigU1X3UEmQy72UUkMUKxqT6sZCBtRFs4dxHpyS70FnCRRsVEZsKE1AysBjICCghl42K2lV3KFEZM94UWCsKFnTDCYOOCdlsSMkxIZYVG1iSeUkrEzJmqxTIjU2kmJPIYrTqocC+AAK2gvreG2fNW+nzUvV8LwL5jx06KDUaB5J9Qv9OppRyLh4Q6TJM8gQfGsdMHYk0rUpLMoXHkqQL2N2ca6vOYQHjD7FTSUXAfbHZIlMe0iyFhe8swl15DjGps5fQLfjqNalckUr3gR3IyiKk6tet0iXjl1UsArf1BmpoSsG6+NxYd0QKnp6ksAFUexmCm5UxKE0259BnxXxtIBkeoqHkausz2NhrX4+j9zpIUQbBSJbAIv41ABVL1Fu2VpKl//HQJtDDhissPlhldDV+xwm21fvrIfhuOYaDjVZNZRyBIC5xgrIwu8jwKsGFwlp9rtSOgBtXaPI07IqYsQwLVO5+l3CJWrD2mrkImwGdHI8KjBNTAEqnJFfMZayUWaWdSplKJ48cIq6SxVrCmCCrj64/NiqcmJiS/k7sgsvcHFFioHfHQF3XzRJAnIqU0ywF3Uf9XCVHMLJRFlTYfGWMiZaCUs6VWk/DhWxLdBAAM4wsElvnUtwP8m1l3NmcGlF8ZIVJeSxdAMhxQLbIZlgXkUm+cOrxNOIkw3m0HwmsIcaDYub+bMnceHDJfPuN82YQMauDB7E4gFvw2L5xhIbiQmJhU8wk3MekpKsFw95iNvGXz9ceOyx1KW4rz6IOaPq3LpUKtgU9rcE4vCckk9zHsz6PNIQzl66Ye5MobiuEEbB/AdYlfplVVnDNLA9F/eAsPCdmObJYU44L25xYsR5jwZEl3LHcfKRXgG69fhTUHsACIAO3LS2rKnMQbQV6SQdZZuvC9VXTq90CIKVr8ZYUa67WLJuPK+gKV4n4xgKYPVRUu6Bw1fzVH1E9vfL01joLxFFan2DyF60n2wdN/sbHKbiAKiixA1UvbcuZxFtDLg3jFa7Sfz2cHVYhenwtR1PfnFvGqRLKmyvkZq49VT1hJaB9fpw7t4zcGFlNC00ZV8H4GZ4r82fo1pmaugvwmQe9GhUIUNuR7t5ZFFVl19wClPcCAIlFb2kZkEMhFb5JP5aJbpWQWFCBoy98J6H31/ow1uf7TlW7V9LvaZ24xRhji8J8ZF03xJU0T0mBiZYQi7TK3zZeq80i1fsgBArG+WyjIr7HOoyMHUmVdObFIb4lSbMQFwkJqlQJegAsdClmN+UFKM9zV9FDCq7WN4Ebu8eGzIF9+4V4QdYgXfEpABeviRVJmNtFgIqBkSmtWfhkeIkRcFIJWve9VH3HeOCzZfsSgM5DFKc9f/mKuQhX5OQE6Oe0GvF5mZaf3KOmIBCcCFhsNOlanciR6zgYPKzl6T9rf6bO6lXHHvOgmOeGNANYg0NoBjo0PCp/s0afzAN5tpahaeO17ip4/cp6FFuLf2oNqS7fehakrJ+WxAmMK81z0SGqk8qNJx1YfBzqFEyycyp+YVuGRXR5vVm4JnRNMv+4ceLKqhyryMCVZCdbmFXjaKB0c7jJEX7WrR59VBFvZpaCjlJN8tNK1prc6ILU0hAPO5WxGsVUhjIZNEcP7kHJIrSA4KSWahIUN1fnehwnI0cNZzkkJSFoxQmxTnk+Kgi7GFCA06nj8mOdRcwVsMtdkUx6/NAFySaArFtXgEJkK3KC0NTUDJhZU0IOYBdbstck4CzXR/VqE3RlJaxxlhgSWeVZ8a1QoEnyhORNXpu1NIIHXM/neRQu4kBudT9WaKg1jrQl6ytcvpSZss+HCzZuBBEBGbva5jlcYF7iWFYhCnPMHtQ9uyDGTnDCvixxJQsJiZHoYoGrG5l6VJwqScnhkr+YKIzf2Abl3gLqbS7cM2duPkDOXUZazTN+dQCVI1i0OAELB8aajDfJtcJ4TLPNPIsX05pHTLTu/uIihaDM5ZTMdpAykuYGYtEXr1wHUeYmKo1MipXNDsuSU8RLorEmY08BzsmIrs5GHLQxVKVkyNJJCjCHvDdBdQ1LQIqODxbfdZub+46spEzGeik38QBIM1C9wAItXtwf2xGNjO2ABQXrCYdzuk6ghyCtwUgpMCyqTx5CeC/xVPbMUrxnQcqO+9Bk7fxXZznxG2UoslnQT2llsew/84EIUFxZkcHklKtLonOTWqoj0FVoa9J1fvbu2rPe9NACVcR9xDgBgYrZ+UcRu6EiQaDCMurUrSYtfqg4+FAEFBjX0LwlVnwgiEkmvCvmScCi5mSJGzuZ9btUElqCiPRfTrACYkN00c2gigjbxM/BAp4GCLEUEMFpEhYRW2gEgWSLfI7h5thZzjoMwkr2F0fh7vypdP/Ks/N7abdnp24st1/0dfnji52N3K0KxlgJ86iwiMXGrftg1oEmf/4SGpmmzMljh83u8VGzBwvJLMgMZBqSBEWWHskN84vz4iokMNJ6lvozsA45bh5OT5qzF66gqv0DSeYWhU+rCkSPvI1hslJFHTXaycN97sCKANDEvOr0MAQVLtwsa88t5uii5XvSURcgLe5Wgicsu5GRMTOEBTVZkUwVCHpIBZDTHHvCi2GFWPg3tDtK14NVL4OU6LVOxsNyq12Czvw8WF0ApL5SvxAq0gArrkTYjl7bAKgf3g0I5xcWwOr6R9yJhELzNOSaEwVua+3lQCI4cuQI3EOIMZAVxZUyF8+2ay7xR9MBbOyGMmM8kA/J+sh5lsCagcJgYVlabZLPAVHSFceqByz0+gApAwQiAhP7NtEFJc3b+DvX+dZCUhqurj65ceVPi8tR0oUYw2uQqgKyw8oE4vfeUAlwkajWt1KlWR5pETls4paF1cHGmH0wpUZhPRzcvw/FZPchpQAkATLvWIA2B4aikC3wbQAex98DuPLOXbgA2v01MBrz+CkAoKCRWdUe8Sc6JxO0aMRyWVsdc2c5dTqs2NMrvPF7vAIp2iwuR5s+IJ4H1gxmNX40E0X8KQt6fz8YmVxI88Ml6RErf1I9MRl6HaQ6BqpWz4+sNVYdoPtoHoOEk4YWFZPimBAnypCTB/uEXVmycsfAcjTPlY+PbvtGkx5AuHPGo4jEe1C/bceOnRIgZxUK8YNTwbB0EAECb4hPnCtDoT2r64KEBQJ9CUwqWqbsFzQPpbGwsCAWEnsDzYOgMDODONHigoAQKbWsXM54CpWXFnelu8i6QsSphM9gErNmIKc5C8eKtSYjQnNKJEtK6NO6mlFijYKpuISpFDo1FrrtcW2Z6+EDYKFXm6Aq4w3PzTJiFuHSY03C+fwE3HYPzMuvv2lGkERORuZBJBAPYq5yYck4zK07t83b75yBW++amZtH7U68x0VSOoc4F2JPrCLBtBP6qKUmpMS6NjqqtPyDEhcqBiEL6IrzQPSNqxGJNIGcdhtn6yGWeOOCjGW7NK5YX5xtmeHQ5EZ6HaTaWlLLESqcdUQhcHBUsGpZYMCdFbFZFgWKjhULpLqAuKtcPTioaQySGqpGS2xqmfVINOa0mTGo5QZy3YFR34v3nYc7Zbi/zxw7hqoNqAlXys+CcYXJT4KFBLUgPanSoH5zlteZnV2ANTQFS2jBTAN88qgZt7Cg4JTHYoBVqqXIJSwprhIZq+BKOJYekOA95UnSGV1ALKOjSgVXKLlP4k8X5RJDkF8C287lbuNeYUaUy59yj8hGiwl7Fro8Sm2mgqO3wj0jJvfq72otc52T7hsAixBjhuQPshHx6RzKM914+LZJvX4a3Z33S2fhPJKyWUh2bmER5ZkyJoNGiawwESOTk+NLiqpyvCKGxkojdEHjc87jzdxcZXJaeBL9xHhmTInXlYC7c+fO3eLaI0BpryiN9VEfMS+tHhNf8V30hBXFu9oKINUWqFo9PllR22i9uIdsYJ/W1ByKT3LVP4QVDDuWit/bMqVklU7mTKT19IqHSRd8wfLvllwJAYrRoT5Yk7t370by615hw80iKZS+ObLESOOfBFlhBnEiltuZQfVtVpim758xJa5TaUkJaw7viatPAvGUNajdGH2LwizjpqWMFMQt7Ri7kXElBUatP0W8kVxt8hD4PS4Vy2kZMb7FEjkWfpylRHpxky1MgumCx7BtL0FdVs7FRXVEjwVL/fAZs0swKicIc1AKK8miRexodnFG7On81dtSCYObMNxAeUc2FJQ9k7jZEgtgxXJXJIqwlTyJUzZKIASJNbr71vLgdHGrC12md/DOGC9nuIHWIRN0c+i8THOf+5LZJ3OEeipo2LiWK7ATb82H2NgD9DpIrVk6kjNicz9EUcpKnZUVYEUg+bFSnhZ/cGUAXUFhVdWpuKw+zArOa76ETT9AuIBmtDoEAWARltDbp8+iDM48qPszAO8FbYcCpVBkXEmAwVaT5wqVDCMGfy0Jg+6/OKxOKUkjK2dLrsAr49YkZziqMvUHcUqSQ6WfFD7Txr4NG1fI3Gq0aIlsYmmpazL8SFysatOF7C+gqQSUUWmfZfCULfGGybskVwCENB7MxSEUNqthcCGE1xQqVywEeZB9soBZxOKJFPsMqi9IsjHGnLSHwfig5e3IT1qE+FE9mGaKQq1DqcSO+cI8zj6AUj9KtxGkqHfo1RH2oJ1ftDYJWlIKjDJZ9RK9NwCKV9nLICVW70qGWDPXH8O1rHEmyY929a1tArTBGgf0IiyFCqyr4kBRav8JA1Dcf2sLuq7k2jdq33ALAto+UcuK8YCp6Xnz8oPXxEWn9FwAEEBc5MNYHWuiESzkn8aGJJ5ky+swNiU5M1wxWjakdEiFzKuk+UrgXIkpahWx7pi2xE2R3YRVZowxJ8ng4nNhwz3mzNgBwJwYOT7DYMq+c27VsN8+CliPgj6+Uc9tqxyXFpPr3eXuSS1tqmV1IQtZhvUDJYZINy9Ai6OQYMUd2PgQn5HdJ+PIMk21b5QWkuYmLS2wpVFRgq0spedck2ToRyZbNmDkjME8SeMa6bUZQu1Aem640U3OhGqJyVpCU5zWoJ0nQrawMddHds2bcKKeBSmr2FQvdrhJkNK6jQIFRY+fpYAGgX87ATTdQKtYFLGi4SAnYGURoyFYMeObCtQF6qMMQC1ga9tGWJPLuQpFkXZKCerw/sK71dlurZeKluWNr9lVHu9XM0eE+MDSSLRQhNrLvBBYNlImib8zx4SHRmkkumMErtWQkU3+trEmQok+L57JXQ8loxRayROxP6FDyHGYG0NFJipLvm8fuSSQ8sg8jq6SG+RpTyNlRm3MaiPlvYpHtKKvNLv29bifVsdYj2N3coMyQzRQqOOOi43QFwkmei101elujoAqIKaeXn3G7hjypxtbXPOITz9oqMjO0JpgvHY3CK83yvqV9wAuAiYkFHHOWB0Tzhek+y6JAr3DIEYQoFitnftKnIrzgos8Kw3eq+ZQNxaa7Vz7dfI0unOfngUpK86OAaqV+F31An4uTRHdRLB/c1xoGISrGeRzWGuLJWFIXR9CIzia32lYE0KNhqXAV+kSHOpLRDdDGDicUt0od1SYPLD80FMHnyQmclVpw3QiD1vtOWwvUoVIMvSSJOZWLKloIqxAj/w4FSFMwBabqixXjSL62p2Tyl/VSiTg8s7aAwZHias0ERSQDkZRJEm2xZAKziLVVsKjcCXXXN/XgQ7fccAuVSFs3JogRUuOuoDgw4Uuv8PQAWNPA3DrkRTBfah7xCPAVy7s7CJZZkzrKbK6C++hb217kAoPgPDqUVfpOvDU+8C1ma5i6CcW1wHAqYycDhZ57MOgYyA3sAwkcUhMicDAkBwe6wR3q6uNXLF2euyoenAuQJn2EXdI3XTVYG7dIuUf9SNpB976542xrvraglbZclvUUI4myjfrmKonbnT79dCc3HaXqoVjHcjo2AjctYHlrWJxQMV8I0k+cJXJndSkUaedvHhZWoG/fvzlFkcreQiu+ox8x5J8aPmohaf5fXSPy2IWDFk2iJSwAUAqjvqX2rsrYm1Zy2nNq/D2N9L18NfLIOViUmt6jrpOb765hFDGrbiS0VcX5KUerJlZNEgjVbQI6ivdgFwhuVqB2ra5cdsoy6n9WFy6h97K0mt0ezYCgAJQO+9qu2M2u86WQNP0fF0/p1bzKLb1d1aalhEeAcFisj5o28hyyTfWJHupMh4OITgWqr1IKW1kaxcy73JoaMTkkJTrSi+V2VnAuSoswPE7rmbimi6u/Zd7YjL1MkipzlyHzVlMDb5wO9iCeJWjQVvrQRZJtLJYKwwuvoXSvFCyi8hwJ21b2q0jyBmeOxLoJY3UkgToElyHrPE1SSBcFqgh3yvIjHfWkbVMwiKXUIIb53QVRhOC6wDonCt6sfW54UrkBXGxyN0EcQb7lXAZJa6+5Rk0A9p1GRlrEq3/cgcSUIAS+0j3ZmwytEXdXNEmj2H3X/PTNXEjwtqShdFyK9QOrl2uHDdAJqEkB2Nz3hbnFhdCBBaug4PD4t6TOY8T07rS77uUjDpxiGkbbvEY9YaES7r1BMJ0KMfldut1kFqzCNwkaOV0coNEzDZx3SmRQueTDlAp6MI4DeNUJSSvIr9KWg8gEEqmDldNdAXS70zF6oApvApb842s8gDqDtHZqqxudeM1blFrS6NYBAd289K4nlZnXm4LugCHdurY8nK6K6LEVl57b5WC8l/bIAm0j0W5E2uspnGj0g71SOrgGl0Mloze1l6EDg4ku4R7PLnEflacz+T6ZP6zxxPBKQs3H4kQDBOwVJer/RkGZYlj8R5tdZv1IHZ0eh/dvF+vg5Rz+a1NxlLoVA8hKxVh9Nm/Ld2TIBbU6WK4ySpkAhMHqgxWzDcCD0sskSjBQcYBysGaZaAUryxeK/EtqTdW75652hsIMxZXegxxKlDpW4KEhsu04WGgGKxa0NsN748/xf+veUmhtTB54IGswq688BpZk3FBD2ZWlcizjcKw10RSSnirtwhpfvfhHLCVysfvv/ESUIAJjTe7CAmqiYd8gc7ociOgPia5zIqCnf69ZOFkuyzXx8XagCpMhhKCBFz/nOtZNJqkN4WLU3pPpO4k41KcK2T+SZI65glj25bRKGxAfm6Zqi4OLt+JeAbEk4Of7eAw2AogtaaZJJbSMk/a5U65gRJu50Bkk4RAfOhAKQAsDDzGpOj+I9GCDfTcykoGLzukEtgYMBVLRCdUvU9O57e1WqDi9GxmQeo11CsB6JXYyezApAFUIn6TJd9dei+uxYF+oh1XXefVpa9KKebCgBUlGrft4vTofDz0yp5RgFrtddddxuEjtGANNh2/nZ1ZiEKhBSq/xUoqLFvEWDQJEWlYUBJv4kKXuVtlgBBDBXAHSim1EEmCC1p2F3BV0IV0FfrcWVTNyq5tB3ByT6VnQcqBx5L8GHtn7ZhtwQootJAKXHuhfCpZuVs92MD+0yWPrGd4CI2dsDW5XQnh9wTZfLYNNQdiHsUyiwuo8IxBzbiVlFpK6X7yfUlI1QtyGeVchYkat8rZMeqC+7ZVyMOEDLEEbexsOaIGGVJkRzEXhfdozxwKGS0tOhtUE7dy5mUtTQGuT/pW7jhJx2RlD9umXqwvoaU3e9W1trINGxXKRk/Wzc4j6kx9bt5eK3O1Lb1OxnQarGM31+yYr7eL12cvFoXbR8aem/CNFpGzq+iKD+ZOeA5Zj0ngco9UGnZFXmXIOTKEpKHQA6JuPrL1hkfHhELuCFNSANbqD3YK4NxyY1RAhzUqOb+VMlwvXM3xHfpcrtsRMkKDXDwQ9v7Xo+qghjC6e+tZkOIYDv10pZRdMVNtOqaDk60ICohZlWHmz6MVRTqbEnYgrSu6CwLripYY20wQuByt1boBOIECCnsTLS2T0q7klhOMrgyXknRXIkx1p9Tde8t9t9FlQXq+7i2ul4bjuOPVj9su3rWSa/b7do8ENEG1s+tx42clbEDWxAs2p9yF8KQnziCZVlrFuLwmm6cUviJH1iFY0WpytTzTmZyJs/oMwEgrrijQSKx6mdy/zu62vVclnOPZ6TF7cb9eBinKu8Ph3T2PxiXZ0j3InyLqA9I9UEzlBaQIWC75z7X+lhuFRebo7/xbWW1K4migwNpbDVte3XP3/kq2mgTWunhY+yq+OfGinnXVbBVX1xxFuOMIMsrUZcHZkGVhXW8pzE+66l3SrRCiSIICe1dqVobAKZibdkHZTSknvTr2PEht8JNzoKRdaRVcwlnqFaz0pG2FzUTniowrNWdZSdUK+z1tC7c0GOxiUn5CbPDD9IfvOQk0c9eGY0us26lVZjRZXw36eqXxob7+uqeDQEUKua06I1Vk+H0rlejc9vNxfYZLr4NU11tTkpgnNfzURec297tzCzhGofSxQmIwCRd08zF2ReCSlRwtLTIJQ+xA56B3ICgCsWQMmW8t6pM1C8auz5DyR/ES2HwJuPEdjdXalaJ199E9Zxd91q2eRnFaWkyMF3O+ZeHOc4tEWo2kj4etR8l7svM6Gh+Xdj7rUB9w86W5uVfQ6yDV9e4+lxPlVllhkFILqD4AHHMoKJGCkFQeLTEIVq4WoLgCmXMFC0sCs3YSLCF94Lh+Jbe5k8uffXMk0JQNJ6QHVRecTyyWL7FetvEA0GSwCGR5M75K3InuPFDFWYuTS0wydYOFIL0htLmk4q3GmoMYcchT4nKoNkcKW+esvQxSjjjR1U8jAArH1Im8us/ZjZObAzM28+MEoGVVQ8+mchUdg/GP7j/GrXJprWjBSv38jqO+y6ThRJEJSaRqFE8416urBecvzktgGQk4IHIkipY07fB8k8oQWl08yYmDv/v70Hoe8ygDC4qgRJc6GbVsM18tsd+Z1uDTmJXGrhzlXapLsDN0ZHPud+fq9w9ybRLoZZCSRZH9WZsUNvDbzsLhKi5sVUX911FXgYATWULsy2RByF0mK7DPob8Vt3hamUV0B/KH2e5hP7x3N2zgw/WH3hQJhAGpXQ6RpKpYT0QKizvJVYTFFCTWhzIFuW+JKR/cH8CVDJEfXMpLkJNliUsSzbL7OWEEnhC76NwUIW2hk24FkAoeR7vcqLU+N7dCcsdpyJuKWEjRc4UHctg1Fz5WkLtlB70y+OwWimfJ9+352HexQpZggZUv1NLij2MIMjtYgMoGg5lb4SacoHyoKnv4mt31RuNo4VWirhRX1vgx6oLc6Ge2Hs+cx4heZ/hZrfUcG/n9dvJudR+d3l9YLgGjNBJ7dWMpPO7rHgRrpYQUPffjoo5D3HXRbZgnkecRPS/Hu8tjYv4SF3oBY5bJs5a1pzmNmiQe3IeQKKz7TogULilLTrrkUbWay83GzHo/Z73vtfEjXSx8va9tPY/X6yDlCs+tp0x66ljinrA+PVpqLHJLpiDrB3KySu4VY1d0ZdjyTe6VA1SIGnaShhVauElbWEG4SekUj3NTRgGup4ToL3bVEmgW92y18Igu8nhSAZPQwkmsEMue4++0epxlIn2apP2NXq7zRjCpNgW3HN117OtG9510IrBg5RLjZUFmF36Bh6NFFss2IhZ1fVy/l0Gq6119q575HXzR5UCKS9BNWvs9adPOVRYmad62EnAT1RW2lEmMye2UhLgUw0wkt2qMDOG6UtKE4TCAdXDZfpctJoFWyjywMGysNWjx4qwsO3TIlgtbHW4cyvcBKiUb8xGg4lssQ2YJQ7IIQzKuizGJi45ghXHt9hGrLEQi4qIqXLWlXuA1bJHAfgrmlL6/VJOHLKwt9ky77XZ6GaTc2On6lcBGPfSGaWVZRW5V6ia+I0rQMnKuE1pbbhWaRk6W+13qEFoFEHXRqGvPsqNCK90Ye7r7bdtKoJ27UIqmhsZNdFFDpmoQ77HjShI2ACYxO3iFjQfwSVtXNuOuZLcqYOHVERq4H4aodMhmfAm+cGHYOaB01SRkfeUXWL0yaLcCSPWKrDfkOplnJSYlJ6Ct+ydKwU5Cocpa10hQKgkfS9sDdhlGPha38OrUgRUnslBxI4FhV3eMK91yuOxMkzvs9pjThjyUbXjQZm6/sIXU6nO2VA82euO4SHKEBYwv5itx3DoXtQAS3HpJJNG6klyydLKsu4oFIokDMKZle47ZSSCzIboA6+RxRZdifmnWidTWZ59eBinn7tu2lpSzmlo1ThRXh+1NE44luQnrvs9XWlmu2Gbg68f7YasrDGTyuxSHDbUwaUIeaaWc1mf4+qNstgSaEQfC19SM+NC46FFaeNgNzZiSWyi5yS0WmSX5yHh11pYFJwGNMI+AVlXI+o8ulpYbl81iZ5st5+18/l4GKT63tTWD6YIn3ynCtlq5hSdbePI7oAk6C4cYV3LbaDEQjkMFx1GzDFaZtsUuI5kxvPIMuwbFDZOEJRcpgBsu+9SOXdYFj8BfwjpIoJXFHB474UWOez+b6w/AJ2rhyNwQlh8IPmTa2ckSVJPAe4Jb1psg1xBxLUbnR3Q8Ok9DVARuvrWadxIT7m1zqmeuvtdBqlMdvw7TsDsPEfb5u0nuKjG7FWHUXcc7cUolbD01W22G86zccRW8wCmkhkDCo+Sh0JHCJEm4Ydwr3TFMkmzWL2s1fbO68wls36uqg4VW02dAiK9sYCktKvCaTqMdjbRYp3VEtx1Le2m7dRlHcMeFS4M5abrqENGYlquzx/3CnwWknwhNvFlsNTz+W5Wo7pSCvwWefteDVS+D1Ia6+8Imf1R5N1s1uv1X6ioIr9iaHbfdCHKTWRedtkBmOIYUWVmG3TNht96SlaSLC9iVrJvYYdCSMk5UTmQF83e4FkmHr8UqUD660iwZkDTItmLGSZNXd95WysTJ0zG0lrppUIc6pJhcEH6Je3OV2mQ5C6HVIaOr95WeuuEeQy6uZsdp17bCPa/wMRvGaMxSwO34cecIDO8QySBqqXNsklHHRUoyBlWCQ/E1BuuarzWuRDA+YvbVdYDm+xUODh4blPE6sULPrufR38sy/rTSg3wmA90usviqf2IMNq5X3bVGa/iFx789WSDWpvN6OVMqJLNm422lumCl40Qtx5V+q/f272WQssO194S+1a64oc8Pg9+OvksdxVmExoxVTigyDKloyqEsfauEnVJxrsLopA+7FOuKjHleSz2+zSzHRynzVsDW6TU0gG6bLy1Runb/Zoy66KGiHW3Dbtqw/MPPJuyyo6+t3oa9kZDAhn2scKftZer9wlzfsHCObKdyabVfuBHiWo/lv999Euh1kOo+iforaimBsOIMlKvrSm8tt+hq3QGSA6kwQHHfWpi9tQrZrxVQVnHKhq+0CuAHFkATCyF8gKAi9xL6WeMbUdBxcozT4uHCIiJ/t7+zxFpZujFricmKMVJpQv5uYwmuVX7++1tfAr0OUs7lt/Wf1Ba4w2aKkjkxbou66sK3HGZ2NQKZBtajYNPqvbWIcTWA1i620fKYFmOafd7sXsPg7X5v9Rq4wrADY0TL7R+V1xILzSaAh++z3T2v5Rn4724/CWwFkNp+T62H7rhZfCasxBIkWthNQCpiEQQr+kjDxyBWFaHYu2M1s8iaWS3NYglh8Ta43kLxueUeQfg7ywFbq8/EQrRyCMcAw/fmoN1ZMs3cc82usZlcJN5nd66H95YGO+S7kdYwVbBElwPD8CKkh4btdrlU4UZ2+832Okh1u3y3/fVF3UQN1pGtMLDcSt7leUUFGVgDywSOm7kXowDUyt0WBoToNS8HLtHrbAUyrY4fuEFbWFLB5wGoKMhHr2k5ayZM8hF3oYsh2ryilQBzs/MG1yhJ5dt+CngBrFECvQxS3tW3xof/KL4ejmnwfFHLyoFQwIRiORzJe2l0AwZKPWB2aZVsdgAStldEG7b92zKjXExHi3QsjeM0ez+seSOcsgaR6n1YVlqYgdgEVBydLbBo7PeCkj42brT0ehSkomlwdRCsW6puP7mu4H41KBi1KJsBcdgdG4CgbXXRzN1nD/wohpk/xxaWQC+DlMy5+jpwCz+lHr61aA+t6K20VIZ2x7B7qhMxRC2jqCXTiRW0nHXQyTWElX47S80dL0pXdn8H12JBqg4+zYkR4XM3u9awPIWBFwHmZqzAVgAmYBcivrhzN1hinQrM7+cl0EICvQ5SWrOO69WIqyK6Ym+mnFoprOhEj7pOmsVZ1mOEtVJUKzl22JXTDBCi51jJsVe7byugWU6OrhKArEKsmdAK0MLvRxVqJ9fc7Pvh7y03TlqBRjswCbvE+LtLaI2et6HBXygmFoCJw6qwjCL7NQCTLO10vqj5JSbVEjE1A5olYwvfZ9JueFspaSIK4g3n5XXaaiZRMF9uHDe6G1v7G1e7GAmPsU4XIZ2MQ79Pcwk0+gJ6T0rbIJWt9x6Kv2IvAS8BL4H1kkAvW1Le1bdeo6CLjxOt19bFl7qulyYWVAekg+gq030lMLDsYZakUeF9lwbd7DRtCi2s6736g3kJLCeBrWBJeWvKj3EvgVVIoNcn/ypu2X+lByXQy5YUxe0BqgcHXfiSo12FgwoKkfuiRSVs6Q6six4XSUeX7+SUWNIIYCW2VEen8jt5CWyqBHp5MeUBalOHjj+5l4CXQI9LoCdCJt6S6vFR5i9/8yXQNH4UNWjcZTYzdEK30M5SbGZphiuhLzmttUCbxaTanWvzJeuvwEtAyhP39OatqZ5+fP7i1yIB5ypdyzH8d7eBBFr3c/GW1CN4/MhHjPFHTtUu3yV8PS53pFWeQ7M8jOh7neTPrFQG4XN0cvxoXkpUFuH7W02O1GpzSTq9b2cZNEnVaTwE8mVWsyKJWh7R83Qi4+i9LBkHTar/tDOkXImIehVxO4aDm0SfLJw4au3UgYncPFttIlT/MMh5sjcqlTv4+9Ib19uS862B37dOMcJmY1NyH3mJkZ5mnY6tle7X6VgI54stNz86Pd5Kr7Nx/zCPM3igkUfq9gm3tQnsk9oYu1J28dbLllRHq4Dlku18Il4Xj0x/aR1IoA5UHezsd9nWEljad02WKGxa2uVb91/h8gLseAUQLfeylQDq0azYunwk+8vzEvASWKkEOlror/Sg673/tgCprQxQ6z0g/PG8BLwEtpUEOl7ob5ZUehmk3Cqg64W8kQ+3lRW1lSzFjZSfP7aXwDaWgLekHsHDb+pojZ43SibYLu4xD1SPYAT6U3gJ9KYEemaR38uWFIdGx1bUdgWq3pw//qq9BLwEHpEEOtahj+h6lpxmy4PUclbTVrOottr9bNak8Of1EtgmEvDuvg1+0CsSMF1f0Zwh15Cv2XU+SoXfybmi197smqP3GN4nnBfW6ljR993xwu83ywtp9Zw7ua92Y6RdCkFD76B2B2vzeafX2+l+y52uXZ7eGm9lTV9fj/tb6QU0O+dyY365a1yup1Un86jdtYe9MtE5F76u9XC3P4rjt7vfzf58y1tSmy3gXj7/ZiirXpaXv3YvgR6TwIoW+pt1b70OUpslty1zXg9EW+ZR+hvxEliJBLo+FuVuxoPUSh5rD++7nMtus92dPSxWf+leAr0sAW9JPaKnt07Vwx7R1XbxabxV1cUPx1+al8A2lYC3pLbpg1/utj1Y+UHhJbAtJOAtqUfwmHvGr/oIZNHyFM1YRh6INvOJ+HN7CWy6BHpGd/Zw08PljUBpc7Dp46C7LmC5Vh0etLrrWfmr8RLoTAJ1LadtXVzLl5j9rda0EQv3RNuXatxUu15N9qy7L55MmJotisQeO+Effbjsx4MdahV5jWEH/rC/EH9q7E+En1ZbJ9ZHKzLCSvMjOiE1hEFkpQnK0bwO3nP0Glebk9IuX2WteUyd3mur/K3o2Gg+VnQUrPS5hcdOJ8+wM6Xj93ISWG7Mr/ZZtTrmShZp0YLVG/nEXD6dO0f4vhNoAyU6LlaWvmOi8dBbjD+xWhI6MY4fgBVwiJ/rPhXsX8X7VZPg210PUT3cmbdSrpl4PN60dp/vWLqR08Yf20vAS6B7JOBUYFWBSFZb1vbAayzoF0XwamgMS4DqgW5SxvSsu69cKbIjL5YFXB3goWB1EG4+GnNdS+WxYTXhWpx6LmD3zC9/JV4CXgKrl0ADxBCQtAEz4Ag/zt2nIMb/UxPSykrIH2JDubdXfw2P4Js96+6rVar4r1y2sl+xqFbrLljxifwXvAS8BLwENkACErbgYrwBrMLOpeZNIqzrr4rXEqCqo04SG3D5HR+yZ0Eqk0pWq+VSnqsBNXPjTX+cJIJ6XvDPSlxCVhtd/3w6fpB+Ry8BL4HtKYEqzSfrKaJukxg8Yk7ReFMNVpSAGu2sWAJfi+cTiUSx26XWsyA1MjRYwcOYhYDF5ec3LwEvAS+B7SeBpfGLOIppE6AISaCHKVEstJslicALVZvM5XKlbpdZz8akdoyPljOpxAx4LXT5BRsfCDcXn+LKQR+Kul+JykrF7vZH46/PS8BLwEtgeQmIvqO7Txh71HvK+GNMqvlGPcjPYkXs92Cgv6/rQap3LamBXD6ViE9D3HT5BZtn9vlp7SXgJbA9JCC5NPVbDbgQfItg1CqcIWT1IlyCk/3ZTKHbZdWzIPXRdx0qjw0N3TOV8kwyEStVK1wQkOEHXp/4ZRFxqtBicisK54sF64X7COOv9eNp199GrbX6amW5nKnNIGlE8ytWOxBb5R91erzlevt0eozl9msl21Z5L+2eRbvPW13LevcR4nlWey3rIddHfYxHda/r0U/qUctm5eerg1OFsSky+hIJgyA+1GXRxKsV5EhV5nOp5O3Rkezcyo//aL/RsyBFMR08sAeWVPlWrFopILUXyb2avCsAApee37wEvAS8BLaPBBrJYKSbx2MAJ+hCNnjlQiqViJkEXIOJSun++NDAtX1Y4He7fHoapE4cOTyXjsevA5jysKbglq3Y1ScS25hRvWzcSS0rv3kJeAl4CfS0BAA6UbdQQJZgZR0LUvQepQhU1fJcslq8fGDP+J1euO+e1tKnThybz2ZSZyvl0lwCDyMO/x0tKoklshxSl7AjuuU6emFA+mv0EvAS6FQCjGs0xp0UnMDrww8pfRX80KKiY4n6keWQYtXydF+idmb/rh0znZ5pM/fraZB6+qlTs7t3jr5dKxfuwNlaYik+1udzAUMyXTZ78wC12U/An99LYOtKQIliTuc1Apar18c9UEJOaviBL1FO1crXxwZzr+8ezUz1gmR6GqSe2petPf3kE1cz6eSrtWoZAsdDgu9VEnW7AKBaDYBHFSTuhQHor9FLwEtg7RIIq7t6rSNaUJYoBpCCjkRJpNpkNpV4+dCeXe+cyMQamNFrv4qNOUJPgxRF8pHv/9DkjtGxr+IZ3IUpC/YE/1NWH4OFSzcfi9qYoeSP6iXgJfDoJdDcW8QqFI6E7nJFoQ+ryZi5OtSX+/KR/XsnHv21ru6MPQ9SP/GePXO7xnKvZxKxV+Ox2ENpNQlGCx9MWXp5KFC5Fg1OTJvdkpJA6i2q1Q1a/y0vAS8BlUBVYlJaAV2IYDZvyuWLJgBWtLJYVDZerk6lYvGXBjLJc+/fk5vsFRn2PEhR0D/30z9+czAX/8NqqXgrle4vFytxUyR9IpGUhyfBQj4oxhnlaSKgiJ/yJrkEXQ7TusSrGBGl5Sh3RYR2xJH1AcEokK7LNa/j7GjVr6rVIqBd3tejvr9O+2WtVGRrWQRtdG5bs3t51HKPXsNKFozuWjf7mmUBDpCq4ccGOaSnFPtIsdke86FSAK5EGfsVy6W+ROpqslT++geff+7mSsfTZu6/JUDqxz/wxMwTxw5/L5UwXygW5h+k02lTLBZNLtdXX1lEsq+dkezKKG3mQ/Dn9hLwEvASWI0EXMFY912uu7U6uubfsMhBHJXj+lKJW6lS4U9OHtz33RfHUz3j6rP24WpE033f+dmf+albw7nYZ3PJymlTmp1LI8O6mC9Yy0kbfolpLC2oaEfRqmLnyu67F39FXgJeAl4C7SWgTQ35k5BOu0zYVYWG6tumLCz0KhJ4zUx1YfqlPcPZP37m+MFb7Y/bXXtsCUuKIv3I0/vzP/6jP/BmojLz+32J6tWBdKxahTUlqwmpBawPzJnI0RhVdz0WfzVeAl4CXgKdSEAd/UoH0/g79RwiHtqJN2lK6UT1Urw899l3PX749If29y10ctRu2mfLgBSF+k9+7qduv/ddJ/8kVV34o3StfAO1qYKaEmJJBUClCdqbFJLqpufvr8VLwEugZyWgBWalVqlL1g2FNdh8t1rO34rV8n/49JE9n//xx3ff78Vb3VIgxQfws3/lJ1HuY/T3FqYfvoL6VA9dDT9piiguv8bH5Dt29OKw9dfsJeAl4CRA0oSaUHV1TmpYylQm4qX8F0ezsc+877nHe4osEX66Ww6kfuDZ44W/8KM/fGbXSN9vx6qLFxKmHJi3NQO2H37koUp8ynfm9VPdS8BLoHcl4KpKVONIu0H5I+0khThUtTqVqZS+vmcw/e9eOHXsne8byzb03eulO95yIEXh/+2/8EMTH/3w+7+ajJf+baJWupQwJdsiOdJ/hfkFvfS0/LV6CXgJeAlYCdCdx82x+QhQVOjJqpnLVcuv9lUWf+3ErvHX/sLje3qiRl+rB7slQYo3+z/8Zz9987mnT3w6Xlv49WSsfMmUS+VqGaw+LD1YKiQFyosjUXQ66tvl2HR6nEe5X7TP0Ub0PXqU9xM9V6ucnlb9tDYq76tVP7F2slkuP2cluTvR86yln1ir3LPwOdZy/HYycZ+v5f7Dx1jts2l1ne5463F97WTR7Bzh9yrVInpFIeeT1HP8pJOZ+USx+NpwrPq/HRru+9bf/uDjD9udo9s/37IgRcH/zb/2F28c3j/2f/anq/82ZcqXc4lkiTGqNJJ8Z2enpeii37wEvAS8BHpRAjSk0mnQ9woLBuWOEMgwi4WpyTeG0/Ff2TeQ+8Y/+rH392wcKvw8trSW/uGnDpT/47/z1y8f3T/+OwOp2m8kyguXk1X0plyYN4NDA76dVC/OTH/NXgJeAlYCoJqj024a9L6EqeQT5fzbw+nYr+1IJ778f/uxF65vFTFtaZDiQ/qz33ei/HM/81NXDoz3/WZ/qvIbKVO8nIZZxeKz+XxPFAHeKmPN34eXgJfAOkqAyjsFCyplqrPJ4sLrAKh/vW8k8ycfffG5K+t4mk0/1JYHKUr4x957sviP//7fuHh4V/9vJquz/y6XrF0o5RdLfVmUTfKbl4CXgJdAD0qA7r5MLD4ZW1x4aSBe+qXdOfO5f/Jn33vxgweyW4q2vC1AiuPvB999tPj3/vbPXDh2aNdvLcxO/HounTkHf99iOLegB8epv2QvAS+BbSoBUM0nSvOL3xlIJf/VrmzqSz/wwjNbyoJyj3XbgBRv+BPvfbz8c3/9r154z/PP/EbCxH41ny+exdtT23SM+9v2EvAS6F0JsNXG66MDQ7+8c2Dw6//1T3746gf3D2zJjBoQQrbXhorp5c+9du3y7//x137ri19/ebpYM3+lEks8ASnsQucVEQYT5GIIRbIGVoDiyObWni3c8HsgtnrNCq0Q2HyjaV7//vaSub9bL4GtLAHmKTGhxW3hKjbu97BmkJp66PMktcpDH7h2O+EODfI795feeGw3VEXt2OqDZM18O1ut/MqBsYFv/8NPPH93K8t3W1cF+mf/8rf3/M6ffvf7F03mzxVKpQ8kEomD+ImXKsinwkiKgTXDnAS2/iBcFUuooA76Oj4wFYyZCgZZCpnernIFAY3Z3hyArtijdAi2wCYAyIxwGaB2s1UvWvWoadazpiHXKTw52ODMHrtVr5vo++G/m/3uuhwHlxu+dt5PvHEItbre5c4r8zBy3CU5acHEDomuzXe4ZzTNYMlxO7z+sBJoJv9W19/uvrjgaZ5zZMMKLa9PP4/FUg36aaXy51HaX+PKZB6+H1nwLfOcwjlZzcZuuIxZJ8dZMpYi8ot+3mr8txrvDd/HfVEHSM866eOEV9tk0HVXYBUImfesIyC1BPAdmTJ8H5UhsH8N+Zv8XhK6hJqjAkBimYFaAkdNomZOuQSQKplMMlZMlfKX4qXi53YP9//2yT073/nZDz7eM80LGwbqCv7Y1iBFOf3KH78+9tuf/sKTFy9f+XO1eOqTJWOOYmRk2N03lUqZQqFgkkkCEywrdtNl+RFZ2iTk/XLFFrNQ+LEgpV1ewgPa2WSPCqSaKf52YOBBaqlCbSczt+r1INUIZAH4bAOQ4p0TXgR6LEiFQU48KCwiYEEqbFUlAUQCaNAtFSyO49ArCRTGrmDnUqUs7YWS2AEFCaay1dLpflP+rfG+1OefPHzw6l964dj8CnR9z+667UGKT+63/vT1vt/99GcPn7l87UdK8b6/mK8lTtbimfHFUtmks1kBJ1kpYRVEgVXQSCzG9G4MMLdK0rWRDr9EyIZ3kzUAKays+J6DMWdnrdWSavb9dlZYVAF7kPIg1WpxE1a6YW3XznLbypaU3Dv1ADaZ0wLIallxC1up0i1Xwgf6oVMRgXygW/hpBcejdZZIpLAIjptyPl8ZzKZux4vzL6VLi791bM/wN9914sjNHz6xZ0sx+JZDUA9SIen8o//x1/Z/7usvf2i+lviz5Xj2g7V4di+qMqYrFfqOK1jRYNWD0UUQoo+YZjndSeKSYPMxrHikbH7IvcHf3ec6eDcWpJYDnmYKqJW7o5kbptn3vbtPB5C3pOoTabu4+8RzEgIp9nCiAtCWQI3jIiHtNKAvGAoItQkq8xhY7FYBUtKlweoHHgrxp5l0tXI5WSn86Ugq9gcn9o6f+Tsfe6Yn220sB0LtPvMgFZHQP//1z4/8wee/fuLu9MIPzxZqP5HKDRxG/GkXByTXOBVYV6yVlUHtP5rnunE1xXhQeGDqH4ESD4gXXFHVxe5+Wy9LyoNU4wP1MSkF0FYg6mNSobkYiZ01W3yE32sHUkqosN4VApOtUU6QImgRkKrxFKILKG0E3VIoF1CyLW6ymVTFlIu3S7PT3xlJpX5v//Dgd07u23XzL7/vWM81LGwHQJ187kGqiZQ+88qN1B9+/it7vvvq2x+Yyxd/pFg2H0pmsgfiiWSuiG6/9BdLPKoMwGLRLF1ACSDVX5U6EfbNO4dgg/Viz78WkOo0oLzcir8VuHnixPKBfx+TWqpCtosl1czd5ywpWaBaQoW4+exAcXFr/RsBgnjGFGGNxYFaKfxUyosTprR4eiBp/mRnX/Zz+4eGrvz9H/m+e50o8626z7ajoHfyIH/03QfAnzDXf/kPvvm5L37la6cv3bj76vTcgx+rpfqeQhnHPbFYOl5FX+YqfMYahyIbR9S89qqSV2vyR5lN8un6bc1iAut3dH8kLwEvgeUk4NiHgReFnXLdHBcHS+Nsr/Bv91YN6hf7V6toUBivLmRjtZuJWOlLmWTl9w+ND751fP+eu3/++ccL2/0JrKe+3LKy/Mf//F/t+c4rbz85MV/6oYVa+pOIVx2qJbNjLI+flMgnIIkxqQb6twSq8B6HbGP+FGNX0W21llR0ErSyiNz5OrW6fEyq/oSWk5m3pLavJcW5F6agc8Q4ll/gxpcGqyBT2OFEbwvzL3WDzijHSv2p5N14ZfENk5/67I7++FeeOLTn2t/48LuntqxCXeGNeZDqUGD//ksv5T735W/veemt8++Zr6Y+UU32vX+xVNuP/i2DQo7AKJQYFQYhcq0kGbhaK+PPJEx5ZfNUQCkl1ZT7s0sI4yUkX4SBZTmF2AxominJlQJRs+OuF0i1I2a0u9/A3WjzXcL9o4RRZeW5WuJCp8SP8DAJn2u1IFWXr8aLllrEmm8XTQCv77d8nlT0+XV7TKqVfOuWSnMwXG7x1Ux+yy3imnklWnkq5NhcflrCg2PrxfHA3PPUV+Y5FWWcIgVTGcH8Dv5Gn/CHyTKIEaX8Z0fS8c8+tmfk8j/4kedvdaiSts1uHqRW+Kj/+1/9zMjXX3pz35XbD36gHEv9cKWafqZQLO/DgMylc30SqyqCXCE5D3G4BFFtnT+kpvIz5kWIogVgcRVGoArTdNsp7egk8yCloO9BSgdy1CJvB+LdQpzoRZCyAo9oEFWpDly5XOUzSTB9BToAjVdLlWppAvP+Vi4e+262UvjMgdGBt47s2XnnZ95/bHGF6mhb7O5BapWP+Z/+qz/Y8fJbZw5duvbgI7FU9s8Ah47lC8U9pZrJpdJZJAJnAD5xsapIsFCgwkBlNjl+pyWVYM8QfOZBqv4QomDjLanGAeotqeZjpdkiZaMtKVpPBCFN8idLglVqSIbQ3wWsUC1CW7pXS7CcHsC/cjUVi38pE49/sS9Ru/LkYzvv/fUPPt7T7d1XqUI7/poHqY5FtXTH3/vGmdh3Xn1n91vnrhy6cvX6RwFKH0tl+08UK9Vdi8Vyv+Q8wJqiyc/yJo4OLcnBzLOiw8AO5ugKuJUbw1tS9eRJ7+5rXRbJu/vUgmlWLzMMaK1+X27+uTkonXFtJRopZcQ8J/mxMSe8pmK1Mno+TaQq1fPxcvHr6Vrlq2MDA2ce27v3/n/4sVOza1A/2+arHqTW4VH/5hfeyLz19jtjr7759mM3bj94fzme/Fgy0/9ELZHaWarGBqvsm4lBXMbYpWWVhAUFs98UscqSkktN3DQepFQC3pLyllR0YdZsbmyWJRVnOU9aU5LIy1cm86L2Jzrlol7EZCZurtUKi19GMdgv7Bzqu3Rk9+77f+sH3+UtpxXoXQ9SKxBWu11/90uvxl8/fX7X9948ffDGvYkPlEzqB0u12JPxZHZHNZ4cLgKl4PQToBJyBQkXcP15kKpL1rv7nCw8cYKS6GbihJAlUI2GHhJWo2EyVK1anqqZ8gSq752DM/8bprTw0v7xkfOP7dpx92995LltUWuvnZ5c6ecepFYqsQ72//U/fTn2ytvndr5y+tz++1MLLxZrsQ8hs/y5WCK9q1qLjZQrtTTppwQqg3JLHqQ8SHl2X/Mx0M0gxStOiDsfarRWna5VCndjpdLpVLzyJ33JxCuD6dqt4/v2PPz5H3x2W1aK6EBVdrSLB6mOxLT6nf7bf/PZ8XcuXNlx9vLVZ+cL5RcTycx7y7XEIUDTGFZggzXMQhIsAiUFH3d4a/CZu5RhS8CQqsq23vpyvvW2PniX56XlMhpAM1pxgrXHtAiUZn+1o3C3O3c7NqN39zWOvUbihBs39d6lW5PdR6uS84JeB21xUV/YNY5XJy2Rg0tbIMMulJpYn2tkhtY/0PetLG3VcimHxlRITg3W7LQnsCSoxXi1MpmIVe+i/NFraVP5I4DThbHBvtuwnu7/hx99ctsUgV29hmz/TQ9S7WW0Lnv8L7/1p0Onz18evXDl+oGHMwvPlSq176/G08/WkrkdhXJtFECVSiTTAlhlW7TSYJWGohbiEqyBss7qFpJqgafGIrdcZdbQT4ge8LA11op2HN5HbwrRMpmkOvl1wuokddWa6yBVf78+aYlWtoBuaPLy13DAumHyhye5Bdul19WkGvkK+gKFFVVbEGxy3Oj1LHeMtedJNafQu2tonSeld+nII/LM6HIKbZ0QS1xB0+j3Gg4UOWZYPu6MgTbGgkfkFa5Pyefc5Bh6A+C7hT6Mshcl753HZFtBu5hy/dvk/tj3ja8OkGz/JvZlqlcjh9fCJdqH2xPGWIeTxWXYN44vdNnRu0FAZA6jLgF5b+LO49tILcF8nMVuk30JcyVbmPtcplL8Vl8meWPn8OD9f/yTPzDVSnb+/dVJwIPU6uS26m/90qe+krhy4/b42QuXd1y7de+pQi39Yi2VfhFdY/aXK9VxKI2heArtQdhYEROHAEVQogLiq7gHUUaFVdlFwSQJUmQL6iTiK9lFfA2vEt0FL1G4oeoXzawepwSCFWRIWTBzvpUl1QykwkrTKTrXcbQdmLhVcStlutRdtnxhVXec6PU3k5MHqbrUo5baakGKw07AqSVI8Zx1Q4TkBO5f/55N6UAHQfZ4c9cVrj5OuyfMqFWjiWWL7KIuzk4GRele4AAzZlDwFXPPnYvEpgoITphz81gwTibitXuwnk5j0QimXunN/QOpq3sG+h78/Z/48LYvX7Rqpdjmix6kNkqyHRz3F/6Pzwy9c+Ha2I279/c8eDj97ko8/v5EKvtUqRLbiZJLI0ikGkhlspJLxeTgKrPUUTVZFnvMzbDVFsgmAoRxvgO8WNiWIIbJ2Liw1nkYrCjZ+5MlW+or2aYgZTPoA+Vty7wEPpB2nWMx/8OKLew+7NRFKef2llTD8wuDqavCsTmWlAKJs4ZcU8+Wbt7QeNDn6npYW5yw41PAJuSKa3S7hfbFmk1cb2G6Od1y1kp3MuGiTsY/WLa0qvi5pojASRc6J2XJ5Z+04KiViuiGOxOvlu4mK+XTsVLhq9j7raFs5ubuseGH//lPfnSig2nud1mjBDxIrVGA6/H1X/ztL8Wv3Lw5dv7CxZ13H8wcgmPvXSBavKdQqZ0oV+O7EunMMCuwa7dOgAvBCsnCKbQLKZdK+FsnYHjV6MBA38Okk1YhnJb1dvd0b3AVWsXKMVzFnQonWJnSDxICiHYWT9RdQz3jlEhUVh6k6hT7VpZg97v7Vg9SjQ0RaSnBnc32FXagLLXG6yPIVRiPA0zc+JLvWWALvAhBBXLbcFDO4UANVlIV0SS4zLVMOd2KtTIc7tOgkE8lauVryVrplXS1+LVcvHZ5rC9zb/fw4IO/9+MfRX0zvz0qCXiQelSS7vA8v/gbn82eu3h19NqtO+Nzhep+tAp5b75qXixXEkcBKONIshrCdMsSrEqwsDIZVLYI1a8LxygCcKBPPwxSgRrg+pST1AaWmTFPC82ClMS8AIDhVepSkGpO9HBuPNEbobJFTgW547iOxe3Az1tSjZaGG07h592NllSw4LGIIxXCg3iVdrx2sSa3iApiSeFYlY2VhoGLa6ckG5Jay6luzek5dPxaELMuveDcmtgESwrjF+gIS2s6Xi0/ACjdTMWqZ7OJ2tezscq5gXT83vhAbvIf/tQPTnU4hf1u6ywBD1LrLND1PNz/65d+p//yjTsj96dnx+8+mD5BdmAslXlXMt13sArAKlWrQ6C0ZxrcPTYDnpNR6gJiktJSCiu18DUmZbIqXy/QHTZQLTEnTnImKNqRopPcsaz4NQ0yR4/vQaqRzLJEPs7F1KJArgP3Xrek2oEUSgXZ8aQuQx1fOp4cKYXjN7yI0cYDWF4xRoX4LLtl6zhk1QdtnuNAqsEN2DA54wWM0TmcfwIdcG8napUz6Vj1m/2J+PnBdPz+cCY52Z+OT/wnP/lRz9BbT6W2imN5kFqF0DbjK//sX//hMABrGBbWjompuWOlWvx5lKt4vpbI7ofvYRxgMoQJOeAo6Zy0UmVdOgpzVWmBJERxp1c+LSWa6C4MEy2U8huAVJSmq3xcsbjoKiHJoxVIOeWiLML65qwrujCdQo5+3qhTlg7V5dyF7pjtLDRPnGgEgGbPotlzcXJ1lnE0JlXvSB0t/ls/H0cnHG62+5oyQuW4Ng0iekx3HUpq0PFak5gpraU6RT3srnYLNUvCYAHXWbw3ifM8RHzpdKIw/Xk0GLzYl0lNDmezM8PZzOR/+uc/7N15m6HkWpzTg1QXPYxOL+W//qVPDd24c3/o/uT06L3p+SPFinkWLMCnARZHofTHYV0RsIbAr00TRHR1aYHKgpQ6Wqomg3Yi2qIx7Iap56XUiQ66D/Ok3MZjwKLzINUgO5WOU+KtQNK93y5doFctqc5ACs5e0MDD1IlaJE8wYOuFqeN2APIcVaGNk3BOhMMoZwgV5Agdp9UCFkezoMjOAM0e4P1rSOE4iyT6V9KJ5I10rHR/T39i8r/5qz8y1enc8/s9egl4kHr0Ml/XM/6zf/NHA3ceTA5cu3Fr8OHE5N5iuXIC+VVPVWLJpxBT3oPXMYIWyjL1o9htgoBF4hJfE/CXxMAaDMeMnDuP7hQJJDs2YMAKDClhvFdi4BozP2AS4u8GBp+NBfClmeXTTTGpKKC4B7WcNRa2D5sBUztLzgFas3M3c1W1O16r47T63mrzpJxsnIXcit3H9AgZX0H+XSOI02fniD/hcSi5gdKDycU86bpWglCwCMACiTXGCWy8DrjuqvAKLMB9N5usVR7ASrsTq5QuIknju2lTPZtGblMunZoe7MvN/j9/5hO+uOu6aqKNO5gHqY2T7aYc+b/4F78xdvPOvYEHE1MjiGHtQTV2BSyTOAFg2g224AiagwwlwBYkQ7AIUCEZXeNaBBv9Sdg4QLFYxKpU81CcopO2I44Cz2xjIJDLPQkrEdnfVoT2IBVRzqHREZZteNBsBZCitRO4BuklFlTXjtV8H2MxGH/8Oxh71oNcAnuV7+t4VGaeS+7FsZETX83D2pqPVSsT8UrlNsAJrTCqZ3Mx81oGOU0gQEwNZpLTYwO5qf/sL3680ee8KTPUn3SlEvAgtVKJ9dD+/+yXfzt7+/7E0MT0zOCDienx+UJxP7J/T8QSyWcq5dpjmN07an1Dw3C49OO2cogFpBwJg4nE/D3FKhgNPidVLuw4jN7XWLtCiaAUdCgnOFjphlfv4ThBsBIWfbVMWZuwrB9BnpS3pFoDaYMFE3ourpJDu4oT8hUiFJ+3qyBB8xuJ6+JwhttZLHC66mRnLoTA3kOahfAiqhUMyQrIDiaPz+YRk5qJx6pw4RXOorXoS8mYuZxOmnu5RHK2LxWfR3mi2f/2r/0H2NdvvS4BD1K9/gRXcP3/1f/ya30TU9NDDyenB+cWFocWy2bXRCn2AhqGnISCPoBOwuNYyQ7DfdIPddEPcMKcV5BiqSZxwQhJwgILFEo6KRqk5VUE1lfA3IooQg9Sy+aRdRKTilpf0YfRzFILnosQZhrVQCuwblhc2JO0A6kgXy90DsaMlJiTMKj3IHFNtZZokTN6WkPHi2oen6DdRXURVvs0qotPgiZ+G1d7C8b7GbgBr2Ri5m42np/MwVrKppIz/++/8ZOe8LACfdAru3qQ6pUntQHX+V/+z7+Sm8zXhmcXin2T0zMDszNzu/PF0gmsZU/C2jpeSyR3F0vVQSiTQcSz+lHFPYf3gVoMdStoJRN1CrEsloMRpfR3KTYoH0SUoWv26CrStFOU3pISMbYDlEcdk1pyPlu7r/6+xjVdAq3cQyiFoaLMUBbQKwCYZvEzjZGDZNrqJGJKNyolxJTiVVQWj91NJ+KzmVRyPpNOzqXT6cVf+Guf9NXFN0AvdNshPUh12xPZxOv5p//yNxKwsIYfTM0OgIQxOD2fH0EdwZ2IW50qV2NHyrX4IdRkGidoYc07gEvtR2Q7i3JNWWdeiXISQLG5Lg5cPEg1BRkHPL1KnOgUpCQmSROqWiMg5WE0LQCM5pLxxCSWPPdQC+8W6lJexHtXQIC4i8XPZDpu5nKp+FwKr//8P/pLHpA2UTds5qk9SG2m9Hvg3P/gv//lgcVSuW9msZCdy5dy+UJ5KF+u7CtWqicr1fjJRHbgCHo5jsCq6oN1NYBoVRqKKwO3YBavacSiHFrJitrlVDnl1k0FZn1MSgfkStx9rUFKwKgEcGJuUgGWEV8XAE4zMJ4eJmPxcwCjt5OlhcvJWPVhOhkHYMUXsskEfmLzv/B3/oInOfSAfngUl+hB6lFIeYud4z/9H38lt5Bf7F8olPvvTuUHCxUzjCK4uxC3Og4X3z6UmtkNa2sHXH+wtuI5uA9zEEEOS2mCFxo+GgIZCqYZ/t6gGJtR0l2/rWjkSwgc4jrSvBitm+EqFah7sZ17LJzMu1KQimrRAHhDrst259ck6uh11lunrE9MSmng4U3lhXRaYc1FW3w01HaVr0XLWeEtluMv4zhF/M5YEF6rRRx1HudaQMRpEsA0DTC6h9cb8A1fwz73EXd6mEzEppGnNIMKD/NDSTP///mPfspXddhiOmI9b8eD1HpKcxsf6//+P/1q32Ihn1tYLGbnFwsZMAlzyNnqh4twGLSsfaC+Pwatth9wsgsqbwDKF5ZXvB9EjTRUaIaghZ8s3IkZiDGFpGQyDVE2Q5OFXSWNMGAhHwaxjoLEOMIFchV4XIUNN8Tr7kex6JQLLbTm6NYM3Jo1l9Tvad+iZgAlnzYpRd8AGFY9N56zDrduX1b/CG/B+y62F4CQxoACtqXc59J8N0nlhlxLrBiCyvpyrSIXVtSXu63ih+BTAUCVUHqoCFEV8XkR74M1VxOWHVx0cwCeCZzzAd6/iWdyIR6r3IOVNAX+Zx508EXEk/KIJeVhIS3+wt/96Xqy0zaeL/7WO5eAB6nOZeX3XIUE/t5/98tpJPxmCqVqtlAqpwulSrZQLGUBYH1IchkEs2sXVOgeuAt3gEAI6ytBhmEfwGmAbkO4EnMAsRzdh/gMYJZIAhSS+IyVQRNQnqBmVBrKXoQTS5kM6ij0jgYvICV/UHm39yrJ/o7RuITgwVOrYFoBlRNbM0stYSssuKZ+jfsE1esamkgq6GiSq9ZmbDw/Qz9uS6cIQPI3+d9llFIltxv9/GpMwwb7O1UCxKNbRSwPeRRB9V6gaw4gBmZdbRGsOlpFU/h7FrJGF1rzAPtOAHsf4u8ZkBvwvhEgSsTj+XS8tviL/8nP+N5Kq5gr/ivNJeBByo+MTZPAP/jv/mV8rgjwqlTShWI5jcRNglgGgJWG9YWygrUsXIe0uHYCpPahesE4lv1C2MBn/dVYYriUyIxDw/ZDaYsFpuDFlkEsi8sS16hBasRUgKEQ4/sJgAqTdaBjUf8dCTdhpe5Aot4ttkldQgtUCiHNi/d24vprBDYt9NsIUq7LbYMVxXohuHClVYJ1iQ+RqKZWj/wgzicWkHwuzDlUYZXPqkXc7gLBCH8jTlSZS9UqV9D+/BJA6AHen4HQ5gBSIDXEYDFVSxAYfmpFLBzwihgTWONIrC39r//wr/MYfvMS2HAJeJDacBH7E6xFAj/7//iFBAo3ZaCWAVzVFJKQ0wQx/KTgqsrOVpMD5VhqGOfYAeAax+ugglgMsTDTl0ymYYEhHlal6xBuRQJWHK5FIBg6GGeC96WVUQxEMthWMGvE1ai+PFaIkkwediq3HWL5NxFAqIxS8UkRJoiJudhYMoFD4UD83L3qKWzHckkkkvbo7LTHCJXU3MVBASqw92Ix3D4T1ABEMHMIPvh6GWBTxGcl3KeNB8HvSeCpofpCLAaSAlxxxszjeDN4nQUYz+D9WVw3XxdwjGICybE5U1hImTL+JijVSv/bf/nz3h23lgHrv7vuEvAgte4i9Qd81BL46f/qX9L6ShK48JPQ3w1MjFoShA6mG6OzI4AHbkICj3R5AGjR1wUDLFNLoCBvzRDM+u3rIOCBZA+xzrB/lnUP8IpKO+IpRBk4IAdeYYrRpIHbUXq5Eqzcq5hF+JvFO+TVghiaLov3DqcXXyNKdsANZ+L4mw33YizzUyJFG4cSZhxOVQBIYb/qIs7L9wFQiRJgsogbha9TgKpMQJNKQ/gd1yOvyaRaWThuGdZQ+X//J3/Tg9CjHqD+fGuSgAepNYnPf7nXJfBX//P/KQGGG92BYj3hJy6vcKTxdxhKrsSGe+WcCf3AWxgmFapAgkAXgEN+t6/8Xd10+j68mDWCHU7q3sOfADzuwx8E3NzvFXxDfgcQVf/tP/2P2wfTev3h+Ov3EvAS8BLwEvAS8BLwEvAS8BLwEvAS8BLwEvAS8BLwEvAS8BLwEvAS8BLwEvAS8BLwEvAS8BLwEvAS8BLwEvAS8BLwEvAS8BLwEvAS8BLwEvAS8BLwEvAS8BLwEvAS8BLwEvAS8BLwEvAS8BLwEvAS8BLwEvAS8BLwEvAS8BLwEvAS8BLwEvAS8BLwEvAS8BLwEvAS8BLwEvAS8BLwEvAS8BLwEvAS8BLwEvAS8BLwEvAS8BLwEvAS8BLwEvAS8BLwEvAS8BLwEvAS8BLwEvAS8BLwEvAS8BLwEvAS8BLwEvAS8BLwEvAS8BLwEvAS8BLwEvAS8BLwEvAS8BLwEvAS8BLwEvAS8BLwEvAS8BLwEvAS8BLwEvAS8BLwEvAS8BLwEvAS8BLwEvAS8BLwEvAS8BLwEvAS8BLwEvAS8BLwEvAS8BLwEvAS8BLwEvAS8BLwEvAS8BLwEvAS8BLwEvAS8BLwEvAS8BLwEvAS8BLwEvAS8BLwEvAS8BLwEvAS8BLwEvAS8BLwEvAS8BLwEvAS8BLwEvAS8BLwEvAS8BLwEvAS8BLwEvAS8BLwEvAS8BLwEvAS8BLwEvAS8BLwEvAS8BLwEvAS8BLwEvAS8BLwEvAS8BLwEvAS8BLwEvAS8BLwEvAS8BLwEvAS8BLwEvAS8BLwEvAS8BLwEvAS8BLwEvAS8BLwEvAS8BLwEvAS8BLwEvAS8BLwEvAS8BLwEvAS8BLwEvAS8BLwEvAS8BLwEvAS8BLwEvAS8BLwEvAS8BLwEvAS8BLwEvAS8BLwEvAS8BLwEvAS8BLwEvAS8BLwEvAS8BLwEvAS8BLwEvAS8BLwEvAS8BLwEvAS8BLwEvAS8BLwEvAS8BLwEvAS8BLwEvAS8BLwEvAS8BLwEvAS8BLwEvAS8BLwEvAS8BLwEtjCEvj/Az7Fhq+IycvqAAAAAElFTkSuQmCC;" vertex="1" parent="1">
          <mxGeometry x="450" y="222.25" width="85.15" height="56.5" as="geometry" />
        </mxCell>
        <mxCell id="VC3NsQKQv-s5LEQHh1L6-2" value="" style="shape=image;verticalLabelPosition=bottom;labelBackgroundColor=default;verticalAlign=top;aspect=fixed;imageAspect=0;image=data:image/png,iVBORw0KGgoAAAANSUhEUgAAAgAAAAIACAYAAAD0eNT6AAAABHNCSVQICAgIfAhkiAAAAAlwSFlzAAAOxAAADsQBlSsOGwAAABl0RVh0U29mdHdhcmUAd3d3Lmlua3NjYXBlLm9yZ5vuPBoAACAASURBVHic7d15kCRnfebx582ss++evo/puTVIIyQBuhYEFuaSDDbGWGCMAUOE2TDsetcbG76wjQzCV7BejgAv67UJBOsDGeMwBmEbAYtAgA5z6NYgaWakubpnevru6q6qfPeP0YjRqGemuyor3zy+nwgITU9Xvj9Vt/J9KvP3vikBAAAAAAAAAAAAAAAAAAAAAAAAAAAAAAAAAAAAAAAAAAAAAAAAAAAAAAAAAAAAAAAAAAAAAAAAAAAAAAAAAAAAAAAAAAAAAAAAAAAAAAAAAAAAAAAAAAAAAAAAAAAAAAAAAAAAAAAAADLKnO8bfu6X3jniebmfMUbXyWqL5A1LtrTRgVZWK/6T+/Z2BNaed0zEm+/l7OYtO+fzhULQwMuXJXNY1u6TzK011b7w+U//r8mwawQAnNtZJ+PX//Kv7fJt/QPW6vWSvDAGm5+f0eEn98laG8bh4IAxRuMTO9TW3hnWIetW9m+Cmvndf/jrj+0P66AAgHPz1/ia+fm3vuu9nrV/K+m5WsdVgvUqFk9eOFhaWgjrkIjYyOgWdXT1hHlIz8hc4nn61Ysvu6py/w/uvCPMgwMA1vaMyf2n3/nOtlIl/ylJP9/KQQ8f3K+52elWDoEW6B8YUd/AcKuH+fRCt/crt370oyutHggAsuz0S/umVMn9lVo8+UvS0OiESuX2Vg+DEHV29UYx+UvSWzpmg7+IYiAAyLKnbwHc8LZ3/4Fk3h3FoMYYdXZ2a252RkFQj2JINKHc1qGx8e0yJrL+zUsvvuyqRW4HAEDrGEm64Zd+dbc87z5JuSgHr1SWdGDfXtmgkWZyRKFQLGli6y75fqS/GpK0GuSCCz/3V3/+WNQDA0AWnLwF4Js/VsSTvySVSm0aGZ2Ielisk+/7Gt+8zcXkL0kFr+bd6GJgAMgC83O/+O4tfk6PK8Ru/42amjyk6WNHXQ2PNXjGaHzrLpXd9mrU5Xsjt3zyo1MuiwCANPJyeb1WDid/SRoYHFVnV6/LEnCGodEJ15O/JPk2sK9xXQQApJFnrV7lughJGh6dULFUdl0GdDKQdXVvcl2GJMmTvd51DQCQRp6k7a6LkCTP8zS+ebv8nJP7zXhKd0+fNvUPuS7jaTbQVtc1AEAaeZJGXBdxSi5f0Nj4NhmPxwW40NbeoaGRcddlPJPRqOsSACCNPEndros4XbmtQ0MjrAyIWqFQemqtfyiPfQgTzSEA0AKxO9tLUnf3JvVuGnRdRmb4uZw2b9khz1/r0RAAgDSKZQCQpMHhMbV3drkuI/WM8TS+eYdy+YLrUgAAEYptAJCk0bGtKjz1BEGEzxijkfEtKpXbXJcCAIhYrAOA5/ka37xDPpemW2JgcEydnaE+2hcAkBCxDgCSlC8UNDK+VY73Kkqdnt5+9fYNuC4DAOBI7AOAJLW3d2loeMx1GanR0dEVv+V+AIBIJSIASFLPpgH19Pa7LiPxSqU2rqgAAJITACRpaGSzOru4Z92oQqGosYnt8jx6KgAg6xIVACRpZGyrunv6XJeROOW2Nm3etku5XN51KQCAGEjcxvvGmJMPDiqXNXX0kGwQuC4p9no29WtgaFye4bI/AOCkxAWAU3p7B9Te3qWpowe1MD/rupxYKpXLGhwcV7m9w3UpAICYSWwAkJ66p715u1Yqyzpx4pgW5mZUr9dcl+WUZ4zaO7rV1dunjg52UgQArC3RAeCUYqms4ZHN0shmLS8vqrK8rOrqsmq1uoKgLlnXFbaO53vyfF/5fFGlUlltbR0yXuJaOwAAEUtFADhdudyucrnddRkAAMQaHxUBAMig1F0BQLpY45ee854fftvF2H6+53vyi3MuxgaQPdbTsme1GFhz3PfNY9YGD933nqGjrRqPAIBYszJeUF242sXYXr77alZOAoiKsSdb1oyxCoKTzWt7bjo6KZmvWWu/ljf+P//gd/sPhjUeAQAAgPgalOwbjdEba6rX99x09DYZ+6lS/9At9/xHU23mwPQAAACQDL6kV8qa/1uZmty756aj79r5kb3FRg9GAAAAIHm2SPpYca7r/os+MHl9IwcgAAAAkFw7jLVf2nPT0b/eeePxDe3+RgAAACD53lTM1f79wg9MPX+9LyAAAACQDjs8G9yx56ajr1/PNxMAAABIj6Kkv91z0+TbzveNBAAAANIlJ9m/uugDk2841zcRAAAASB/PWHvzng8cfulZvyHKagAAQGSKst7f7/njQxNr/SUBAACA9Nqkqv+Za2+0z9r5lwAAAECaGb14Mj/5X878MgEAAICUM1bvveTG4+Onf40AAABA+nXW/Nofnf4FAgAAABlgjN504fsnd536MwEAAIBs8D2j3zj1BwIAAACZYd/8gj+e7pYIAAAAZEm5Uq+9TiIAAACQLda+SSIAAACQNS/ZeuPjJQIAAADZUurwS1cTAAAAyBhrfAIAAADZY3c/6+EAUTDGqNzerkKhKM/3JeuiCqxXPairulLR8tKSrOWHBQCJZxV9ACiVyurp75fvO8keaFRnl7rqNU1PTWl1peK6GgBAM4xGI70FUCyV1Tc0xOSfUL6fU//QsArFoutSAADN6YwwABj19vVLMtENidAZY9S7qd91GQCA5kQXAIrlkvwcn/zTIFcocBUAAJItH1kAKBSYMNIkz88TABItsgBgDJf+08TzWEEKAEnGWRwAgAwiAAAAkEEEAAAAMogAAABABhEAAADIIAIAAAAZRAAAACCDCAAAAGQQAQAAgAwiAAAAkEEEAAAAMogAAABABhEAAADIIAIAAAAZFGEAsNENBQAAzimyAFCv16MaChGo12uuSwAANCGyAFBZXo5qKLSYtdLKcsV1GQCAJkR3BaBW09LCQlTDoYUWF+a4AgAACRdpE+Ds9HGtrqxEOSRCtlJZ1tyJaddlAACaFGkACGygY0cPa35mRkFAT0CS1Ot1zc2c0PHJI7KWhk4ASLpc1ANaazU3e0JzszPK5XMyhpWIcWeDumo1LvkDQJpEHgB+zKpWrbobHgCADOPjNwAAGUQAAAAggwgAAABkEAEAAIAMIgAAAJBBBAAAADKIAAAAQAYRAAAAyCACAAAAGUQAAAAggwgAAABkEAEAAIAMIgAAAJBBBAAAADKIAAAAQAYRAAAAyCACAAAAGUQAAAAggwgAAABkEAEAAIAMIgAAAJBBBAAAADKIAAAAQAYRAAAAyCACAAAAGUQAAAAggwgAAABkUM7NsEalclmFQlGe70vGTRVYByvVg5qqlRVVKpWTXwAAJF7kAaBQKKp3YFC5nKPsgcZ0S9Xqqk4cm1J1ddV1NQCAJkV6C6BQKKp/eITJP6Hy+YL6h0eUzxdclwIAaFKEAcCot29AxnC9P8k846m3v1/ctwGAZIssABRLReUK+aiGQwvlC0XlC1wFAIAkiywAFArFqIZCBIpFfp4AkGSRBQDjseIwTfh5AkCycRYHACCDCAAAAGQQAQAAgAwiAAAAkEEEAAAAMogAAABABhEAAADIIAIAAAAZRAAAACCDCAAAAGQQAQAAgAwiAAAAkEEEAAAAMogAAABABhEA0BhrXVcAAGhCZAGgXq9HNRQiUA8C1yUAAJoQWQBYqVSiGgoRWKksuS4BANCEyAJArbqq5SUmjTRYWlhQvcYVHQBIskh7AGaOT6m2Wo1ySISsurKqmRPHXZcBAGhSpAEgCAJNHj2kxfk5WZrIEsUGgebnZjV19JAs9/8BIPFyUQ9og0Az08c1e2Ja+UJBxpioS8AGWWtVXV0ltAFAikQeAE6x1mp1ZcXV8AAAZBr7AAAAkEEEAAAAMogAAABABhEAAADIIAIAAAAZRAAAACCDCAAAAGQQAQAAgAwiAAAAkEEEAAAAMogAAABABhEAAADIIAIAAAAZRAAAACCDCAAAAGQQAQAAgAwiAAAAkEEEAAAAMogAAABABhEAAADIIAIAAAAZRAAAACCDCAAAAGQQAQAAgAwiAAAAkEEEAAAAMogAAABABhEAAADIIAIAAAAZRAAAACCDCAAAAGQQAQAAgAwiAAAAkEEEAAAAMogAAABABhEAAADIIAIAAAAZRAAAACCDCAAAAGQQAQAAgAwiAAAAkEEEAAAAMogAAABABhEAAADIIAIAAAAZRAAAACCDCAAAAGQQAQAAgAwiAAAAkEEEAAAAMogAAABABhEAAADIIAIAAAAZRAAAACCDCAAAAGQQAQAAgAwiAAAAkEEEAAAAMogAAABABhEAAADIIAIAAAAZRAAAACCDCAAAAGQQAQAAgAwiAAAAkEEEAAAAMogAAABABhEAAADIIAIAAAAZRAAAACCDCAAAAGQQAQAAgAwiAAAAkEEEAAAAMogAAABABhEAAADIIAIAAAAZRAAAACCDCAAAAGQQAQAAgAwiAAAAkEEEAAAAMsibOXHMdQ3AWc2emHRdAgCkkjd55EktLy24rgN4lqXFeR078qTrMgAglTxrrQ49uU+1WtV1LcDTqtVVHTq4T1bWdSkAkEqeJNVqVR168jHZgJMt3Aus1aEnHle9VnNdCgCk1tNNgMtLSzp65IDLWgBJ0tHDT6hSWXJdBgCkWu70P8zOTKtUbldPb7+rehIhr7q2Fo5pPD+jwdy8SqaqolfTSpDTclDQ4VqXDtZ6tb+6SXXLQouNmD4+pbmZ467LAIDUy535hckjT6pYLKnc1uGintgqm6qubntML2x7VM8pHlHRnP/y9HJQ0H0rI/rW0k7dtbxVVetHUGlyLS3Oa+roQddlAEAmPCsAnGoK3LJ9t3K5vIuaYqXbX9ZrOu7VKzvvV9lsrFGy7K3qivJ+XVHer/l6SV9cuFi3Llys5aDQomqT61TTn2j6A4BIPCsASD9uCtw8cYGMZ6KuKRaMrK7rvF9v7L5bbWa16eN1+hX9Qvfduq7jAX165mrdvrQzhCrTgaY/AIjeWW9QZ7kpsMtb1u8MfFlv77kjlMn/dD3+kv5z31f13/v/Ve3eSqjHTiqa/gAgeufsUJudmVbWdgrcnD+hPxn6B11aeqKl41xZ3qf3D/6T+vzFlo4TdzT9AYAb521Rz9JOgdsKx/QHg19QXy6aSXk8f0I3Df2jBnPzkYwXNzT9AYA75w0AWdkpcCg3p9/p/7I6vEqk4/b5i3rPwJfU5S1HOq5rNP0BgFvrWqSe9p0C86au/9b3FXX7bu5Dj+Rm9ev9t8nLyGRI0x8AuLfuXWrS3BT4S93f1baC216HPcVDek3nD53WEBWa/gDAvQ1tU5fGpsDthWN6Vef9rsuQJN3QfY8G/HT3W9D0BwDxsOF9atPWFPiWnu/E5tJ70dT0hp67XJfRMjT9AUB8bDgApKkpcHfxqPYUD7ku4xmuKT+qIT99qwJo+gOAeGnoSTVpaQp8ZccDrkt4Ft8E+snOh1yXESqa/gAgfhp+VF3SmwJLXlVXlve5LmNNL2l7RGnagHny0AGa/gAgZpp6Vm2SmwL3FA+puMGH+0Slz1/URH7adRmhmD4+pdnZdPy7AECaNP2w+qQ2BV5UPOK6hHPaU0p+sxxNfwAQX00HgKQ2BW7Jx3sp2paEXwGg6Q8A4q3pACAlsylwJD/juoRzGsnNui6hYTT9AUD8hRIApOQ1BXbF/FG8SX42AE1/ABB/oQUAKTlNgUZWhZg2AJ5S9uJd39nQ9AcAyRBqAJCS0RRoZRTY0P/VQ1UP/0fTcjT9AUByhD7LJKUpcEU51yWc03KQd13ChtD0BwDJ0pKPmUloCpyutbsu4Zym6x2uS1g3mv4AIHladp057k2Bh6vdrks4p0Mxr+90NP0BQPK09Ebz7My0ZmPaFPij6oDrEs7p0ZjXd8qJ45M0/QFAArW80+xoTJsC76uMui7hnO6rjLku4byWFuc1eTReT1MEAKxPyzvhTjUFbtm+W7lcfBrbfrQ6qOP1dvX5i65LeZa9K4Oarre5LuOcomz663/iiy0fYy2FrlEV490rCgANi+T0dqopcPPEBTJePJ5zZ2V0++Iu/WzX912X8izfWN7luoRzirrprzy3N5JxzpTPVdVp4hcQASAMkS02j2NT4L8s7lHN+q7LeIaFoKRvLFzguoxzoukPAJIv0t1mZmemNTMTn4fwHK+16+tL8Zps/3n+Yi3b+NwqOdOJaZr+ACANIt9uburIk6rVVqMe9qz+ZuYKzQcl12VIkqZqHfri/CWuyziranVVxyYPuy4DABCCyANAEASaPBKf7WLng5I+PXO16zJkZfSJEy/Rio1v19nRI08oCALXZQAAQuBkw/mF+VnV6/HZNe7rixfo/y25bbz7/Nzz9MPKuNMazqVWq2ppYd51GQCAkDgJANZaLSzMuRj6rD4x/RJnE/BdS1v12dkXOBl7vRbmZ2VtfLd2BgBsjLNHzi0vxmtzoJr19WfHXq6HV4YiHfee5Ql96PjLFCgeyyPPZilmPy8AQHOcBYCV5fgtI1uyBd009WrdtbwlkvG+snihPnj8laoqXksR17LCsj8ASBVnAaCyUpG18WsoW7E5ffDYq/TpmatatkdAJcjrY9PX6n9Pv1h16+xHsG5Bva7V1RXXZQAAQuSw5dxqpVJRqRy/LW+tpC/MX6p7Klv1jp5v6ZLSk6Ed9zvL23XzzH/Q8Zg/jvh0bPoDAOnjdM1ZpbIUywBwyqFqt26a+ildWDys13b9QJeVnpDXwN73NevrrsoWfX72edpX7WtBpa1VqSy7LgEAEDK3AWB5Sep1WcH6PLgyogenRtTrL+nq8mO6pPSknlM8qnbv7JfFZ+ttenBlSD+sjOs7y9u0EJPNhhpRiWG/BgCgOU4DQBwbAc/lRL1Nty5crFsXLpYkdfvLGvLnVPaqavNWtRAUtBQUdbTWmegJ/0w0AAJA+ri9AvBUI6Ax8W+EW8tsvazZetl1GS1FAyAApJPjmfdkIyDiiwZAAEgn5x+9mWDijQZAAEgn9wEgYX0AWcPPBwDSyXkASFojYNbQAAgA6eQ8AMR1R0DQAAgAaeY8ANAIGF/0ZwBAesUgADDRxBUNgACQXvEIAPQBxBI/FwBIr1gEABoB44kGQABIr1gEABoB44cGQABIN6dbAf9YfB8NnFX0ZSAsnic9Z9ucLr/ouC7YMqehvoraSnVJ0tJyTkeOF/XI/m7ddf8mPbK/SwGfBYBIxCQAxP/RwFlDAyCaVSzU9ZqXHNJPXXNQne21Nb+nu3NV3Z2r2r11Xj/9E09qdiGvL90+qi/dPqaVaiwuUAKpFZ8AkJBHA2cFDYBoxk9cPqk3/9Q+9XSubuh13R1Vven6/XrVCw/rM1/cpm9+b6BFFQKITQCgETBeaABEIzxPetN1+/Talz7Z1HE2da/q137xYV20Y1Z/+fkdqtdNSBUCOCU2ASDpjwZOExoA0YicH+g33/6gLt19IrRjvvyqI+rtWtUHP3UhIQAIWYxmW3YEjAsaANGId7zusVAn/1NecOG0fuXnHg39uEDWxSgAMPHEBQ2A2Kjrrzmkl191pGXH/8krj7T0+EAWxSsA0AcQC/wcsBHdHVX9wnX7Wz7Om1+9T51t1ZaPA2RFrAIAjYDxQAMgNuKGVx5QuVhv+Tjt5Zpe97LmmgsB/FhsmgAlGgHjgAZAbERXe1UvuzK6S/OvetFhfe62zVpcitWpCxtg81J9q1FtzChoN5Jn5S1I/mGr3D7JVGyo4wVdUm2bp/qQZEtGZlUyc1a5J07+L2xBt1Ftm1QfNE+P581Z5Q5Y+U+GP14zYvZfETsCukYfBjbi8j3H5fvRndTyfqDn7z6h29kfIJFq24xWLvdky6d/1SjolWqbjVafJxW+Fyj/UAi/Uzlp5QpP1Z1GOnMByaBRbaeRd8Kq9E0r70QI4/lS5UpPtV3PXq1SHzSq7jTypqXSt4JwxgtB7D5qMwG5RQMgNuKKPdORj3n5nuORj4nmrV7sqXLNmZP/M9m8tHKlp5WrmlzymTdafqWv6q41Jv/TBL1Gy9d7qo80N5zNS0vX+WtO/s8Yb5O0fJ2n+lA8lrTGLwDQB+AU7z824sLts5GPedGO6MdEc+qbjVafd+7J+HTV3Z6quxufniovMqr3r+97bU6q/IQv297wcKpc4ynoW+d4ealyrdfUeGGJXQCgEdAtGgCxXt2dq08/1CfScTuqai+v/WwBxJB38lL8eif/U1YvM7KFjQ9XHzaqTWxsMFuQVi5rbDqsjxrVN29wvKK0eqn76dd9BWfg0cDu0ACIjegoRz/5/3hsAkBS1EeNgo6Nv84WT/YMbFR1d2OX1+vbjGxx46+rXtDYeLXtRmog4IQpdgGAHQHdof8CG+F77oK6n4tHExXOrzbc+P3u+sjGX9vIayTJeieb9aIcrzbgthcghgGAicgVGgCxEcsr7hYRLVditoAJZ9XMvW7btsFL6zk1dNvg6de3b3BCzhvZfDPjNf7aMMQzANAH4ATvOzZieq7g5AE9q1VPM/MEgMRo5kLRBl9rAknNXBwKNvhi29yVKOP4QlYsAwCNgG7QAIiNqNeNDhyO/iPMvkPtsjYey6hwfmax8dd6CxucIQPJa+IOsrewwRfUJNPEhVMz3/hrwxDLAEAjYPRoAEQj7n5gU+Rj3nX/OtdbIRZyBxs/l/sHN/4RudHd9kxV8o5u/LW5BmqUJFWt/Em3lwBiGQBoBIwefRdohIvJ+O77ow8daJw/KfnHNj7RmUU1tFVv/sHGAkfuYSvTwMKW/IONTeL5h9Xc7ZEQxDQAMCFFjQZANGLfoXbtPdAZ2XgPPNqlg5NsFZ4oVircGWx4ci19N5AaWO3pzUj5BzY2KXtzVsX7GpuNvRN2wyHAm5MK97q/yh3fAEAfQKR4v9Goz3xxayTjWCv99a3bIhkL4fKPScXb1xkCrFS8s7kH5xTvCZR7fH2vN4tS6auBtNrwcCfH27/O8Rak0tcCmRg82Tq2AYBGwGjRAIhGPfhYt+68r/W3Au74wYAe2R/d1QaEK3fAqvzluryps0+U3oxU/rdA+Yea/HRspdI3AxXvDGTO1tpkpdzjVm1frMuba244BVLpG4GKdwUy5wgS+ceeGm82HvtYxHYtDY8Gjg4NgGjWn9+yS5uHlzTS35pbSQcn2/QXn9vZkmMjOt5xqe3Lger95sc7BHqSt2jlH7byj6i5ZXyns1L+Iav8o4Fqo1IwZBSUnmr2m7Xyn7DywuzCtyf7AfI/ClQbk4LBk+Op+tRtiSeszEZXNbRYbAMAjwaODv0WaNbiUk5/+skLddN/+mHo+/QvLOf1J5+8SEsVP9TjwhEr+VNW/jmuBISqapXbL2mdl+hDGW+fpH3xmuzXEuuP10xM0aABEGE4ONmm3//4JZqcLoV2zKPHy3rvx56rI8fCOyaAk+IdAOgDiATvM8LyxJE2/fZHLtN9P+pp+ljff7hXv/3hS/TEUa4CAq0Q41sANAJGhQZAhGl+Maf3feJiPXfXjN72M49rYnhjW8EdnGzTZ/91Qt/+wTof6A6gIbEOADQCth4NgGiVe/f26Dc/dJmet3taV+yZ1gv2TKurfe21T7PzBd394Cbdfd8mfe/hTQrcL5EGUi/WAYBGwNajzwKtVK8b3f1An+5+oE/e56ShTcsa7l9WuViXldFyxdeR42UdPV5kf38gYjEPACcnKAJA69AAiKgEgXT4WFmHj5VdlwJAMW8ClGhQazXeXwDIptgHABoBW4sGQADIHisT/wDAo4FbhwZAAMgma/I29gGARwO3Dg2AAJBNgZcPEhAAmKhahQZAAMimul+qJiMA0AfQEryvAJBN9VzHdCICAI2ArUEDIABkU90r709EAKARMHw0AAJAdtW80t2JCAA0AoaPvgoAyChjZP32/5OQAMCEFTYaAAEgm1bzvSu3ffgXf5icAEAfQKh4PwEgmyqF4TulBOwEeAqNgOGiARAAsqmW6/pDKUEBgEbA8NAACADZtFIcnr/tI2/5spSgAEAjYHjopwCAbFoqj33k1D8nKAAwcYWFBkAAyJ7VwqaV2qZtN576c7ICAH0AoeB9BIDsWWjb+YGv3/jS2qk/JyoA0AgYDhoAASBbFstbDt72kbe9//SvJSoA0AjYPBoAASBb6l7RLpeGX3/m1xMVAGgEbB59FACQIcZovvviP/3ah9/63TP/KmEBgAmsWTQAAkB2zLVfcNe/ffgdv7XW3yUvANAH0BTePwDIhqW2rQdWBp/7wrP9feICAI2AzaEBEADSb7k0fmzR27Ln9K7/MyUuANAI2DgaAAEg/ZbathxaaBve9fWPv2HhXN+XuABAI2Dj6J8AgBQzRvMdz/nO4vAVW77+obfPnO/bc1HUFLZKZUmlcpvrMhKHBkAASKe6V7JzPRe/7ysfevuN631NMgPA8pLU67qK5KEBEADSZ7Ft2/6l0sjPfv1Db/7+Rl6XyABAI2BjaAAEgPSoFAYXl8pb3nvbR3/5fzTy+kQGgFONgMYksIXBERoAASD5rIwqpZHp5dLIB2/7yDv+qJljJTIAnGoEpA9g/WgABICEMp4qhYH51UL/Hau5jveutatfIxIaAGgE3KgkNwBav+hk3MDkbd1zM3ZDrJVqS8Z1GamUb7MSby1ay/rFemBydWsKqzW//UjdLz1Wz5e/s9KW+8Ttf/iWw2GPl9wAQCPghiS5AfCr//RpzrzrcPnlL7x4cXXlXtd1pFFbvnvXPfd89VHXdQBhSuxNdBoBN4YGQADA6RIbANgRcP1oAAQAnCmxAYAdAdePBkAAwJkSHACY2NYryQ2AAIDWSHYAoA9gXXifAABnSnQAoBFwfWgABACcKdEBgEbA86MBEACwlkQHABoBz48+CQDAWhIeAJjgzocGQADAWpIfAOgDOCfeHwDAWhIfAGgEPDcaAAEAa0l8AKAR8OxoAAQAnE3iAwCNgGdHfwQA4GxSEACY6M6GBkAAwNmkIwDQB7Am3hcAwNmkIgCs8El3TSsrvC8AgLXlXBcQhmpt1XUJsVSr8r5kHTGd4gAAC85JREFUibVtc6VyKv6Tjh0vCBZd1wCELRVniyCouy4hdqy1CgJWR2RJLmdXbL7guoxU8us+aRqpk4pbADk/FTkmVMYY+b7vugwAQEylIgDkCyXXJcQS7wsA4GxSEQA6OrtclxBLHR28LwCAtSU+AHjGqKt7k+syYqm7d5Mk47oMAEAMJT4A9A2MyKcHYE25XEF9/UOuywAAxFCiA0C5rUObmODOqW9gSKVy2XUZAICYSWwAyOcLGt281XUZsWeMp7HxHcqzPAwAcJpEBgDfz2l8y07l/LzrUhIhl89rfGKHPJYFAgCekrgAYIyn0fFtKhSKrktJlEKxpPHx7TIeTYEAgAQGgOHRCbW1d7guI5HK7R0aHtniugwAQAwkKgAMDI2qq7vXdRmJ1tXdq/6BEddlAAAcS0wA6Ont16Y+Ov7D0DcwrJ7eftdlAAAcSkQAaO/s0tDIuOsyUmVweFxtHZ2uywAAOBL7AFAqlzU6tlXsaBcuY4zGxrerWGKPAADIolgHgHy+oLGJHfI8lq+1gud5Gt/MHgEAkEWxDQC+n9P4xA7W+rcYewQAQDbFMgCcXOu/VYUij7ONwtN7BJhY/joAAFoglmf84dHNamunQS1K5fYODY9udl0GACAisQsAA0NjPN7Xka7uTeobGHZdBgAgArEKAD09fdrUN+i6jEzrHxhRNwEMAFIvNgGgo6NLQ1yCjoWh0Qn2CACAlItFACiVyxoZ3ybW+sfDqT0CSkX2CACAtHIeAPL5gsY275DnOS8Fp/E8T2MTO5TPswwTANLI6azr+b7GJnYol2OSiaOTewTsZI8AAEghZwHAGE9j49tUZK1/rBWKJY2xRwAApI6zszpr/ZOjrb2DhzEBQMo4CQD9g6Os9U+Y7p4+9fWzRwAApEXkAaCnp099/UNRD4sQ9A+yRwAApEWkAYC1/sk3NDqhdm7dAEDiRRYAWOufDsYYjW7exh4BAJBwkQQA1vqni+f57BEAAAnX8hnZ832Nbd7OWv+UyeXzGmOPAABIrJYGgKfX+pe4XJxGRfYIAIDEaumZm7X+6cceAQCQTC0LAAOs9c+M7p4+9Q2wRwAAJElLAkB3b582sdY/U/oHRtTdQ+ADgKTIhX3A9o4uDY+w1j+LhkYmVKtWtbg477qUTKrVbEe1vuy6jFRqz9PIhPQJNQCUSm0aZa1/Zp3aI+DAvr1aqTARRc2YSrm6uuK6jFRatSWeWobUCe0WQC5X0NjENtb6Z5zn+RpnjwAAiL1QZuuTJ/3tyuUKYRwOCZfLsUcAAMRd0wHAGKOxzaz1xzMViyWNjm0Vt4MAIJ6aDgDDoxOs9cea2ju6NMzDnwAglpoKAKz1x/mwRwAAxFPDqwC6e9yu9fc8X6VySX6IfQerKxWtrlRkrQ3tmGdjPKNiqax8vhjaMWu1qlaWlxQEQWjHDEP/wIiq1VXNzUy7LgUA8JSGAoDLS7vdff3asnOXevsH5HnhN5lVV1c1deSQ9u99WJWlpdCP39bRqS27LlD/0IhyLeiUr9frmp46qgN7H9HczInQj9+o4ZEJ1as1LS7OuS4FAKAGAoCrtf7GeLrgkks1OrG1pePkCwWNTmzV8PiEHrn3+zp8YH9oxx7ftkM7L3qujNe69873fQ0Mj6p/aERPPPYjPfbg/ZFc0Tifk3sEbGWPAACIiQ31AJxc3hX9Wn9jjC56/uUtn/xP53mennPp80Mbc2LHLu26+JKWTv6nM8ZoYscuXXDJZZGMtx6n9ghguSgAuLfumdzlyXt0YqsGR8ciH1eSLrjkUrV1NLfKoat3k3ZcdHFIFW2My/duLblcXuMT29kjAAAcW1cAOHX51sVaf2M8bd39nMjHPX38bbsvbOoY2xzWL0nbL9wjY+KzHr9YKrNHAAA4tq4AMDwyofb2rlbXsqbe/gEVim634e4fHlEu11jDXr5QVG//YMgVbUy5rV2d3T1OazgTewQAgFvnbQLsHxxRl8PHvHZ2dzsb+xTP89TW2am5ExtfxtbZ3ROLT9+dPb2xWhUgnVxKWl1d0fFjR12XEgVzxYteepHk7zGetsiqXVK4ydaquy1Pf0UreJ759SuveflCyIddNlaL1pj9xgT3f/f22x6U5L5jF5lxzgDQ3dOnvn63m7jkCvE4oRUarCM+9Ye330CY+gdHVa1VU7tHwOUvfsWLPGvfIelnJPVLat0p3ki+H/oTvnHSu1txUGskycpaoyuvefmklf7RmuAv7779q3e2YjzgdGc9W8TlEm2tWnVdgqST+wM0otbg68LWaP1RSOMeAVdf88qrAgUflLXXuK4FiTFopHca673zymte9vl63f+de779rw+5LgrptWYPQJyatBbm3U8K1gZaXJhv6LWL83OxWIc/Pz/ruoSzctlkGrYbbrjBv/KaV/xJoOAOSUz+aJB5ne8H91714le8T3E4ESOVnhUA4rZM68TUpPOrANNTUw3XsFJZdn7vfaVS0dz0cac1nE8a9gi49tprO/YfOvE5yf6GQnrUNjItZ639vSuvefkXrrrqejdd2Ei1Z5yk4ngSDup1HfjRI87Gt9Zq38MPNnWMZl/frH17H4rFVYjzcbXRVBiuvfbajqVq7hsyeq3rWpA6r7b56m2EAITt6TNtnC/DHnhsr04cm3Iy9v5HHm76E/z01KSeeOxHIVW0MceOHNahfY87GbsRrraabs6N3lLNv1lGz3NdCVLrcpuvfla6MXnpGLH19C/TkMO1/udjA6t77/qOjk8eiW5Ma/X4Iw9q395wenAefeA+HXh0byjHWq/JQwf1wL/fFemYYWjv6NLwiPsG1PW68ppv/p5kXue6DqTeq6588bd+y3URSA9zyeUvtP0DI4l5Zvvw2GZN7LpA7Z2tCSs2sDpxbEqPP/JgQ+v+z6enr19bd1+onk19LdsfYH72hPbvfURThw+15PhRmZo8pBPTU/rBnd+M7eWAq178sousNd+XFP6jHYFnq/h1/7nf/va/uLmkiFTJdff0JWbyl6QjB5/QkYNPqNTWpnJbu/IhrbO31mp1ZUVL83OqtrDpcOb4MX3/jtuVLxTU3tmpfKGksHLA6uqqlhcXtLKcjqftDQyOql6r11zXcS7W6iYx+SM6pbpf/wNJb3ZdCJLP3PDWd9lk3W9FttilW27+eLvrKtZy1UtescsG9iHR8Y9o1evS9nu++ZUDrgtBsnlM/oi3GP9+BvatYvJH9PyctVwBQNM4eQENslavdl0DMsoYfvfQNAIA0IAXvehFnTK61HUdyCYrXbnz+uvj+YAPJAYBAGhAVW27xX8/cCffO1fZ6boIJBsnMKABnjTqugZkmyeP30E0hQAANMB6QZvrGpBtgUyn6xqQbAQAoAFBoHg8LQuZZYzhdxBNIQAAAJBBnqQZ10UA5xD+fswAAHkySvaG8Ug7fj8BoAU8We1zXQRwNlb8fgJAK3iSvdV1EcDZeNKXXNcAAGnkSfl/kmRdFwKsoW59jwAAAC3g3XLzhw9I5vOuCwHOZKXP3PLJj065rgMA0sg7+X/2tyVVHdcCnK5ilPt910UAQFp5kvR3N3/sESv7AdfFAKd5z8mrUwCAVnh6I6C/v/nj75Ps37ksBnjKp2+5+WN/5roIAEiz03cCtFouvt0Y3eKsGmSelT610O39ius6ACDtcqf/4ZZb/ueypDe+4a3vutfK/K6kgpuykEEVSe/5+6R88jfmqOsSkHE2OOK6BCTbWs8CsJ+9+ePv94x30VO3BIKoi0Km1I01N0u53Um67B8sl++Q9LjrOpBZj7Tl63e5LgLJZs73DTf88ruGTV0/bY13naQtkkYlW2p9aUipZVkdNJ72BTK3Gs/8c1KX+l31klfsstZ+SFZX6IyraUCL1CT7HSvzX+/65lcec10MAAAAAAAAAAAAAAAAAAAAAAAAAAAAAAAAAAAAAAAAAAAAAAAAAAAAAAAAAAAAAAAAAAAAAAAAAAAAAAAAAAAAAAAAAAAAAAAAAAAAAAAAAAAAAAAAAAAAAAAAAAAAAAAAAAAAAAAAAABIpP8Pgeo9u+f6/ZwAAAAASUVORK5CYII=;" vertex="1" parent="1">
          <mxGeometry x="40" y="185" width="82" height="82" as="geometry" />
        </mxCell>
        <mxCell id="VC3NsQKQv-s5LEQHh1L6-3" value="" style="shape=image;verticalLabelPosition=bottom;labelBackgroundColor=default;verticalAlign=top;aspect=fixed;imageAspect=0;image=data:image/png,iVBORw0KGgoAAAANSUhEUgAAAOMAAABnCAYAAADyr/WCAAAAAXNSR0IArs4c6QAAAARnQU1BAACxjwv8YQUAAAAJcEhZcwAACxMAAAsTAQCanBgAAB7JSURBVHhe7Z2Jl1XFncfzFyTOkpnMZBaTTA5qJmrGiesYTYzGuCAuiKITjRmjkLixuSQRVFBZm2Zr6GZplmbflLWbvWmWZpdFFhuhm2aVTQgYdObU1O9XVfdW1f3d7b37mgaqzvkcenn33rpVv8/71r3vPfprhWpXthveqsXzpXuvaFfGHI6LgJNXPF/WX5b3hdNaPFdyOZzA1S+Ws2eH17JXp25nPRc0OhwXJK9M2Mxufm0SStmifenTsswvjNaiXWk5dLwDP4leCxsdjgue7vP2YrjAak+WefNvKhV/+uZ01nvhfoejSXhpwhaPP31QRz4mX9oOXHphpaNKxY58UKgTcjiy5uVx61i/2Rs8uk1eze59fw57ZvgaTDRqm1zoMa/+wklHPRX7LNrvcDQJC7YfZ1Rbtesg6zC6mt3baz5rN2YDuW1aLph09FJx4hbyRByOQjGm9gjbeuAMO/vl/0oV/Xbq7Dk2ZdUu9sSASnZ/34Xs1WnbyX0k4d35Kh3Llsqyb35NT8W+iw84CkDXWbtZ+7EbWeuByxwRDF64g62u+0yqaLbGY6fZiEVb2X0957Anh65k71bWk2MdxSP9Fop0fK7sdln+zaupVOw8aQvrxzvsyJbXp+/AayFYejmSAeJFtW37jrF2ZYtZh4lbyTEP4+3Zu4WMzTEdr3lp1GXQuVten8T6LeEddmRO+aoDsoRcy7pNrG0gxzyKlj3nNc90bNGurBt0rN2oNayIdzRL3uLPQg/0W8Ru+tMM5FG+DHm/qp587MXMkOWH2Ko9p9m+E+ccKdjWeFIqR7cv+DXmiFWHyTGP4u05zTAdZSqe/HGnCtZ/ycFM6FnVwJ4duZav6+firWp9uQFf9678lNzO4VB0nLSVPdx3Hi5Xw9q6+lOsZPlhcvskPNBzfvNKRy8Vy9ey/kt5J/Og4+St7O6elXg7unJTvRwys8Ez2cjVR8jtHQ6g7eBleJMmrB36/ByrWHeU3DYN78z5tPmko56KxbxzufA2P6E2g6rxWQwGEG5DUw0GsGrHSTa05jC5H4dDEXYnFV72WFZ3itwmV1r1aibpqFKxPU/F4mW8cyl4dtRadn+fSrxDCHe1qHbmL1+x6l1HWY+5O1mnKVsdKei1oIEc90uB2VtPsEOnzCf1LQf+zIau4E/kxOPzoftckY5XPF82U2rR9E1PxQHLDiXmjzN3sceLF+CLsFENrg31tzg50tFlXA3rPGUbOQeXCuW1n7FpHx3Hf6nfZ8UdXafLdCy5XOrRtE2l4u9Gr2UDqw8lprhqp9TNtUK3itUN5Bw4suX1qduEjO1Ky6UeTddUKl7zUjnru2gf2cEwJq0/IkvFtUK2E2e/YhPWHyXn4FICVgePDa5GnitfRz4mC85bOqpU/NWQajaIdyQtM/jS4fiZL2XZBBvcSW3Jryd7zNtDbu9wJKHrzB14OaTekQN1Be+4ebBocea1dd7SUaVi0eJGNnj54ZwYvuoIW98Q/nYluKvafdoa9nTZanJ7hyOOyRvC358K19X395rLnh+9jq/ucq9jnTu6zWjadISPjsABn+KpSHUoLTM3n8AlVViDZ7RuH+wkt3U44li063N22LqzqjeVlvf0qmRvfvgJuY+kvDHt46ZNR/hgJaRi/yWNbEjN4cxY2/BnOTzBNnnjMXIbhyMpUEM7Dn/Bzp4LfsQKmp2W/fiqj9pPHLe+Mblp0tFLxZJqsiP5AgO26/AZHJwvvvw/9umxv7CZW06Qj73UeG/+Hvb4kOWOPPnNiFWsZPEu9unhU1hnVNPTEsadmo8wXhizrmnS0UvFpftZyYojjiak49gVoW+OcK0wDdKyy7gVrNusOnJOwri+cwUKCa86SHWybSoVH+pTyYbyAzqalrrDn8sSca2p24wNB8g5CePFsetlOpZ1k/pk29R/SNxrwV42dCU/aMa8NbuOtS1ZjrwyaTP5mEuZJZ+cYicjbnS5VpgG15gV64+RcxKFTMeTmaejSsWHeSoO4wfKimK+3G3Pn0Xu6vEBvklcvR4Erw29MHYtuY3DkQUd+BN+u7IloR9MgAYfTpj60XFy+zheKlQ6qlTss6Cela78LG/e5il4X+8q1qViBcpHtcqth8ltHY58GLD0AGvVtyr0I3qqrd93htw+DZmno56Kpav4QfLgd2M3sEeKqvAWMlwch7XGk+dY+dqj5D4cjnzoOmVdZBqeOPMlm7XtJLltWl4el3E6qlTsu7CelfEDpKU3T9MnS2rwv8mL+qQGfGh4y8GzbOKG4+R+HI4s2L4//L/h2H7oLBvNQ4DaLhcGLTvA4NWHTNIRPjCJqdi3kpWt5p1MwR9m7mCt+lXh5xWjUvDzL75iy3af5oNwjNyPw5El0zefxJrTGwRB1c5T5OPz5ZlhNdmkI/x3ArCjrh/sYMP5jpPQfe5udlePDzEFo5YD0OB6UX3+zpEd8AQIK5Enh9aQc+Q4ymZwKed8/DkyhgcB9ZgsGFx9MP90VKl451sz2Ijao4noMW83FoNrzaPBmwSoeXI0Lb9R6dg+xz8JoFKxG09F6gAUkzYclWXgWnNp1Dw5mpYhy0U6wv0XqVfyplLxrrdmspG1x1IR9Q551TbuPcr2HD3rKCD7T55jC3edJufI0fTknI4qFd/+cCcbteZYajbvF2/2DmuwfHpi4EJWtHgfub3DcbExtOZQ+nTUU5HaaVIWfXKa/ItAqsHNnR7T17IXKzaS2zscFxut+1WlS0cvFWftZOVrj+XF1M0nYpet8E6I50fVkts7HBcTxUv2CRmTpKNKxRs6V/CNj2fG5gPRy9b1e6Cz9LYOx8VE4nRUqdhpwkY2et3xTFlcdxpfXLUb/Ax+R23jcFxsDFjaGJ+OV7UvvVal4hi+USGAdz/UHT3HDp36CvnowBf4M+qxDsfFyqNx6ej9sdOJG9mY9Xwjh8NREAYuE+l4RbvSTVI/v6k/AX5Dl/Fs7PoTDoejwDxatECk43PWH8xRqdhl4iY2jj/Q4XAUlh6zd8lrR+3PyUEqtuA/hA9Czvr4FJu7QzDPYv5OxWmkUqNql8kCnU9Os4UW8BokUneaLa77c4AlwG7BUotlwKc+1RbL9wBnPGo0VuwNslJRf4atslitaADOslqLNcA+wVqLdUCjz3qLDcD+L5CNBJv49bQOXF8rNh8UfARoP7e3sfepjodY/QG8/lrnAqjzxHPWxkAB46PGyx5HGFtvnDn2HOhzBPjzJ+bTnmN9/u36UHWDWHUFQM159cexa1OvXbuuKwGt7pULyg3bGeUSMGd7kJbvzQIZ/XT8t9+Wbvreb4exUSsa2NDqfax31R6kzwKTvh57Wd+Fe1k/SZFGf2CRT/Giela8uJ4N0FlSzwZqDFrS4DF4qcayBjZEUd3ASiRDNYbx/hos38dKkUZWBtQ0suE6K3xGSEau2M/PnbPSYtV+Vi4ZvVowBjlgUnuAjeWMk1TUHhSsMRkPrD3IJkgmIod81gkmSSavN5miMXWDYAqg/dzeRu0L960fC/H7Av0CKgCr3+PWiPOCcwQC5y8ZDcjxgrFD7DHljOSM4OMNDDfw5wbmDSit4XPJgXn1kHMNtQqUSKBGvHpRaPWkamygh1aHWn1CvULd6nWsUHWuah88MAA3OH2Aqr3oUS9FZZDZW48zcO/7zw07hDJ+79lhDHhxRj1rP6OR3Tdqj8PhKDBPTmhgf5jTiO4BKON3nx3KgB6V+1j76fvYvSN2OxyOAvPE+AZ07rrXpqN/pIz3DK9zOBwFpu34enTu3qIaTcb/4TJyUMZp+9gvS3c5HI4C07ZiDzp3Tz8uI/cPZfwO/wKAX7TjMt49bIfD4SgwbccJGR8eXIv+ETI2sF8M/djhcBSYx8fuRufalKz1Zbz8NyUMUDLeVbLN4XAUmMekjI+WrEH/gjJOrWd3Dt7icDgKTJsxdUEZ/5V/AXSevZ89VVHHftJrRR6sZLdx7hy02eFwRNBm9CcoY2suI/hnyPjQxM/YrT1r2JXth2uMYFf+Tmckuwr4PTDK5IVy9gOP0ewHLyrGsH8HXlKMFbw8lv3w5XEeP3p1GrvujZnIf77xQZA/AB+ym99ZyG7uDiwiua3PqlB+PnCTw9EsaFO+C2W8u1+1JuMzQxgAMv7EkDFrEWkJf/hKhcfVr4xnV3dQTBB0nMCu6TjRp9Mkj2s7TWbXdlZMEXSZwn6ETBW8CkxD/gN4bbrJ6zPYDV3nSeYLus1nN75VyW55dynyX4r3qgOC/6z/OnZH8QaHIxVtyncKGftwGbl/KOO/8C8AU8aEIhoScjwJRydKw0gRUUJNxE6+iNcCnoRSxFQSzkAJr/PgiQzIZL7OSuMAf5zFfmwwm/34T4Lr35zLbny7irMAufmdRVziZR63vr/ckPmnReu40OsdlxiPjvJlBP9CZDQlLLSIadKwIBJqAkZKGCGgYA5yPfCmzlyTrgqVxj438kTGZbgEU/n9agSuyW/rza/JObf3W8MlXuu4gGk9cntQxn/+9RAGeDKmFtGXkFyWoohBCcNEDE/DrCTk4iVNwQQCJpMvKJ4HFzA5lVxYExRXXi/76cvl7b0CgfS9vV+to5nReuTHUsZl6F9Qxl5KxoxETL0slRLmmIaFkTBOwBTykYIJDMn49WohUNLe0mOJkJYDT8DA7X1WO5qQ1iMIGf/p14MZ4MtYWBFjl6U5pKGQ0BLRk1CKGCehIaAtYYSActkZlC9GOkIWAb/ejAKvR1NA7SOAf/yb3uHXud35Ern7YnnTSlznQm2oZbIjfx4ZvhVl/AWXEfwTMj7NZeQIGVekFjH++jAuDXUR49LQlJBMw7wk1AW0JbQFtOXjhMmnFbuAEEIT6CZkQcHRj0n2ye43ngvvGworElZd12LCGq85O6LwZOzNZeT+kTJmKqKUMFxEKg11EfNYkuYsoS6gLaEtYI7ySQEoQQx40QsWZoi2/1D8Pgb6rp+XTHnj/PG8qsSSuAdP1/eW4jXsrT2XOzQeLtsiZVzqy/ht/gXgyZiXiCoNw0SMWZaSaShF1NPQWJIWQkJdQHsJasrn3VTRi1QvXlnUdNFzYmRTd1YFvMAp5LUgQv1e2wd1DBOrfx7yXPRzQ7TztsREtLET48H3xY8Doup3iy81Hi7djDLexWUE/4SMT3EZOb6MuYnoSWiLqKch55rYZWmKNPQk1EXMQcIkKWgUmSi81PIFCl9giKaL1VRowlL9owWV56qfewoxcakvxxp+d+Nb83G/0Be8wQSiXsQ8XPqRkLEXl5H7hzL+41ODGBCQMU8Rc7tbmlUa5iihnYJWMUUJSF7nWUWtCj5ausUmPEEobomB2sbDPgbZD46U1D4PSs5UYmpjDE963vgjfD743MD8wO/VWEM/8Br1IuGhYZtQxju5jOBfuIxJRUx6xzT0+lBJKERMl4Zcvqg0zEhCU0BRGAgpH+AXbbR4UgRNElMoehKzhRA3StIwOa1xCBUzICUQL6U3d3wu8edyjrxr0wuQB4cmkbGpRAxLw1ARqTSU75oJXZJmJaEsKhTQktAqTFo+Wdxa0YcK966OeG9s9mjHoPog+xcU1DovUk5tbDimmNqYhqQlSqktYQNSwpzK+YV5hvmGn+Ncwrzx45j9aZ48WLJRyrjEl/EffjWIAShj75UFFDGPZWlkGlIScnQJPRHzkVArskACWkWK+MVMihchXOAaQ76zJn/M/VLHDpfUP59wOc2CM8aMQ4oZJaUnpC6lnFdCSoGoCRSUb4NzCsdtZjxYst6TEfwLyAgvRp5vESOXpSmXpMklDBNQkzBWQFmgkfKZhe/LBlDyUFSnhNpHCFqfzL7K/hvnJM7Vl9MaD22skEykFPNpLl2FlKaQHF4jYuUknsDhZ9fzx8M+/bk+f5Ayfot/AfgyNo2ISZalQkJKRG3QCyKhXzh6QeE1oFF0shApAS35fPEICTy4PNrtb3x9LpLlEVCPF+jHiJc2iZxSSkpMeymrjW1eUqKQ4UtXgRLSlxLqCZ/g+ffweNiXURtNRKvB64SMPRejf1LGgfybgb6MOYvIJQwVUUlIiRizLEUJpYhhaSglpJek2iDkLKFWXEgKAckClwJIIUxZCLGIF41zhtq/dnxTUqrvIXImElOT0ri2TCOlElKXUs4/mZLiCZwSEu9DeE/8kJ5QS1rtFJAHBq/VZBwoZfxvLiNHlzEgIieJiNfEiUgsS4WIKg0pEVUaUiIqCWPSUJtUmOQkEpIpGCOgkI8S0C9yUrqANDUB1Bu6c4XaZ+C4ep+0vkbK6QkZISaRlr6UnKRSqvkEKb3CFvNuLl1FfRhSBoSUUnpCcrR6xLqD/eB+s6flICnj+1xG7h/K+Pf8C8CXsRAiJrk+FM9WtIhyQDlqoH0RlYRSRGNJWiAJkwgoizggnyGAL4YhTy8F/b7GbJDHkMfU+2L0kRA0VE5PyIRippASVjO2lPTSVQkppEyekqoOhZBYo7xWsUb5783ay5+Wg9agjD/nMoJ/hIyrtFQUIlJvcUskorYsTSKiJ6EuYsyyNMmS1JdQiphIQlk0UQICRjEml8+UjhJFZyXe5VbAE2Ya9G0R2B95HIXsl+xjQNCcxFRCAsmlDFxT6kIaUmpCckT6+EICuQnJgZpFeB3zWobfi9pU+8uNlgNrCRmf5DJyPBkTiyhkzFRElFD+h1SRy1LxLEimoTZZhoQc8+5oiIQoYFQKWkXnyUcJqMmnipwSQIpCySRYRaP99x0BqMeT+9ZFJfqGyHOQ5xMmJy2mGLf0Usp5ipPSEzIqJaWQupSxQk4PFRJrG2qa/07UrdpXcgwZuX8o4989OYABKCOfRF9EbXkaIiJ5syaNiCihLqJ41tJFVAPpDWwgDYMi+mkoJzBzCUXhhQmoCpeWL0w8KYwtVYDVOUDtRxIha7igUWKKcSHF9KTUxcxFSjG/npCGlGFCCintZauQwxZSk1IJKZethpCArHl4nKjlZLQcsErKuAj9C5fxvIooB0pJqIloL0ttCQE1UUEJNRE9CYWIlIRCQF3CpALahUvJJ4vfFkPK430ivG8UtQmgtuPI/UfKSghKy0mIqcZHiZmFlAEhpZRkSiohhZT2sjVUSF3KlEIKBybi90adh3B/cRIZCyVi5EsXYSIKCZMsS+00pJekpoQiDSkJtcIJlVAUH5mAWgELtCL38KUwZaGk0iD+P5VYqP0YaMf3BLUkteSMF1OOkyamSEttbBNLKYUkpRTz7gmpS6kJSS5bNSHJZWuOQoIXmJjggLedyX1Sxjt0Gb/5xAAGKBltEVHGOBHj7prGiRh3failIXmTRk4ITg4pIbUkTSmhKq6cBRSFbhS+LYUn0Br20yYAjhMuq+yj7DctZ4SYnpRSzKRSqnnxpFRCBlMycNc1MiXjhORkLCRwNYjJfyec8LmveIUnI/gXkBEGPZCK51HEuGWpnYakiAEJpYhSQhTRWo4KAXUJRVEJCfWiixJQFnKkeLQkSBH9X/xlRj+AOC6HFlSeR2oxxbh5UnpiRkmphFySPiXjlq0oZMSyNXMhuTfgDgd9kY+7r3+NkPE9Tca/5V8AhoxKRP0ljEgROXmKqJ6p1DNXqmVp6jSUEqKICSSMTEGtKKMEDJOPEgVZx36m0z9PtH3BvuljcghJQ+WME9N4GSUfKcX86VJGCsnxXpeUH9Oy77aeHyGFT/Az+IvFIOPPuIzgn5SxmH9T7MsYK6KQEdfE50tEOeC5pqEtYXA5KgonXEKt+DhRAtqFHRRAEyUgEf2/UecPcawoSbX+00tbQsyotEwkpRKSo55ELSH9lJTzD1KikFJKKiWzFhJlDAqpAkt5Aw7pQt7+7iL2x7mN7LYeleifkLEtl5GDMvJBDYjIAbNDReQdCIiIMuYjohwwT0Q5oF4aChG9mzTyTqmdhvSSVE02h5AwmIRKQFtCUYBBATXxgEBxi8I3ZbBkKfah/k5DPuj7DhwX0fpFCWqdnymmHI9cpEQhpZTwBKnmSAkZtnSNvOPatEJCKCUV8oZu81jrSUfY1V1moH8o49/wLwBDRmmvkYpNIaJKQxTRSkN9WYoiymdDORH+ndIEaRiQEEghoSo6T0ArAfXijZMvTroBwMaMkPujjsOhJdX6HRATUFJyPCmlmChlUExTSj7mASntlKSkDElJSkhOQEjqxk7WQvLLuDAhQUZw7ooOU9A/UkZSRJRR7LQwImrL0jgREy1L5YTJCfQnVUyynYZiSaqKw/+bFrqEsSmoF2lAQK24w8Qj5dnIfu6xyYf4E2Oh6Ntp+w0S7FOknAEx/bEIpGVWUlJCopRKSJWSsj6aSEiU0ROSi2gIKWXUhUQZ56Nz3395cpiMtYlFFNeJ+YgIEgZFVAOVRMS4ZWl0GioJNRGTSBiRgqSAsqCNQifSzhOOEgr5KE+ofXKiRNX7zEkrppmWYhxNKcV421KaQi6XQvpSqidZ9aQbu2xFIYWU/o2dCCFRyjRCShnBBUNI6YsnpPSJu6Vk/N6LE6NkDBEx8BKGPHBOItKJmEhE6vowMg2ViHJylYh5SRgvoF3IdqHT4mnyDPK504D+S7jRiG31fRrHsvtBymmejymmLqUmZhIpZUqilJ6QHBQyZUpqy9aAkHpKekIKKXNNSKh1r+4pIVU66kJKr0gZ//rxYgboMoK5QkQho3GdiCKqVBQd8DuUoYgooRDRv1EjBjh4feiLmCwN1aQrCTnq2TpKQlVkSSS00i8onyaDFCRUtsE29N+Jp9G2o/aN+H0gBaXkjBGTkhLF1KVEIU0po1PSEtK746oJiVLK+ii4kFxGXUjpQ5iQKtjALTg+OPfdFyaif1LG/vyb/r6MVirG3rApuIhiID0R1UDnsiyNTMO0EhICAlrBhgoYJl6EaHfpDNmaDGs7ar+0qKKP4XJqUmqJGZ6WppSBpFRChkmJQlpSxi5bUwiJUqYVEmSMF9K8fvSF9GWcgP4FZeQFqIuIMkaK6MsYEBFlpEQ075pmJqL3LpqYNAxIGFySppZQS0FSQFnYRsET4nniUGIF2BYDtQ2BPKbZF62fiDwHW0w7MdV4GGImlzJ66RqTkqSQUkrrxk7+Qor6jhUS09EWUsrIjx2Q8a/4FwD8AgbIEJG6TlQioozy4CgihxARTsAQEVMxSkQxUKEiooRKRDEB3oRQIqZKQykheU1ISagE5BACBtJPEzBaPClUic8vMkDfX6S0so+0nOFielJGpSUppS9k7NIVhfSljLqOLLSQ/nJVChm4wypkxOUqCil9Qhmr0LnvcBnBPyHjY1xGjidj4DpRExFlDBFRpmLhRRQDjRLqIqKEYSLGpCGxJE0voSxOXUAr/Wj5fEFMeT42GZoB9j7lsUxB7f5xtHMIFzOplGJcyRs96kmRSMnky1ZTSOPGThIhiWtIuKwyhFT1HSmkuVy1rx89GX/PZeT+hcioi8hBEe3laZSIUkYlIpyAJ6KUkRRRyKiLGHXHlBRRSYgiyolDCcPTMDcJlYBSQhSQljAooF/8AfEMebYb3G0zLAHa4+39GccKE5SS05PSFJNKy2RSWkIGUlLOm5JSzSu1bA1cR+YqpKhPWkhR156QKKMvZNLrx5sSy6hE5BuGXyeaIuLy9LyJCBIGRRQScuSExqahLJB0EiYXMFw+XxJTtB0FRB5LO7ZA9kmTUz152HL6UnLUOICUnpgRUqonOxjvnFNSzLchJEpZeCH95aotJJeREhLTUQnJZeTHDMh4Gf8CUDKSy1MlIsooDxImIkcX0bhzyk/MEJGfeGIR1Y0aTcTwZakSUUiYKg3zkVArVFJASz5fPEqWnezuUp9fZoC3P9g3eUxbTtlfW0w7MXUpvbSMkFIJ6aWkkNJbuiohQ1MyZNkaKiQnhZCBNwagjEpIWdekkCBjUEg9HdVyVZcR/JMyFvFvinwZVSqiiEpGSkSOEhFl1EXk5CgiyhgrolyWkiJGLEsDaahJqIso744GrgkJCQMpmEhAW4Iw4Xb5lGWAvj/tOL6kdr8IOaPETCKlfk0ZkDJJSvpCopS2kJiSppBQN+mFFHUaENJLR1tIc7mKQkZcP8LxhIzj0T+U8RuPFZ2Eb1qNO8BajtnH7in7RDBcp45mRB27d8TucEZ+SnLfyD0+o2z2mpQL7kfqaUYDDQFaeuzDc6NpNBkreMBjfzjjFAcigbE1OchaVVwAEH2nzs9HGxNqvBB/bNVYB+aAmieYQyQ4zx5UbXjIWrLrC7FqUNYmVbvICICod849COGKh3AKjvPQhCPsW8+UaTI+WjTzsjZF7Oo35uCAgq0Oh6OwtBp/iN1WtIGBe99oU3RSyNi66Nqv82/4D+CHyDd/VcJavDKFM9Wkg840mo7A9HA6+VxhMCOCmciVis6KD2i6+FxF8iG76tUoZsUwO5zXgvwgV14H5mQPdayEBM6PGgMPauxsqPHnwBwRc6fPLTn3iFYjsnZ8qPoCzHr06pSqYQOr/j00VzSHvv3sSM8zjadRRmj8m8u5kOW2lA6Ho3B8na9K+b+3Sw3p9o0Hii6DBzkcjsy5XGpmta997f8BODE6opsdcAMAAAAASUVORK5CYII=;" vertex="1" parent="1">
          <mxGeometry x="250" y="230" width="72.73" height="33" as="geometry" />
        </mxCell>
        <mxCell id="VC3NsQKQv-s5LEQHh1L6-6" value="" style="shape=image;verticalLabelPosition=bottom;labelBackgroundColor=default;verticalAlign=top;aspect=fixed;imageAspect=0;image=data:image/png,iVBORw0KGgoAAAANSUhEUgAAAM0AAADNCAYAAAAbvPRpAAAAAXNSR0IArs4c6QAAAARnQU1BAACxjwv8YQUAAAAJcEhZcwAADsMAAA7DAcdvqGQAADv5SURBVHhe7Z15cB1bXt/fAwYYmBlgmEAGhmIZGJIAFSDs1IQEkqqkUiypCiSVYVIUIfCKVFE1BWH5I7gI40WWZVvPkrVakiVb0tW+b7afl2c/74v8vMm2LHmT5X23LFv2ye97lu7Tp399b19ZXt6b83v1Lflp6Xv69/t++ndO3+6+b/nw4cOHDx8+fPjw4cOHDx8+fPjw4cOHDx8+fPjw4cOHDx8+fPjw4cOHDx8+fPjw4cOHDx8+fPjw4cOHDx8+fPjw4cOHDx8+fPjw4cOHDx8+fPjw4cOHDx8+fPjw4cOHDx8+fPjw4cOHDx8+fPjw4cOHDx8+fPjw4cOHDx8+fPjw4cOHDx8+fPjw4cOHDx8+fHyjhxDi7Z6enu/o6+v7nsHBwc8PDQ39UO/IyE+M5FDfpk0/ht8fHh7+vpaWlu9atGjrt+hN+vDx8YqtW7d+amBg878YHNz07/oGh/+ov3/kH/v7NzX29Y1s6RsYGevrH7k2NPyeGB7ZmlX9AyOz/QObztDfj/b3D/f39o+829e36W97B4b/c+/g5i8TfD8+MDDwbfplffj4aEX38PCPEhj/tW9geDWB0Uv/PkGGf7R12y6xacsOMUQQDA5tIRA2ib7+TWLT5m1iy3s7smpk0zb5u/0Dm+lv36P/3y42b3lffiWAbhFUh2l7GYJx0cDw5t/ODAz8Ez0cHz7ezOjre/97evqG/4yM3U3GPUtf741s3k5AECTDW8UQGX379g/E/gOjYuz0uDh//pK4ceOmuH37jrh//4F48OBhVt27d59+97a4On1NTExcEMeOj4l9+w8TUDtp++hU2yRE9FrPe/uGbxNIx3r7Rjb29I/8d3Q7PUwfPl5vDB8Z/s6egZHf6O0dqe3rH77d0zs01z+4WQxTV9hMHWXH+7vJ3KfENBn9yZMnYm5uTjx//pyWNS8az2lbz8STp0/F48ez4i4Bdf7CJXH0wxPyNTdv2S4hQmeiMT3r7R2+2Ns/VEFTu1/o6tr5aT18Hz5eXbS3D36+u3vgD3t6h0fImHN9/ZsFHdXF1u27xKFDR8XE5AXqDg+0waMx9+yZeDz7RMzMPBYPHj4S96mL3L5zT9y8fTer7t57QB2Jug79zaNHMwTLEzErQXwm9fTpHEE0J2YePxbXb9yQ3Wz/gcPiva3vEzwjelq35QmNc7inZ+Sr2Ae9Oz58vLxo2bTpu2i6805339C2gcEtz2BErEv27TskJicv0hTqQaST4F/oBgDjFhn/Kk3HLlPXOX9pSkycvyzOnrsgzoyfl19zCb8HjU9cFJMXLouLl6bF5StXxfS1G+LmzTvizt374iFgmp2VUM6SHhGY01evi1Nj42LXB/sl2DRuEkHeO7Szp2f4f+NsnN49Hz4WNvr6Nv/bnp6hrQTJDNYQgGV09Ji4dfM2HeWfKkooAA2O9rdv3xNTV66JC5euECCXpNnP0lrkLH0dp6/4/3MQwQaNJ0n+flRyOwFM+HpRQnj+wpS4NHVVXL1+SwIMiB49eiy72u07dwm0KXHg4BEJDdZZ/f2bntDU7WB33/AftbS0fLPeVR8+XiwyQ0Of7e4dWklTsUfoLDhSHzw0KtcRpqkAFHSUW7Sov3R5Whr43KQCBcK/568sYFkgQQYm85qTBNHVazfF7bv3xD2a2t1/8EiO+wp1u0OHP5Rn4bBPtG9znT2D73UNbPq5rVv9+z8+5hnEwtvd/UP/vqdncC9A6e4ZEh/s3k8mvAZKJCzPaH3y8NEjOrLflN1Emds1/csUA5MLEnUhfEUHun7jFnXAu3Iqd4dAOk/TvN17Dkhw5Onswc13u3sH/29HR8f36jT48JEuiIdv7u4e/Lvevk3XYChMx86enaB1wqyChRbemP5cmb4uuwpMCWjw7/yEv8mtc7ZYeLLIwIMuNHlBnL94hdY5N2RXBDg3b90WY6fPiW3bP5AHBpzU6Ooe3Exrnl/S6fDhI3vQ3P5TXT2DFTAQFs47d+0Tt8hYJrBOmNKwwJQTkxwMC6k4RLbyBQnrKXSnyYtTcj9u0JoMZ+fMlE12HDpQ0JT0fFfv0P/QafHhgw9cD9bd3b8OpgEwo0ePy7NQCJzSvUbTG5y5gvkixqbvpZb9dy+sOERQGpDGJ9TX8wQPzsABHuzf6TPn5Buy2P+u7oGnnZ39/9DSIvxJAh/x2ITTyT3DQ1i/4H2NkydPS1iwyMcp44uX1VkwQPOy9WKQzQ+iC5emJTxY90xeuCR27NyDaZqgaeqTrq6Bcv+mqI9I9PQc+I7u3uGq/gEAs0m+OYnAQv/mrbuWoadekxKA4sSCZItAIkiMAnCo8+C1zHs/OHGwe+/BYJ3T3TO8vsVfjuPDREf3QEkvwQLhui4ELnmBeSZgWprCQJjKvEyZ15GKQJNNIVC28oLI6kj4evHytLhy9YaYunJd7N1/hDoOgUNT1o7uoXrfcXy81d7V9xd0NJ3DVOTEyTEJDNYxWCRzxn6dSgfUfCGKwoPXw5uz6Dh79h7CNA3v54iOrv7CRYvEN+n0+fhGC1r0/3pn98BUZ9egOHjwqAQGl6DAKDCaa1qlKy9J3Gvl1nxASgsQ/vbS5avyDds9eqpGB5e5ts7+v9Qp9PGNFF1dXZ8mYDb19I2I97btlNdsYUqG915glvOXyMgJwqUxCynuNWJiQYPmC5JSLoAAGaZrGOf7u/aKTuo4HZ39Nzs6+v+jTqWPb5To7Bz4c0zJMOW4dv2G7DJX6SuM6Jr6TVYcIigOklEyUMndCP9/4dKUOHvuvLzlAWuczq6B8fb2gS/odPr4uEdnZ+cPtbX3XWjv6BfHjp2UwODyEs6UUeGIGwpXGr+I3O3xr5mf5gVRSoCw/ZNj4/L6O0zVKH/1OqU+Pu7R2t63GsDgTbyH+v4UNQVRipibvv9apF//RaHKB6I0AGGb+w+OotPQNG3gYUt7r79q4OMetJb5SZqWjWFadvLUafnm5dTV69IMrHnfYF0wygMuHiLIgYcFCMIVERfFlvfe11cNDO3r7Bz8EZ1eHx/HaGvr/bv2jgH5YIvHuO/lzj1pJs6UOGvEaurqwonbvhY3ptQieMJOxQNkKwkgWwYkrHOOnzxD3QZrwhHR1tHzf3R6fbzuWLRo0TdVVFR8B54TNjAw8Blcsj48PPyd+P9MJvNJ/Wupg/7uc7SWGe7uGRajo8flPTBTVxjjcuZ+nXLGx0KSTRGAckOUCyB0G9yGsPOD/aKDDkCU0zO9vb0/qNPs41VGRcWBTzQ19X+pvb3/NzFXbm3vKWhr62tqbe1pJW1qbes+TF878P/UMRozrd1/Q7/3Ffqdf0364QMHDnxCb4qNtrb+X29r773b0dkv7ty5S7ovTcUa9aMgjF0rBko2zQugKDg4MYBugxMC6Dhtnb1/rdPs41VEd3f3j7Z29LzT2tazIdPWe7S1rXe2t28TFQNnaAa0+umI1hv+f+cAFWxE9PVvwc/utrR278tkempbWnr+rLW1+6eEEG/rzQdBc++/xnZx2nTm8ax81581oyt0Iy1cm3X5yrUFl/0a7Bjy1EUjDhpHIUDJIEW7j4IId4nu2LlPUL0EHcDO19fXf6dOtY+XFW1tm36spa23ONPac4oS/6SnF6DgzbMB+Qii3XsOiiM0jTp27JR8zpfR8RNj8t6PXR/sE4ODW/BmmwRMzq/b+x7T9s6Rutvaen6vpaXlW/FaXdVdn25t7R2kn4uxsbPyWWMw12WjAAiIN/brlR6bPWaSC0tWESCpuhKBk2s9BHCwvjny4UlczAlwntJB66uysD4WPjo7O7+bjkz/0JzpvtnS2vu8o3NQJv69rTvFCWr5V/GElVvqzsJ7ZG7c245HFz18OCMezqgHReBJK7gh7D59/w4t5nGhJZ64gquUMWVoa+8Xzc1dczSVoyld1x9nMp0/Q695E0fF6zduihu0fd6cuYVrshZK3PbTKw4SCwsngiMtRMndh7oN5X1k8w6V70z3Zl1iHwsVOOpn2rv+U6al+xCO+DAw3ijbf+CILDgec2TuYcdZLUh+j9Yf+Dcguks/k88Ae/AweGQRHsSHZ37hMhjcsz9+bpIWqftk56HXQvcRLa09E/j34NBWeYvv9LWbjgFDceaOaXqBxG3bETfGZM0DIgIjbQdyAcKZtD37jsgZAk2NL7a09P0rXW4fLxqZzAefzGS6lnR0DNzCegSXsOARrReozaOr3LipdO36Ldlppmm9ERqGDBAxxjVx5ep1+aQV3HEI0NCRZmZm5R2Wz549F09waT/9zmGaxnV3D+EoKBqbOsSuXfvEjRu3yLBq+6yRpejnb4S4sZGcfKQTAQJx4BjJCzSzr4XCtc80TdGuiBNj5+RMoTnTJZpbuv3FnAsReJp9JtO9gY72OOKLkU075HVMAOT6DRz1b8gLJVFYc8QzRz+2sK7ICDAYIEJnekDTOZxOxhuXgAj3+OPJlyjq6OgJ2bmmpvE3MCBn1KgwtlcpbgxxORBBlD9bcWhs5dGNdC1ceIzwLLchWoPimjTKcbN/DNQLxoYNbT/c1NK9va2jXwKDxT0Kgcce4akoKG4aQIIpR6z4rq5K42H76D64NwZPXJJ3YeI+eNmd1HrGNqFr3IioY70yca9vyR5zVNgfR9hHrXiebKUESNfJhQZTtN17DskznDQFPtLW1vsTuvw+8g28IUlJ7GynhX4rrSsO0NEeBUJBZbFMIdziWFKgJMNiG0PKMY6C56F87jE6Dx4YjukfZ0jWxKzo7xdM3PYTxIyZBwhycmHliMtjqPzhwTTt6PEx0UJr1Kbm7tnGxu7/oC3gI5/AlKwp01WK7tLa1iMOHvqQiqHuBMwl/J4UW1TLCFKcYSxdUea6fvOWPAuH7hM1Y9TE6H5votxxRvchKjYPEUVzyOVYSteBq1EgWv9cJp06MyHXNXjvrLW15x1tAx/5RGOm6y+amjufYR2xZ+9hmVwcldykm2lBUjexj5DRYkeN4B6BOSPBbFj34CtnzEThxMSrFDeGBOUEycmLm7dITnWeuTooqVq5NYTwQEKsa3CSpznTuVwIf0t0XtHY2PpzjU2d95qau8S2HXvk+XzTyu1EK1i44oQFjBTVKbhrCNY02lC2yWzTBeLMm1IAMa24v89L3NgthQBBTD6sfLn5dOFJBkjXzqolarx1225at/YJmmF04s5YbQcfuaK4uPjbmpo6BzMtPfKNxjFq25jzGmBMsnN2lnmDkgUMI86MjDjTv0pxY2LF7aNWIkBWDt0ch7kn6XpwtXI7z67dB0QGp/abOw9kMv7jC1PHxubOP2ts6pptae0Vh0ePy8st8KaYSjCX+LAwChauiFaxA9mGUIoYhjMXiTNnTNffMHFjtMTtZ0Q6J1zO3LxyuZeyasTX8Lo4dOS42NjUiffDJjMZf9VzqmhoaP98U6Z7e2tbv/wAVfXkxitMgi0xHcU+CrpFRaEjcNhiDMOZLCLOpI6uJerWC4rbJj+GmLh90eLyEIjJGwePXQO7Nm4HgmRN6Wejx8ZoPdMjGhs7ntfXd/+4toWPbNHQ2PEHzS3dmNOKD4+PyXkuC0wAikq2UTZQEmFhjMEZKRBnQFLcvJzJX4ei4+LGLsXtqxaXIy6XJs+x/Ou62LWK1FDW9Lo4cWpcZPAGNk49N3V8SdvCR1Lgaft0hGnDWgafanzm3AW5jglAiQETFiCABYoUjC8uZwLOLFKMwaJG5Izq6MYrFjeGiKL7wO0jmwsSlzs3v/OBB9/HQzcADTzgoUkR9fXtP72xsf1BI81pDxw6Jm+NjcLiJjssggHEVlDEWJFReKXADIxpQlNxpiNxZtXCQ8Dnr9sJ4n43nbgxBuL2zdp/LjchQEZMnnX+3bokwYO/OX12UgLjoUkZGxq7/hfms129I9Smz1pdJQkSI1WMABIjp4gBILYcM2QFhTMciTNpVBwAKXRTi/tZKnFjCcXtixS37zovbr64nLp5d+sSgGOLaoq/PXP2vGgmYCAPTYpo2NjevGFju9i8ZafAI01tYAJYoCDZ84TFKXy+oHAGVOKMSzLmf5XixhGIGzu/r2xOdL7cPLp5duvg1snUz9QTf3N2/LzsMrii3EOTI/BA7IYN7ecBzc4PDqh1jAtMNlicArkFlLIKnA8onMFYM3Lm1cLtB69S3BgCcWNn9tHNA5srnUc7t1JO7t362LUz4ODppOMT5+U1hh6aFNHQ0P6F+g1tDzE9O3j4GNNZTHKjCZeShTBz63jBwmI6BeeMQQqN4xjLMR9n1tS6tcDiXiOl3P2K7beVG1ZWTpHjZHBsOTUk4W/w0YStbX2iqdlPz3LGuvrWX65vaJ3BG5ofnhiTSTWdxU1ucLTSihQnACRLN7EKHgKSGxTOcLzukJFzCzfOLYS4bcckb9DjxhqXvc9SkZxE82XnMpZnnX+7Jnat3Drib86cnRQbGzsEvLBuY9uPaXv44GJ9Y+MvrKdEZQganATAESvbFMxOvpRVGBYWq7hu4aOmIFmG4UwVlWNOS5zBX4e4sSmIIG6fQtm5iOYpmkM7v1J27q3aBHLqJ6Ghvxs7c06sb2iDzjU2dv2AtocPLtavJ2jqW6jT9ImTY+dkslN1FkgXYt6wOObgzBPKMp4WZ9Q3Xe4+pIEokqe0ANm10PVJgge/c/TDMeoy7aS2Q/X17d+n7eGDC0BTtz4z09reL06fmZAJDIFR82A7wXbio4UhOYWLAAK5BiDFTGKtFzjT5dRtJXzWflx3X5Lir2XGwY4xixRMVh6c/HA5jOTYqYFbo8jaB9J1xUcNNmzsoE7T0lld7a9yzho1Nc0/X1OXmcEtzWfGJ2WiY10lgMRIF8EpkH3U40BxDaCkj7TaMJyREkWGhXgjv5mSY+b2JUFBR4LY/EVzbMNjFKmTqZ2UqifqvW37btHY1CXq6lpXLVq0yD8nAIFnK+OOzJKSlk9t3Nj3PVBtbed3r1/f9CXqNA83NHaKo8dOURHuxGAJgbESbhUiBooFC1dkpaghOMPE5BhwQXUnh7i/WQClhcjOVbbp3HzgwZN/8PRSnEGtr2/9GrxSW1v77RUVFVkfFfyxi4aGgc801jX+VG1t02/RQv+Pa9c3L65ryNTX1rcM0xrmGIFyvHZ95lhdfevU+vpWUVPbLPbuO0KJ19BEYLGAsRJvF8SFJREYq/icOSKSUxzebKmlTa+ev2ZLPZtt/opubyHgmh9A8RzbNUgDD6bjeGNzA6Zn9S07a+oz9XUNrc0161tKyCPv1Na2/lZlZcPH85PTsICrq8v8DgCprct00Q6fXd/QNtfY3C0aNiAhraJ2fYsExGhdTZOoXtcoKiob5C0BONWMZCpgVFJdYCKQGOkiRQoYzM3DInMmkNJrAc5MScIz0wJZBlbijP4q5YzHGiu3L7ys9RGXM5Kd26xrILdeppb0s3MTF8U6eKG2SdTVt5izaKJ+Q7uAd+h7T8lPe8hP/1izIfMz2m4f7WhoaP0y7dBa2rEjBM1ttNmNNN1aX99G89ROgecs79y1Txw69KF8nvIEJencxAUxTmsYnJ/HCYBTY2fF+LkL8qjjQhKC4sCiCxNXWEiu0IFYoyQoMCBn0PkLT/7MR9w25i+1T/l0qFzdKAAoYQrnAnTj5i35HLuttKbBo5z27jssHwSJT8z+YPcB+ZD6egIIXYgOvM9r65onyWNfX0VTe22/j05gvklt9Ddr1je9t66u6SFBIzY0dsj7Yfr6N8uHjE9PX5Ufr4dHIOEBfHj43lN8nZuT35t5/Fg8eDgjHxOLx8WiIHxXcYDRyY8VxSoaV1ApywC5FBylWcPlFmd6XvdTivvbuLixpBPtd14AMfnVygaPqZ8BCBfo4oZDXDqFmmMsePIPHhMM4aNNRo+eEDjD2rCxnWYrGUHw7KmtbflZbcc3OwBLdfWGf0trkh7qLHNoqzgKDA6+J5/Sf5sS6QYetvfkyVP53DD54PH7BAklBUaQhbp1VyYYYBhYosCo5CbCkqazMEXnNB9QOOOG4sz/MsWNQYkbe7JUHrgcucrWfdLAg+sNDTSYluPvMAYcTOGZuWdz0kczMzP6aac9svvQ+udk9fqNv6qt+WZGXVPHF6mrlNbUZR7UrW+ldtkuTxVO0nQLO2cHugqe0I8dRzFvEhgwPmBQp5QxDePPiEVAyQoLSRfFLZZaxEN8oaH4eoQzT1ycIePmfdMUHzO3b7x0fqzccQpzTnLqEcITrR/qak76yIPmddRceQA/x3bRdeCvZ3jcKcXU1LTo7h2mtU4rlgDHKmqafk1b9M2Kalrg00LtGBH+HIPFRyRcoqMDuogJTL0ePnwod9QkI7wkJuH0MRKlk8TB4iY5SD7JLYyUVURWeQASNRlnxGTdvfd6xY0pu8J95XIRl8olm2OtpA5k19CtrzlAGg/AIwagu/fvy2k+AtvHMmB9A04uZQ5WVWU+q636+gOPVaqpafy7mtqmWZz5wkdOnBo7E4EFzzzGUQhAoIuYq5P5Nyc1LNmA0YlzE/oqYLHNw5srLs60yXqwwOJegxc3dl5hDrgcRaVyy+ZcKyc8ztTNBcf4A/7Bz7FORqDj4IGS8oxsTXOJtuzrjapM5rPrapoqaTom1tVmxNDwVgkHAs82np2dlYlTncRc+qKUFRgkIADFAkYny06glE4ul/hcsLwMUDhDRsWZ+3WIG1sobt/iCnPD5S4qvgZGHDwBOBAHjwuO/oo1MaZro0ePy9PUtLa+WVXV+HqfA11RsfFzVesa6wmY53g/Zd/+w3KNgsCZL3xQawCLBUwAS2pgdFKsZAWyEuomG+IKE0jCkh2YhQGFM2tc92xRwRdE1ja514yLG78St89xpYFH5Z6tCSl314l6wBxIOXjMvuMZ0DgxUF3TWKHt++qjuLjhM9U1GxtqqcOsJ4qPHj0p5ubUdAwfxQcIcJMYC4sGRcGiQdGwhKBoWHRCoonKAopTgIgWCBDOULwBlWThOEOn0sN5ittWCjljjyu+71yOQoV55XKupGrD1owUqzEpBAgKveHCg+8hH4cOH5PQ0Jr7YHld0xe1jV9dEBdvr6ttXI1TyZgrnjk7IWHBGgafTylBmSZlAUZ1Fg0N7Vy0u+idtpIRSCeLS2QiMBKWZGDswvKFjxtFiTOVMh5rSFac4aPC6fd8xW0nKm4sjJx9iyqeEy53ofj8h1K14mqYtfvkWO/ge7h2DV6lmdHzypqm39VWfnVRWd34TvW6JpqSZcSBA0fFM+oweDMSp4yvGFgSgMk5DdM7bCdBSl/qwiUuW3fhi6OUCxSIM4ZrHgkJxJkuorh5OcPjFPyCids+iRuLEjfuUO6+K8VzxOUylMo7VxMo36mbOZDafnHBgR/xSWoNGzrFunWZv9BWfjVRWdn4mwTN9XU1zWLHzr3y9B7elMTg5X0tBEXYTUI48GCE2O3JLlTy79X9FFGwwp2H7CRySZcKYLDhMHKLGBVnAs4suUGJGjJiXM7gr0PWmNzxKnH7RdL7H89LNG9cfpVULVAntn6kfLpOCA4PD/y2+b1d1G1aRXV1Y7n5KPuXHrW1Lf+0qqpxW01ti6QWn4T86NFjcfrseXHsxFlx/NS4OD52Tn6wKHTy9IQ4BeG6MfqKuy5PjtFX/Fv+bFKMnSHR30PYzunxC+IMdA66KM5CExfF+MQlqXOkifNTUviceXyQKR6CrhR+wOmlqWsCD80OpR68EcKM8/sqsXZBUEjXCNnhiJrsxaF4FAif7fkisrfFv1YK6f1x95PPRTRvoSyIEkEKD2oLB1AIDw6+O3buF5gdVVU3dhU3NHxG2/rlRtW6jX+LCyzxwpemrsjLXWD8/YdOiINHoJPi0OgpqcNHoTFx5MMxMfrhaTF6DDojjh4/Kz6ECLIPT4yLYycJtFPnxPGTJPp64tQEAWfAmpTbP0VgnTpDYGlJuM5ekJKAjV+UkoCduyR1bvJyoIlJBZmUAc3ShUtXA12UHw51VX0C1xSeeKNgU8CZ9RYVRxcMBTdHXWOcJGgeBP8OzcyZHSdSFlzOa8wbppTw5OpCcWiMksFJWvOk7Ty7dh8U62oyorKqqW/VqtqXfzEnTct+CtMykti3/4gEZnzykjhw+EQEFEBig3L0OEA5E4ByzICiYTkBARItCYkGJSskpgsRIKYLyU6UBAs60/krEpgINNSdZIcyMvDYkiDhA28tyY+9g65LuGzArl5TnQxw3bhJU8jbVHBtCphHARYaEabGRYcxo78KxUCyAMkmjD8CDw9QHBwohIcHaJ5dx4ImCo+CZucH+0V55QZRUbXxcmX1xoK1lQ1fxuxJW3zho7K6qZgW/wK3HGMAuHDu0OhJcZAU7SymqxAwsrPYwJAwhUsAxu4sITAKlmDapjvKeAyYdLBIYDQoASxySufAojsOB4uBJCKaAhphKhiVmiKqkyRYu4XTQ9m1bqHoMIkyDYwFE6Izyat4ydwPH85ExAKwEMoXIhpnHKA4PPPrPDm6DgcOxICDr/g8I5zxLa9sMNO0J5VVjdsJor+vqGj+RW31hYnq6oafLK/YcBfQjB49KQcHKACNBEVPwxQwCpQILASJ6S4SFBsWA4oFS7Sz2FOvdKBMQgYQo1SQxAGxO4kNh1knBSIgINltAuG9KkcETfz76vcBlIJKAXXtOq7qpoJTt1JQKbPBzOj0qeTApgAMxYKTpLQwzQui+QOUdsqGT4zGJw/gM1q7uoflzY2YrgGgisoNFyqqGteXlzf+grb9i0VFZWMF0Sg6uobkGS4s2rF+STUds4CJdRd9MiBNZ4kCQ6DYwGhYJDAalgAYGxYJjAvLtSgsetqVChQNSyIkAESDEBdu4WVEXQidCDLfM/9vFHQpmq/jrkkYR8Gkpnq4/4gFyFYCTDFQkpQHQCE8DEDzgMeFRikOjgsPzqDhLQ+zxrkyfVU+4QYPVK+paxFYeqytaLgDeEqrmv65tn/+UVZW94NE4Xh1TbPYvfeQnJahs2SdjhEsZv1iYDHAZJ+KKWi4xb3pLjYsNjBJ3SWERQGT2FkSYMndUdJAYkEBORAsrMIp3+07ymgwKwxsDP9oZkYqO0gpIdLw5ARonuDw8HDQQAQK13U0NDiJg4M+TkHj9zEu3E6AiztxdzDuAMUVLhVVtO6pbLhRXr7hnXmdMCir2PBXZeUNzzY2dZE5L5PRJ8JpGTpMFmBkhzHdBdLA2NOx0wAm9ULfgsWejmlY2O5CgOSGJQpKEixJoGSFhDW2KxQzLtNR8lF8O2r75qSEhOk2jAezKkMDmOwQpZzO5QIHmgc8cWigLNM1B5oAHP3VrHHw9xg33mdEzM3NiTNnJkQXzahoOUJTt+Yna8s3ZHASTOOQO4oymU+WVW7oW1fbIoZGtsujNTqL3WGSp2O6u5jOYnUX01kCWGJTMR4UrrPYXYUFJVdH4SBJDUguMJRxOXOn152U4v42LntM1+nvIjBRZ4JZc66ZLJhi4LjK0X1CiLIB9AKdx4EnAMiI/v8OvcbMbHiDJMZ84OBRUUVreIiaxsnKyqYvayyyR3l5/S+XV9RfwAmAw6MnyOiTeh1jpmTpp2Omu7jAZJuKjTOdxZ6GSWhsWDQwdlcJYNHABLBoYHJ2k3mA4ho1WcrwMO5LE7avX4cfgwYp8j31+woktV4yEPAA5ehCZMKsXSgAJz08HDg8PDmgIcnOA3hoO7ib2MTU1FV523RF5UbqPA23aKnyXzQayVFa3vCHtCiST4zBJymPEiBmSpZ6OmYW+1DS2TFmKmbWLrHTxwYWDUwIiwUM013isOToLBwoJA6SdKBoA3PGfl3KApKR2T/sK/4GpoO5YHAYHlDINVIAkgOMrQAeBxqjBHBCaKLwRKFJBifN2TX1fo76N8Y4p2+gxL1hHV2DgpYpmLLdpkby2xoPJoR4e23lxgKckuvu3Sw7QzAls08r28CQFCzJHSaERUnBYgMTdhcJjYFFAxObjsUW+BYspKywkFxYuK4SBwXiTRZKmTJm1ATdsEXTpXnL2Rb3WonKAZENEPKC78FkMKYCiToSmV8ClG0KN5+uw0CTDR4XHLbjQBoUGxycMMDfPJ59IsG5eeu2BAdvjK4trz9dVlb/LzUl0cANZvQLWyvoF3fs3EcdZDxYw0TerLTXL6RkWJzpmIYl21Qse2dJWLfkmILlhISBIxsgrPkszQcCvC8zX3Hby64UcEmYeKDUgSV8wxaGUycbwmldrvVPNoC47hPCE4UoHTzxEwU2OAYeuR83cdu0uqkSHSfT0iuwVKmo2LB5zZr136tRCaO8vOmLa8vqrxE48tPHAAk6TAwYAiWYkuWajkUW+3x3MbBwwOTsLNmAcWDhpl9RWBQwrkmkMbJ0kLSQxAxPRlO6t0DS23NehxtLVLkh4nJidyE3h9gm3pxFt0An4sDJ1n3y6TzpwIlCI8GBHHAwbpyexrQTgecNVNc0yY5TUl73dY1KGDgJUFXdJPAYJiz+JTTBdMx0GGsNk2o6FsJigIm8Scks9gNYjDhgCJYIMPY0LIBFA5MTluTOkgRLLlAixl1QMOYjPQZrTNyYAzn7aiup+7jwmDyrjoTHMGH6o85aAQBAY6+FOHCSpm3z7zgpwZHwqAd1PH/2XJ5Vo2YiSteuv7d2bfNPa1xUlJTVfwVE4f2Zw0dPSljQZbIBk3RKOXqGzHQXvsMYWOwOk3Wh73QXfoHvdhddRKuwSnEDXIcYw0DZYMkXklsvUdzrRWWNl8Ttj5Sz/0bzgWda10ReOa47EQx+/8EDNZWjrhM7acB1nBcFx4GH7zjolrfk8y/u0baxviFoSHVdGhcVpWW1f4+pGR7ziTNmAAXARGAh2bCknY5xl8CYiyojU7FYZ9GnkO3OQpDY07BIVyHl6ipuoTlIJBwQY6RcYMRMTOZQup9TeBMyX3HbicoagzUubuxKeh+tfY7IylMgBiIFUAgRDlgGINQJBzj8Gz9DJ8ITVXG/1v37TOchcFiAGHjiAMXhyXYVQQCO/vfs4ydidPSEvOSmrKLh6tq1DeH7N6Vl69eCpq6eTXJaJqGJdJc0wJizY9Z0TMPCdRdusZ9/Z+G7SggKD4s828UYQN2PETWKMREHi21EqSyAcKZndSeFuL9zxI2Bg8jdp1Bqv918SDG5S4YnrIWCJzy4Tcn66QMfbrOg2mHbeLKRgiMKT/bOk77rpAUH30eHwvVqZeW0tllbV6qRoelZaV1JCUHT2T1C07IzqsOQIsCQbGAUNPObjmWbiklYXGAkLBoYk+QILBoYq0CQW8TEzsIYIxUogQmj5uRMLOWaP6IH8xC3HS3m9d1xugBB7v5m7T5OLiF3+hbrOvrAZuoWHPh0XYNZBAl33cK4MD8A4bpOCE1+4LDrHAYc3KL9we6DorxyoygpqztUXFynnm6zZm1d55rSWtE7sCW6hrGAkV3GAMOuX+KnlCOnkzU0iWfHsgKjE2kDQ0oGJgoLxC3s3c5izJEVlrSgcEZmjH9nAcRtl319Z4zuPqQByM5XICevUD7w4OBnaoqDoqk3DpTGC+akAqZyCiLVgSQ8Lxmc8xencDObIEaelZSsU1cKrCmpO/TuuzViZMtOCYbdYWR3McCY6ZgBJtv6xZwdy9ldNCikABQblgAUUgCJAiWEJAEUp5DJkETNEQUkNJVruqgplVk5Uwe6+4rEvTYpChWkx27tk72/wQHCykk0VxY4Rk7OIR4gDQ+U0HlCgJQnLl1WX/F9/K6EiMZnuk6086SFJzs4EJ7ph/U+zjCXlTUsI2Tefuvdktp9xWtqxPBmQHOeB0ZPx+wOYwMjocl7OhYCYy/22akYyQYmW2dxuwo3BeM6SipY0oLCmTkQPjnhIS1+F05qm9xraTFjzAUQxAFk50xK59PNsV0DyK4RlG/ngTckPKTIupe+j04EgwOK7OBwl99kBwfb3rp9jyhdW0/dpm7LioqKz6HTtBA4oqdvS/IaxpmS5QRGQxOdjkXf2Tc7HVyub2DRCoCxYSElwxLtLgsGywuAwhn8VSkrSMz4I/BAVg4i8Fg5s/OYDpzkrhPCo+qtwFEHTxccBY8CBwDBT8pb1+TfyHf5qc6AQsFD+/gC4BwaPS6w7idorhWX07qmuKS2FNDgRIA8tUywZFvDKGCsRy3lAMacIZOwOMCYBEABMBIWFxh1ijJUFBj3jBgLTApYbKO4oLCwOGbkzBvTvZck7rUsJULk7FO4v3r/rZyE8IQA2TmVOXbyzk/ZwtpFOg7EgGPDkwsczGbUQXpa/g7u4sQDKjE2QBN2n3Tg4Ovxk2fxnAFRVkFrmzXrf5WmZzVlATToMAQLt4YxsLinlMN39+c7HVPJCEBxuksSKLmmYaqrhAXNF5KImSJG400pxZgZN4CFevQKpF6LG4sUM24WKGv/c0PEAUSy6iFl1QvKvd7R8FgABQdXFh7tNdJ56MJ04El4Eb+H7ck7Ou8CotzgQGfGz4v6DR3UbepFcXH1V95as6bmr9aUrpefnIv3aQBL7jVMFBgJjQWMIZ2bjpkdjUzHLGBMoqLAuKeQo8lPBYwFSwQYCxbbKFIRIzGGY0yZFyD3X1DcNlnxY43tDym6zySdC3MwceGJgMPBo+th1ycOTwI4dteBDDi5uo72nZnlwI/wZ2QmdPGKmKK/wbMEDBwcOPgevJxp7cX0TND6f+lbq1dX/7eS0nr58X9Hj41JUAw08wYGygsYUgCLC4wNS7TD8LCEwKTrLsoMLw4KZ1YtzvCM5LviOcT9HStuHFJqvLH9cPYzmgeSlSMOHigXPHatoCg4Ljw2OAoec2BNBAc+M+BY0zUbHCnt23C2dJm8Ok3bvE5jUQ/jMMDgQf84GdDZPSzeXVND0NSWotP8PDpNWWWDvPYMoMSBMWsY9SLyhSxgFLlZgCFFgVHQ2FMyA0syMGGCoXy7SxQUJdsIUpZJXBO5JssKCmdiEgdBXPjwXk7c78bFva4UN069H5F9c/ebZOfF5CpV57HqIWXVS8qqJ2RDA4U+sMAJ4NEHXRccp+NEwDHQMODgLRPjc/wM3jUQ4Y3WvoH3xOp314nikpqmt/Au5+ridVeJIAkNOooERsOSuIYxsEAuLCQDS9BhYt3FhiXbQj+aWDvpuTpLFBRV5PlAkgiIZUrOwLz5LT14QXHbjCk6JnvMUtx+Wfsu5eTGBQh6mQCZKZvddSRABh6u6wTwKD9KeACOlgJHTdkCeAgceD1ggIQ7mTGVG9m8U6xcVU1rmnV73yoqqvosLW6GcDLg/V375B8lnVbOvoYJgQkW/daULApMuulY7qlYWITsncUBJoDFMYRjlpiZHMO5huRNS+IMT3rwAuK2FxE3DqlwvJH9cfdVysqHk6vYyQOd2wAenf8QHJJVLymrnpANDcSCE8BjoMkCjvZhCI7uOBFwQk/b4Ch4cMULwLkstmz9gKCpBDT731q0aNE3rX63trC0rEHO2/D4JgVNHsCQ4sCEgzddRk3HVJcxsITAhAmC3ATayeWBCYvjAhOHBXKMEICSHRbbdLwpSY6BOdO/TLmvL8WN09oXex9j+2/AMbLyFsmpzrM5SMXh0bWyaidradU20nES1jkSHgNOAI8+KFvgmG5jwIlM1Qw0FjgSGtK41XEAzgR1pG079ogigoZmZfvlpTTUab66pqROXiqAjRpYJDB6HWMDI6GxgAm6TACM3WGyrF+sJNjJyT0ls2CBEqZjASxQDligmFksI9kGi5nPMShnZF6PX0Dc9pIVGaM7fqk84XHymBUcDU94YHPAgawaQ3b9bW9EwVFeMuCYbpMIjoQmf3AwPdvx/j6xoqhSrCped0BDU/FrK1dXXX6XwDlx8qz8JQmM3oCEhX0fRsNCSoIlmI4FsChgwp0PE2Inyk4gZCfYBiUKiypUVlCswsdMYRkmDSCcOZU4k5MeJuthHuL+Xop7TSlujNF9ie2nlAOSky87l9kACiEKa8XDk6XrkKLwJE3XlN9scGx42DWOAw5mVTY4+N7mLbvEipVVYtXqdcMSmq8VZT65sri6F2/ebN6ykwZzM4BGbgTQWMBIaCxgZIexgDHTsVzA2EmwkwMFsEDuYj+PzmIXM4TFAUabIgQlGRbOfEqMWR1TcwAstNzXZMfFjN/sn1Rk3x1wIDt3BhrIynVkzSOBSQKHpOsawGOggWxfJEzXEtc5Ljim43BrnERwAM1l+RDNolVVmJ5VSmgQq4qr/n4lfbN+Q7v8NClsKOwyGhoDDCkCDCkKDMkCJoSGB8aejtkL/nymYgE0plBWAaV0YSMFt4zAwmIZiTNazIyWWTlDvw7ZY4qNl90na7/tXEhZObPzSArAseBxwQnh0XUz0EhZ0EAGGq0AHFIITcJ0TXtOHrgtcCJTtSxrHNMolP8v0/em5POfcfZs5ep1yzUyb721orj65+gbl9eWNYjRo6fk4EAbB0zQZfQAgi5jgKGBBsDoHUmakqUBBopNx0ziDSwQB0xQTKfQuvjZYOEMFTOeZUrOtG+a0gJkciBl50bni4fHzjdJ18AFJ4BH1zIAB3W2ap4vOKbbhOAoaBLBkdBY4GhoAnDgf/n/l+UzNFa9WytoRvYVjYyKlSuruoto3gaq7tJOgkYJDEnBEgJjXticJYutYSxYQmBCWGLXjunEKFgUMGx30bDYBUBBAkiMqGjZp2GOGbRBXPNEjKUNx5kxWbNRPYrr0TwU2477OuxYeKUByeRHKsibyaXOrZ1rUhye7FO2AB7U24ADaW9IWZ7BAdf4SQEUhcd0HHaqRvDgoG+vcUxjMPAAHHj+4qUr8sk0q6jTFBVV/orGRUVhYdW/WVFU8RTPtJ2cvCQ/Ck9C4wCDF4p0GAmNBQwNNBswUDIwKlE2LC4wQXcxBbCh0YVyCxjCYqQLr41gG0TJMo82FWe4uCzjOsbmzL/QCl7PHocUN9aoAnggBhzI5CsEB1L5DRTkPaxHFB5dN13HJHACaCADDWR5xwaH6zpZwZHQWOAYaDQ4gAZP0Rk7PS7QTFauqpxctar2RzQuKhYtWvQtRSur9y1fUSHe2/qB/EwPvKDsNFmBIVnAqC5jA8Mv+vOfjoWJToIFinQYXcgYLJBlhlCWYbSBOINFZZlTm5Yz9OsQDxG3D1FFwTEK84TcSdn51LlOhMfUSoKj4dH1tMEJ4IEPLE9EwCHlBkcdvA048sBugWOmahIcQGOBM3lBgYPnEuAkQPGaOoBTW1RU9EmNSxgrV1b+7oqVlc/KKhpoY1fkM6CwYQkNiAQwJAOMWsdYwJBMlzGDj0zLGGCgCDCQTlwqYKAEWCAOFsg2QcQc2jScmUJZJtTG5Ez7JikACEoBkMlDFKAwZyaPUhY4ATwBNErBgU3XzNQxKziRqZo6uLrQSDHgmG5jwMGBPS04mGFhWw8ePpRP2lxN65kVK6v+RGMSjZKSkk8VrarKrCpeJzo6h8Tc3DPaQaxv1MaDDqNhsYExAwyBicMCcR3GHFVMh7FhCYBxYTFFYGAxxcsHFM44obTJtOk4U35UlTdEDECQzHEADxTWI4THqlsAT3LXMQfPbNM1DhzIHLQNPOqgTp7V8ITgmKmamk2h01wmn8/OPhFHRk/gDU0CpvLM8lWVP6sxiQfWNtSKruGXj584I59vC8pxO6npMPkAA2UDJoBGJyhVdwlgSQLGKp5TXCVdeG0EziRK2kyO0RZeT/IQ9/cvrig8EJePMGccPMi1lAVOAE8ATrzrKHjCerPgGGC0jI+SwDHQGHAil9xIcJSXFTim46hugyfeAJra9W1i5epqsbywvErjkRyFhZWFeDOnel0zDeAmYfNcXLtxW03NTJeRwNjQhIN8IWAgAwskgYkmWAFjFUIXJnV30YXnTKGkjeMY68VkGX9GaWaeMn8vtcAw5dV5FhAcc2DkwFHwKK8E4GgvpQHH3AkaAUce+C1wyNsABq+D2Lv3sARmRVHl9PJV5b+q0UiOoqK6HyxcUb6b2pJo7xikJD0Sz549o0HdVp3GAsYs/M0A81nDxKZkEhjrlLJOpA0LB4wpTFpgOBMoabM4RpqftJm1uTnzL7SiIHFjSq808JiDjwsOJGsQgAOpWtnw5AOOOrAmgxNAQ4qeHNDgmGmaBsfMloJpGkGDGRVievq6qKxqFIVFVaTK3F3GxLKitb+yfEX5zcKiCrF9xx4JDT7kE88Qk1MzCQvfYez3YRLXMBoWCYycjkE6YYmwaGB08nPDogtqFToubRDLMPlJmZQz8ZukF+1KqQAy+bZqYGpiwAngMQc9KV3jAB5mugafWPAE4CTAw51VM+BIeACO7jgAx3QYnPzCZ9QUFJYRMBWnly2r/IJGIl0UFlZ8dXlR+SwusUG7QuDkAF7AdBhztbIZoIRGD1xCo3cmMiWzgYFsYCAbGMjAYhTAooHRhbGLlRsYbQLGILmlTWiZ8qOk+cKTq/tkBccc2DQ85sBnamoOjCE4ygchONor2jeRjkMyPouCE3rSHNiDjmOgIeExT8/pP3i7f+A9wIJp2UzBiorf0Sikj4qKik8UFpb/vxUrq55iqrZ332Hx/Plz6jrP5dEABGMA0YV/DmAgveMLAoyGxi5SKmC0CThzJEubjTHiR1HzncqF8MRzK8GBOHCgRHBUrZPAsadqChzlpQAc7bUkcEy3ga5MQ3gyzV3x+LH6+MDHs7NiYHCrKFxRgfdk5goKy/9SY5B/FBVlPkkb+DqB80SCQx3nGRGJePjoMQ34rhyQGZwLDBQFRkETApOwhtEJ5M+QWcm3CqMUFo4r6vy6y8cHFE7zgSdn1zEHLgse1EpKQ5Nvx7HBUQfeZHCMD11wcJDHEgPjwJIDgY/76OnbrDrMqqonywvLFsP3GoH5xaJFtd+OjrOcNoqpGm4hwBUDCKxzsPP2IANYIL1DkQ6jYQk6jA2LBsaFxSTZgAJFQMkKiy6yVfTs+nhDkksKIi4vvHJ2Hgsco8iBD9BApt4GHuMHA4/2i4QHPrLgCcCx3wQ1nqTZD4DBzx88nJHTMBOT5y+JuvpWsWx5GdYxT+Fz+F1b/8Vi0aKt37J8efmiguXlDwqLKkVjU4+4evW6fmkhP5sdc0MDjIRG70heU7JcwGhookXIDQxXbF68kb4RlU/3SQcOpKGBLHDy6TgKHO0l7atsUzW8QY9PcaaVRRD4BLaRkR2i+N1agUvHaDZ1g9bvf/j7v9/yzdryCxeFK8v+YOnytReWEzh4/NO+/UeCroN4ShTjk37x+E/sjCE/AAbKAoyCJgQmhEYnOAAlCgxXrPyA+cbuLtmUFp4QnDg8ieBAsraqzmnBMVM1M0XDV3NAxsEbUAAUMwUzcfv2HbF7zyH5fGYFS9kcdZltRUVlv6Qt/nJiyZLSXyxYXjaEjrO8sFw0Z3rEiRNnIvDgZMGTJ0/JiI8pMUgC7bQGxYATwCMTEiYH979E74HBkShMcgQYklsgpTyAYYziFVVe4EBMTZLAuQehxlbNpQfuQtGpGboGJGcjBBimWzhIP5qZFbPkN8x4cLLKDvhwYvKS2Lptt6is3CiWLCuVVy7T2uUEFvyLiqo+q639cmP14tXfX1BQ8jV60XGasskHDzQ198hPxsWn99qBfQBE2CEIOwHAZmhHH6Moj5VwJkOKjhDQ7OzT7KLtQNheVHiNFNLj8cpPyBubz5jitZE142oZkfaA9oL9enIMNJuZow4CTyXFDPkLt7hs27FXNGV6BR5T9vUlJdRZKsXSgrXnlxSU/83ixe/+M23nVxsrVlR+admytaVLCkrvLF5KBK+qFhWVjWJgcJs4NTZOR5/owsuHj4UKdBR4CyDhqpULF6bkR/61dwzIj/3Dw2IwG1q8tOQZdZeZpQVluxYvK/2fhYVrv6+l5SWsXfKNgoLqn1xaULp06bKSU0uXlT4CPDiFhws/m6kDoTWOHj0hLl2+Iqanr9E657aXVypdvX5T+uby1BWaZl2UsxmspYeGt8t373HjJGY6eEsE064VRVWYgs0QLBfJj/vwlsnSpeU/Q5y9re36ZsUionhpQckfUwusXrps7b5lBWvvYCcKaNFF/xZfX7xG0o+FmJdXLpWW1Yvid2vQLeT0agnNZpYVlAksCQpXECSr1onCwoo5OlDfWLJ07dEly0p6li0rXVlQsPZPCgrKf37RopZv1db8aERhYckPLy6o+A2aur1D5JcsXVbWSzv3IbXIK8uWlz8rKMTZCy+vBBEUBMiTxUtKJuggPLZkeelpOhDvWbJsbSd5qJ48tfjrBaV/vrig9PcWLy/79SVL1nyJZjyf1vb76Mef/mnFJ4qLGz6zeHXV9y8rrvzCkiUlP15QUPYTXl7ZtHx5+RcJhB/4+sryz0MrVlR8DmB87WvyHfs3c7rlw4cPHz58+PDhw4cPHz58+PDhw4cPHz58+PDhw4cPHz58+PDhw4cPHz58+PDhw4cPHz58+PDhw4cPHz58+PDhw4cPHz58+PDhw4cPHz58+PDhw4cPHz58+PDhw4cPHz58+PDhw4cPHz58+PDhw4cPHz58+PDhw4cPHz58+PDhw4cPHz58+PDhw4cPHz58+EgRb731/wE+tuKaG0EDFQAAAABJRU5ErkJggg==;" vertex="1" parent="1">
          <mxGeometry x="670" y="180" width="110" height="110" as="geometry" />
        </mxCell>
        <mxCell id="VC3NsQKQv-s5LEQHh1L6-10" value="" style="endArrow=none;dashed=1;html=1;rounded=0;fillColor=#f8cecc;strokeColor=#b85450;strokeWidth=5;" edge="1" parent="1">
          <mxGeometry width="50" height="50" relative="1" as="geometry">
            <mxPoint x="110" y="257.75" as="sourcePoint" />
            <mxPoint x="250" y="257.75" as="targetPoint" />
          </mxGeometry>
        </mxCell>
        <mxCell id="VC3NsQKQv-s5LEQHh1L6-11" value="" style="endArrow=none;dashed=1;html=1;rounded=0;fillColor=#f8cecc;strokeColor=#b85450;strokeWidth=5;" edge="1" parent="1">
          <mxGeometry width="50" height="50" relative="1" as="geometry">
            <mxPoint x="324" y="257" as="sourcePoint" />
            <mxPoint x="464" y="257" as="targetPoint" />
          </mxGeometry>
        </mxCell>
        <mxCell id="VC3NsQKQv-s5LEQHh1L6-12" value="" style="endArrow=none;dashed=1;html=1;rounded=0;fillColor=#f8cecc;strokeColor=#b85450;strokeWidth=5;" edge="1" parent="1">
          <mxGeometry width="50" height="50" relative="1" as="geometry">
            <mxPoint x="525" y="257" as="sourcePoint" />
            <mxPoint x="665" y="257" as="targetPoint" />
          </mxGeometry>
        </mxCell>
        <mxCell id="VC3NsQKQv-s5LEQHh1L6-13" value="INTERNET" style="text;html=1;align=center;verticalAlign=middle;whiteSpace=wrap;rounded=0;strokeWidth=1;fontSize=17;fontStyle=1;fillColor=none;strokeColor=none;gradientColor=none;glass=0;shadow=0;fontColor=#FFFFFF;" vertex="1" parent="1">
          <mxGeometry x="695" y="231.5" width="60" height="30" as="geometry" />
        </mxCell>
        <mxCell id="VC3NsQKQv-s5LEQHh1L6-14" value="" style="shape=image;verticalLabelPosition=bottom;labelBackgroundColor=default;verticalAlign=top;aspect=fixed;imageAspect=0;image=data:image/png,iVBORw0KGgoAAAANSUhEUgAAAgAAAAIACAYAAAD0eNT6AAAABHNCSVQICAgIfAhkiAAAAAlwSFlzAAAOxAAADsQBlSsOGwAAABl0RVh0U29mdHdhcmUAd3d3Lmlua3NjYXBlLm9yZ5vuPBoAACAASURBVHic7d15kCRnfebx582ss++evo/puTVIIyQBuhYEFuaSDDbGWGCMAUOE2TDsetcbG76wjQzCV7BejgAv67UJBOsDGeMwBmEbAYtAgA5z6NYgaWakubpnevru6q6qfPeP0YjRqGemuyor3zy+nwgITU9Xvj9Vt/J9KvP3vikBAAAAAAAAAAAAAAAAAAAAAAAAAAAAAAAAAAAAAAAAAAAAAAAAAAAAAAAAAAAAAAAAAAAAAAAAAAAAAAAAAAAAAAAAAAAAAAAAAAAAAAAAAAAAAAAAAAAAAAAAAAAAAAAAAAAAAAAAADLKnO8bfu6X3jniebmfMUbXyWqL5A1LtrTRgVZWK/6T+/Z2BNaed0zEm+/l7OYtO+fzhULQwMuXJXNY1u6TzK011b7w+U//r8mwawQAnNtZJ+PX//Kv7fJt/QPW6vWSvDAGm5+f0eEn98laG8bh4IAxRuMTO9TW3hnWIetW9m+Cmvndf/jrj+0P66AAgHPz1/ia+fm3vuu9nrV/K+m5WsdVgvUqFk9eOFhaWgjrkIjYyOgWdXT1hHlIz8hc4nn61Ysvu6py/w/uvCPMgwMA1vaMyf2n3/nOtlIl/ylJP9/KQQ8f3K+52elWDoEW6B8YUd/AcKuH+fRCt/crt370oyutHggAsuz0S/umVMn9lVo8+UvS0OiESuX2Vg+DEHV29UYx+UvSWzpmg7+IYiAAyLKnbwHc8LZ3/4Fk3h3FoMYYdXZ2a252RkFQj2JINKHc1qGx8e0yJrL+zUsvvuyqRW4HAEDrGEm64Zd+dbc87z5JuSgHr1SWdGDfXtmgkWZyRKFQLGli6y75fqS/GpK0GuSCCz/3V3/+WNQDA0AWnLwF4Js/VsSTvySVSm0aGZ2Ielisk+/7Gt+8zcXkL0kFr+bd6GJgAMgC83O/+O4tfk6PK8Ru/42amjyk6WNHXQ2PNXjGaHzrLpXd9mrU5Xsjt3zyo1MuiwCANPJyeb1WDid/SRoYHFVnV6/LEnCGodEJ15O/JPk2sK9xXQQApJFnrV7lughJGh6dULFUdl0GdDKQdXVvcl2GJMmTvd51DQCQRp6k7a6LkCTP8zS+ebv8nJP7zXhKd0+fNvUPuS7jaTbQVtc1AEAaeZJGXBdxSi5f0Nj4NhmPxwW40NbeoaGRcddlPJPRqOsSACCNPEndros4XbmtQ0MjrAyIWqFQemqtfyiPfQgTzSEA0AKxO9tLUnf3JvVuGnRdRmb4uZw2b9khz1/r0RAAgDSKZQCQpMHhMbV3drkuI/WM8TS+eYdy+YLrUgAAEYptAJCk0bGtKjz1BEGEzxijkfEtKpXbXJcCAIhYrAOA5/ka37xDPpemW2JgcEydnaE+2hcAkBCxDgCSlC8UNDK+VY73Kkqdnt5+9fYNuC4DAOBI7AOAJLW3d2loeMx1GanR0dEVv+V+AIBIJSIASFLPpgH19Pa7LiPxSqU2rqgAAJITACRpaGSzOru4Z92oQqGosYnt8jx6KgAg6xIVACRpZGyrunv6XJeROOW2Nm3etku5XN51KQCAGEjcxvvGmJMPDiqXNXX0kGwQuC4p9no29WtgaFye4bI/AOCkxAWAU3p7B9Te3qWpowe1MD/rupxYKpXLGhwcV7m9w3UpAICYSWwAkJ66p715u1Yqyzpx4pgW5mZUr9dcl+WUZ4zaO7rV1dunjg52UgQArC3RAeCUYqms4ZHN0shmLS8vqrK8rOrqsmq1uoKgLlnXFbaO53vyfF/5fFGlUlltbR0yXuJaOwAAEUtFADhdudyucrnddRkAAMQaHxUBAMig1F0BQLpY45ee854fftvF2H6+53vyi3MuxgaQPdbTsme1GFhz3PfNY9YGD933nqGjrRqPAIBYszJeUF242sXYXr77alZOAoiKsSdb1oyxCoKTzWt7bjo6KZmvWWu/ljf+P//gd/sPhjUeAQAAgPgalOwbjdEba6rX99x09DYZ+6lS/9At9/xHU23mwPQAAACQDL6kV8qa/1uZmty756aj79r5kb3FRg9GAAAAIHm2SPpYca7r/os+MHl9IwcgAAAAkFw7jLVf2nPT0b/eeePxDe3+RgAAACD53lTM1f79wg9MPX+9LyAAAACQDjs8G9yx56ajr1/PNxMAAABIj6Kkv91z0+TbzveNBAAAANIlJ9m/uugDk2841zcRAAAASB/PWHvzng8cfulZvyHKagAAQGSKst7f7/njQxNr/SUBAACA9Nqkqv+Za2+0z9r5lwAAAECaGb14Mj/5X878MgEAAICUM1bvveTG4+Onf40AAABA+nXW/Nofnf4FAgAAABlgjN504fsnd536MwEAAIBs8D2j3zj1BwIAAACZYd/8gj+e7pYIAAAAZEm5Uq+9TiIAAACQLda+SSIAAACQNS/ZeuPjJQIAAADZUurwS1cTAAAAyBhrfAIAAADZY3c/6+EAUTDGqNzerkKhKM/3JeuiCqxXPairulLR8tKSrOWHBQCJZxV9ACiVyurp75fvO8keaFRnl7rqNU1PTWl1peK6GgBAM4xGI70FUCyV1Tc0xOSfUL6fU//QsArFoutSAADN6YwwABj19vVLMtENidAZY9S7qd91GQCA5kQXAIrlkvwcn/zTIFcocBUAAJItH1kAKBSYMNIkz88TABItsgBgDJf+08TzWEEKAEnGWRwAgAwiAAAAkEEEAAAAMogAAABABhEAAADIIAIAAAAZRAAAACCDCAAAAGQQAQAAgAwiAAAAkEEEAAAAMogAAABABhEAAADIIAIAAAAZFGEAsNENBQAAzimyAFCv16MaChGo12uuSwAANCGyAFBZXo5qKLSYtdLKcsV1GQCAJkR3BaBW09LCQlTDoYUWF+a4AgAACRdpE+Ds9HGtrqxEOSRCtlJZ1tyJaddlAACaFGkACGygY0cPa35mRkFAT0CS1Ot1zc2c0PHJI7KWhk4ASLpc1ANaazU3e0JzszPK5XMyhpWIcWeDumo1LvkDQJpEHgB+zKpWrbobHgCADOPjNwAAGUQAAAAggwgAAABkEAEAAIAMIgAAAJBBBAAAADKIAAAAQAYRAAAAyCACAAAAGUQAAAAggwgAAABkEAEAAIAMIgAAAJBBBAAAADKIAAAAQAYRAAAAyCACAAAAGUQAAAAggwgAAABkEAEAAIAMIgAAAJBBBAAAADKIAAAAQAYRAAAAyCACAAAAGUQAAAAggwgAAABkUM7NsEalclmFQlGe70vGTRVYByvVg5qqlRVVKpWTXwAAJF7kAaBQKKp3YFC5nKPsgcZ0S9Xqqk4cm1J1ddV1NQCAJkV6C6BQKKp/eITJP6Hy+YL6h0eUzxdclwIAaFKEAcCot29AxnC9P8k846m3v1/ctwGAZIssABRLReUK+aiGQwvlC0XlC1wFAIAkiywAFArFqIZCBIpFfp4AkGSRBQDjseIwTfh5AkCycRYHACCDCAAAAGQQAQAAgAwiAAAAkEEEAAAAMogAAABABhEAAADIIAIAAAAZRAAAACCDCAAAAGQQAQAAgAwiAAAAkEEEAAAAMogAAABABhEA0BhrXVcAAGhCZAGgXq9HNRQiUA8C1yUAAJoQWQBYqVSiGgoRWKksuS4BANCEyAJArbqq5SUmjTRYWlhQvcYVHQBIskh7AGaOT6m2Wo1ySISsurKqmRPHXZcBAGhSpAEgCAJNHj2kxfk5WZrIEsUGgebnZjV19JAs9/8BIPFyUQ9og0Az08c1e2Ja+UJBxpioS8AGWWtVXV0ltAFAikQeAE6x1mp1ZcXV8AAAZBr7AAAAkEEEAAAAMogAAABABhEAAADIIAIAAAAZRAAAACCDCAAAAGQQAQAAgAwiAAAAkEEEAAAAMogAAABABhEAAADIIAIAAAAZRAAAACCDCAAAAGQQAQAAgAwiAAAAkEEEAAAAMogAAABABhEAAADIIAIAAAAZRAAAACCDCAAAAGQQAQAAgAwiAAAAkEEEAAAAMogAAABABhEAAADIIAIAAAAZRAAAACCDCAAAAGQQAQAAgAwiAAAAkEEEAAAAMogAAABABhEAAADIIAIAAAAZRAAAACCDCAAAAGQQAQAAgAwiAAAAkEEEAAAAMogAAABABhEAAADIIAIAAAAZRAAAACCDCAAAAGQQAQAAgAwiAAAAkEEEAAAAMogAAABABhEAAADIIAIAAAAZRAAAACCDCAAAAGQQAQAAgAwiAAAAkEEEAAAAMogAAABABhEAAADIIAIAAAAZRAAAACCDCAAAAGQQAQAAgAwiAAAAkEEEAAAAMogAAABABhEAAADIIAIAAAAZRAAAACCDCAAAAGQQAQAAgAwiAAAAkEEEAAAAMogAAABABhEAAADIIAIAAAAZRAAAACCDCAAAAGQQAQAAgAwiAAAAkEEEAAAAMsibOXHMdQ3AWc2emHRdAgCkkjd55EktLy24rgN4lqXFeR078qTrMgAglTxrrQ49uU+1WtV1LcDTqtVVHTq4T1bWdSkAkEqeJNVqVR168jHZgJMt3Aus1aEnHle9VnNdCgCk1tNNgMtLSzp65IDLWgBJ0tHDT6hSWXJdBgCkWu70P8zOTKtUbldPb7+rehIhr7q2Fo5pPD+jwdy8SqaqolfTSpDTclDQ4VqXDtZ6tb+6SXXLQouNmD4+pbmZ467LAIDUy535hckjT6pYLKnc1uGintgqm6qubntML2x7VM8pHlHRnP/y9HJQ0H0rI/rW0k7dtbxVVetHUGlyLS3Oa+roQddlAEAmPCsAnGoK3LJ9t3K5vIuaYqXbX9ZrOu7VKzvvV9lsrFGy7K3qivJ+XVHer/l6SV9cuFi3Llys5aDQomqT61TTn2j6A4BIPCsASD9uCtw8cYGMZ6KuKRaMrK7rvF9v7L5bbWa16eN1+hX9Qvfduq7jAX165mrdvrQzhCrTgaY/AIjeWW9QZ7kpsMtb1u8MfFlv77kjlMn/dD3+kv5z31f13/v/Ve3eSqjHTiqa/gAgeufsUJudmVbWdgrcnD+hPxn6B11aeqKl41xZ3qf3D/6T+vzFlo4TdzT9AYAb521Rz9JOgdsKx/QHg19QXy6aSXk8f0I3Df2jBnPzkYwXNzT9AYA75w0AWdkpcCg3p9/p/7I6vEqk4/b5i3rPwJfU5S1HOq5rNP0BgFvrWqSe9p0C86au/9b3FXX7bu5Dj+Rm9ev9t8nLyGRI0x8AuLfuXWrS3BT4S93f1baC216HPcVDek3nD53WEBWa/gDAvQ1tU5fGpsDthWN6Vef9rsuQJN3QfY8G/HT3W9D0BwDxsOF9atPWFPiWnu/E5tJ70dT0hp67XJfRMjT9AUB8bDgApKkpcHfxqPYUD7ku4xmuKT+qIT99qwJo+gOAeGnoSTVpaQp8ZccDrkt4Ft8E+snOh1yXESqa/gAgfhp+VF3SmwJLXlVXlve5LmNNL2l7RGnagHny0AGa/gAgZpp6Vm2SmwL3FA+puMGH+0Slz1/URH7adRmhmD4+pdnZdPy7AECaNP2w+qQ2BV5UPOK6hHPaU0p+sxxNfwAQX00HgKQ2BW7Jx3sp2paEXwGg6Q8A4q3pACAlsylwJD/juoRzGsnNui6hYTT9AUD8hRIApOQ1BXbF/FG8SX42AE1/ABB/oQUAKTlNgUZWhZg2AJ5S9uJd39nQ9AcAyRBqAJCS0RRoZRTY0P/VQ1UP/0fTcjT9AUByhD7LJKUpcEU51yWc03KQd13ChtD0BwDJ0pKPmUloCpyutbsu4Zym6x2uS1g3mv4AIHladp057k2Bh6vdrks4p0Mxr+90NP0BQPK09Ebz7My0ZmPaFPij6oDrEs7p0ZjXd8qJ45M0/QFAArW80+xoTJsC76uMui7hnO6rjLku4byWFuc1eTReT1MEAKxPyzvhTjUFbtm+W7lcfBrbfrQ6qOP1dvX5i65LeZa9K4Oarre5LuOcomz663/iiy0fYy2FrlEV490rCgANi+T0dqopcPPEBTJePJ5zZ2V0++Iu/WzX912X8izfWN7luoRzirrprzy3N5JxzpTPVdVp4hcQASAMkS02j2NT4L8s7lHN+q7LeIaFoKRvLFzguoxzoukPAJIv0t1mZmemNTMTn4fwHK+16+tL8Zps/3n+Yi3b+NwqOdOJaZr+ACANIt9uburIk6rVVqMe9qz+ZuYKzQcl12VIkqZqHfri/CWuyziranVVxyYPuy4DABCCyANAEASaPBKf7WLng5I+PXO16zJkZfSJEy/Rio1v19nRI08oCALXZQAAQuBkw/mF+VnV6/HZNe7rixfo/y25bbz7/Nzz9MPKuNMazqVWq2ppYd51GQCAkDgJANZaLSzMuRj6rD4x/RJnE/BdS1v12dkXOBl7vRbmZ2VtfLd2BgBsjLNHzi0vxmtzoJr19WfHXq6HV4YiHfee5Ql96PjLFCgeyyPPZilmPy8AQHOcBYCV5fgtI1uyBd009WrdtbwlkvG+snihPnj8laoqXksR17LCsj8ASBVnAaCyUpG18WsoW7E5ffDYq/TpmatatkdAJcjrY9PX6n9Pv1h16+xHsG5Bva7V1RXXZQAAQuSw5dxqpVJRqRy/LW+tpC/MX6p7Klv1jp5v6ZLSk6Ed9zvL23XzzH/Q8Zg/jvh0bPoDAOnjdM1ZpbIUywBwyqFqt26a+ildWDys13b9QJeVnpDXwN73NevrrsoWfX72edpX7WtBpa1VqSy7LgEAEDK3AWB5Sep1WcH6PLgyogenRtTrL+nq8mO6pPSknlM8qnbv7JfFZ+ttenBlSD+sjOs7y9u0EJPNhhpRiWG/BgCgOU4DQBwbAc/lRL1Nty5crFsXLpYkdfvLGvLnVPaqavNWtRAUtBQUdbTWmegJ/0w0AAJA+ri9AvBUI6Ax8W+EW8tsvazZetl1GS1FAyAApJPjmfdkIyDiiwZAAEgn5x+9mWDijQZAAEgn9wEgYX0AWcPPBwDSyXkASFojYNbQAAgA6eQ8AMR1R0DQAAgAaeY8ANAIGF/0ZwBAesUgADDRxBUNgACQXvEIAPQBxBI/FwBIr1gEABoB44kGQABIr1gEABoB44cGQABIN6dbAf9YfB8NnFX0ZSAsnic9Z9ucLr/ouC7YMqehvoraSnVJ0tJyTkeOF/XI/m7ddf8mPbK/SwGfBYBIxCQAxP/RwFlDAyCaVSzU9ZqXHNJPXXNQne21Nb+nu3NV3Z2r2r11Xj/9E09qdiGvL90+qi/dPqaVaiwuUAKpFZ8AkJBHA2cFDYBoxk9cPqk3/9Q+9XSubuh13R1Vven6/XrVCw/rM1/cpm9+b6BFFQKITQCgETBeaABEIzxPetN1+/Talz7Z1HE2da/q137xYV20Y1Z/+fkdqtdNSBUCOCU2ASDpjwZOExoA0YicH+g33/6gLt19IrRjvvyqI+rtWtUHP3UhIQAIWYxmW3YEjAsaANGId7zusVAn/1NecOG0fuXnHg39uEDWxSgAMPHEBQ2A2Kjrrzmkl191pGXH/8krj7T0+EAWxSsA0AcQC/wcsBHdHVX9wnX7Wz7Om1+9T51t1ZaPA2RFrAIAjYDxQAMgNuKGVx5QuVhv+Tjt5Zpe97LmmgsB/FhsmgAlGgHjgAZAbERXe1UvuzK6S/OvetFhfe62zVpcitWpCxtg81J9q1FtzChoN5Jn5S1I/mGr3D7JVGyo4wVdUm2bp/qQZEtGZlUyc1a5J07+L2xBt1Ftm1QfNE+P581Z5Q5Y+U+GP14zYvZfETsCukYfBjbi8j3H5fvRndTyfqDn7z6h29kfIJFq24xWLvdky6d/1SjolWqbjVafJxW+Fyj/UAi/Uzlp5QpP1Z1GOnMByaBRbaeRd8Kq9E0r70QI4/lS5UpPtV3PXq1SHzSq7jTypqXSt4JwxgtB7D5qMwG5RQMgNuKKPdORj3n5nuORj4nmrV7sqXLNmZP/M9m8tHKlp5WrmlzymTdafqWv6q41Jv/TBL1Gy9d7qo80N5zNS0vX+WtO/s8Yb5O0fJ2n+lA8lrTGLwDQB+AU7z824sLts5GPedGO6MdEc+qbjVafd+7J+HTV3Z6quxufniovMqr3r+97bU6q/IQv297wcKpc4ynoW+d4ealyrdfUeGGJXQCgEdAtGgCxXt2dq08/1CfScTuqai+v/WwBxJB38lL8eif/U1YvM7KFjQ9XHzaqTWxsMFuQVi5rbDqsjxrVN29wvKK0eqn76dd9BWfg0cDu0ACIjegoRz/5/3hsAkBS1EeNgo6Nv84WT/YMbFR1d2OX1+vbjGxx46+rXtDYeLXtRmog4IQpdgGAHQHdof8CG+F77oK6n4tHExXOrzbc+P3u+sjGX9vIayTJeieb9aIcrzbgthcghgGAicgVGgCxEcsr7hYRLVditoAJZ9XMvW7btsFL6zk1dNvg6de3b3BCzhvZfDPjNf7aMMQzANAH4ATvOzZieq7g5AE9q1VPM/MEgMRo5kLRBl9rAknNXBwKNvhi29yVKOP4QlYsAwCNgG7QAIiNqNeNDhyO/iPMvkPtsjYey6hwfmax8dd6CxucIQPJa+IOsrewwRfUJNPEhVMz3/hrwxDLAEAjYPRoAEQj7n5gU+Rj3nX/OtdbIRZyBxs/l/sHN/4RudHd9kxV8o5u/LW5BmqUJFWt/Em3lwBiGQBoBIwefRdohIvJ+O77ow8daJw/KfnHNj7RmUU1tFVv/sHGAkfuYSvTwMKW/IONTeL5h9Xc7ZEQxDQAMCFFjQZANGLfoXbtPdAZ2XgPPNqlg5NsFZ4oVircGWx4ci19N5AaWO3pzUj5BzY2KXtzVsX7GpuNvRN2wyHAm5MK97q/yh3fAEAfQKR4v9Goz3xxayTjWCv99a3bIhkL4fKPScXb1xkCrFS8s7kH5xTvCZR7fH2vN4tS6auBtNrwcCfH27/O8Rak0tcCmRg82Tq2AYBGwGjRAIhGPfhYt+68r/W3Au74wYAe2R/d1QaEK3fAqvzluryps0+U3oxU/rdA+Yea/HRspdI3AxXvDGTO1tpkpdzjVm1frMuba244BVLpG4GKdwUy5wgS+ceeGm82HvtYxHYtDY8Gjg4NgGjWn9+yS5uHlzTS35pbSQcn2/QXn9vZkmMjOt5xqe3Lger95sc7BHqSt2jlH7byj6i5ZXyns1L+Iav8o4Fqo1IwZBSUnmr2m7Xyn7DywuzCtyf7AfI/ClQbk4LBk+Op+tRtiSeszEZXNbRYbAMAjwaODv0WaNbiUk5/+skLddN/+mHo+/QvLOf1J5+8SEsVP9TjwhEr+VNW/jmuBISqapXbL2mdl+hDGW+fpH3xmuzXEuuP10xM0aABEGE4ONmm3//4JZqcLoV2zKPHy3rvx56rI8fCOyaAk+IdAOgDiATvM8LyxJE2/fZHLtN9P+pp+ljff7hXv/3hS/TEUa4CAq0Q41sANAJGhQZAhGl+Maf3feJiPXfXjN72M49rYnhjW8EdnGzTZ/91Qt/+wTof6A6gIbEOADQCth4NgGiVe/f26Dc/dJmet3taV+yZ1gv2TKurfe21T7PzBd394Cbdfd8mfe/hTQrcL5EGUi/WAYBGwNajzwKtVK8b3f1An+5+oE/e56ShTcsa7l9WuViXldFyxdeR42UdPV5kf38gYjEPACcnKAJA69AAiKgEgXT4WFmHj5VdlwJAMW8ClGhQazXeXwDIptgHABoBW4sGQADIHisT/wDAo4FbhwZAAMgma/I29gGARwO3Dg2AAJBNgZcPEhAAmKhahQZAAMimul+qJiMA0AfQEryvAJBN9VzHdCICAI2ArUEDIABkU90r709EAKARMHw0AAJAdtW80t2JCAA0AoaPvgoAyChjZP32/5OQAMCEFTYaAAEgm1bzvSu3ffgXf5icAEAfQKh4PwEgmyqF4TulBOwEeAqNgOGiARAAsqmW6/pDKUEBgEbA8NAACADZtFIcnr/tI2/5spSgAEAjYHjopwCAbFoqj33k1D8nKAAwcYWFBkAAyJ7VwqaV2qZtN576c7ICAH0AoeB9BIDsWWjb+YGv3/jS2qk/JyoA0AgYDhoAASBbFstbDt72kbe9//SvJSoA0AjYPBoAASBb6l7RLpeGX3/m1xMVAGgEbB59FACQIcZovvviP/3ah9/63TP/KmEBgAmsWTQAAkB2zLVfcNe/ffgdv7XW3yUvANAH0BTePwDIhqW2rQdWBp/7wrP9feICAI2AzaEBEADSb7k0fmzR27Ln9K7/MyUuANAI2DgaAAEg/ZbathxaaBve9fWPv2HhXN+XuABAI2Dj6J8AgBQzRvMdz/nO4vAVW77+obfPnO/bc1HUFLZKZUmlcpvrMhKHBkAASKe6V7JzPRe/7ysfevuN631NMgPA8pLU67qK5KEBEADSZ7Ft2/6l0sjPfv1Db/7+Rl6XyABAI2BjaAAEgPSoFAYXl8pb3nvbR3/5fzTy+kQGgFONgMYksIXBERoAASD5rIwqpZHp5dLIB2/7yDv+qJljJTIAnGoEpA9g/WgABICEMp4qhYH51UL/Hau5jveutatfIxIaAGgE3KgkNwBav+hk3MDkbd1zM3ZDrJVqS8Z1GamUb7MSby1ay/rFemBydWsKqzW//UjdLz1Wz5e/s9KW+8Ttf/iWw2GPl9wAQCPghiS5AfCr//RpzrzrcPnlL7x4cXXlXtd1pFFbvnvXPfd89VHXdQBhSuxNdBoBN4YGQADA6RIbANgRcP1oAAQAnCmxAYAdAdePBkAAwJkSHACY2NYryQ2AAIDWSHYAoA9gXXifAABnSnQAoBFwfWgABACcKdEBgEbA86MBEACwlkQHABoBz48+CQDAWhIeAJjgzocGQADAWpIfAOgDOCfeHwDAWhIfAGgEPDcaAAEAa0l8AKAR8OxoAAQAnE3iAwCNgGdHfwQA4GxSEACY6M6GBkAAwNmkIwDQB7Am3hcAwNmkIgCs8El3TSsrvC8AgLXlXBcQhmpt1XUJsVSr8r5kHTGd4gAAC85JREFUibVtc6VyKv6Tjh0vCBZd1wCELRVniyCouy4hdqy1CgJWR2RJLmdXbL7guoxU8us+aRqpk4pbADk/FTkmVMYY+b7vugwAQEylIgDkCyXXJcQS7wsA4GxSEQA6OrtclxBLHR28LwCAtSU+AHjGqKt7k+syYqm7d5Mk47oMAEAMJT4A9A2MyKcHYE25XEF9/UOuywAAxFCiA0C5rUObmODOqW9gSKVy2XUZAICYSWwAyOcLGt281XUZsWeMp7HxHcqzPAwAcJpEBgDfz2l8y07l/LzrUhIhl89rfGKHPJYFAgCekrgAYIyn0fFtKhSKrktJlEKxpPHx7TIeTYEAgAQGgOHRCbW1d7guI5HK7R0aHtniugwAQAwkKgAMDI2qq7vXdRmJ1tXdq/6BEddlAAAcS0wA6Ont16Y+Ov7D0DcwrJ7eftdlAAAcSkQAaO/s0tDIuOsyUmVweFxtHZ2uywAAOBL7AFAqlzU6tlXsaBcuY4zGxrerWGKPAADIolgHgHy+oLGJHfI8lq+1gud5Gt/MHgEAkEWxDQC+n9P4xA7W+rcYewQAQDbFMgCcXOu/VYUij7ONwtN7BJhY/joAAFoglmf84dHNamunQS1K5fYODY9udl0GACAisQsAA0NjPN7Xka7uTeobGHZdBgAgArEKAD09fdrUN+i6jEzrHxhRNwEMAFIvNgGgo6NLQ1yCjoWh0Qn2CACAlItFACiVyxoZ3ybW+sfDqT0CSkX2CACAtHIeAPL5gsY275DnOS8Fp/E8T2MTO5TPswwTANLI6azr+b7GJnYol2OSiaOTewTsZI8AAEghZwHAGE9j49tUZK1/rBWKJY2xRwAApI6zszpr/ZOjrb2DhzEBQMo4CQD9g6Os9U+Y7p4+9fWzRwAApEXkAaCnp099/UNRD4sQ9A+yRwAApEWkAYC1/sk3NDqhdm7dAEDiRRYAWOufDsYYjW7exh4BAJBwkQQA1vqni+f57BEAAAnX8hnZ832Nbd7OWv+UyeXzGmOPAABIrJYGgKfX+pe4XJxGRfYIAIDEaumZm7X+6cceAQCQTC0LAAOs9c+M7p4+9Q2wRwAAJElLAkB3b582sdY/U/oHRtTdQ+ADgKTIhX3A9o4uDY+w1j+LhkYmVKtWtbg477qUTKrVbEe1vuy6jFRqz9PIhPQJNQCUSm0aZa1/Zp3aI+DAvr1aqTARRc2YSrm6uuK6jFRatSWeWobUCe0WQC5X0NjENtb6Z5zn+RpnjwAAiL1QZuuTJ/3tyuUKYRwOCZfLsUcAAMRd0wHAGKOxzaz1xzMViyWNjm0Vt4MAIJ6aDgDDoxOs9cea2ju6NMzDnwAglpoKAKz1x/mwRwAAxFPDqwC6e9yu9fc8X6VySX6IfQerKxWtrlRkrQ3tmGdjPKNiqax8vhjaMWu1qlaWlxQEQWjHDEP/wIiq1VXNzUy7LgUA8JSGAoDLS7vdff3asnOXevsH5HnhN5lVV1c1deSQ9u99WJWlpdCP39bRqS27LlD/0IhyLeiUr9frmp46qgN7H9HczInQj9+o4ZEJ1as1LS7OuS4FAKAGAoCrtf7GeLrgkks1OrG1pePkCwWNTmzV8PiEHrn3+zp8YH9oxx7ftkM7L3qujNe69873fQ0Mj6p/aERPPPYjPfbg/ZFc0Tifk3sEbGWPAACIiQ31AJxc3hX9Wn9jjC56/uUtn/xP53mennPp80Mbc2LHLu26+JKWTv6nM8ZoYscuXXDJZZGMtx6n9ghguSgAuLfumdzlyXt0YqsGR8ciH1eSLrjkUrV1NLfKoat3k3ZcdHFIFW2My/duLblcXuMT29kjAAAcW1cAOHX51sVaf2M8bd39nMjHPX38bbsvbOoY2xzWL0nbL9wjY+KzHr9YKrNHAAA4tq4AMDwyofb2rlbXsqbe/gEVim634e4fHlEu11jDXr5QVG//YMgVbUy5rV2d3T1OazgTewQAgFvnbQLsHxxRl8PHvHZ2dzsb+xTP89TW2am5ExtfxtbZ3ROLT9+dPb2xWhUgnVxKWl1d0fFjR12XEgVzxYteepHk7zGetsiqXVK4ydaquy1Pf0UreJ759SuveflCyIddNlaL1pj9xgT3f/f22x6U5L5jF5lxzgDQ3dOnvn63m7jkCvE4oRUarCM+9Ye330CY+gdHVa1VU7tHwOUvfsWLPGvfIelnJPVLat0p3ki+H/oTvnHSu1txUGskycpaoyuvefmklf7RmuAv7779q3e2YjzgdGc9W8TlEm2tWnVdgqST+wM0otbg68LWaP1RSOMeAVdf88qrAgUflLXXuK4FiTFopHca673zymte9vl63f+de779rw+5LgrptWYPQJyatBbm3U8K1gZaXJhv6LWL83OxWIc/Pz/ruoSzctlkGrYbbrjBv/KaV/xJoOAOSUz+aJB5ne8H91714le8T3E4ESOVnhUA4rZM68TUpPOrANNTUw3XsFJZdn7vfaVS0dz0cac1nE8a9gi49tprO/YfOvE5yf6GQnrUNjItZ639vSuvefkXrrrqejdd2Ei1Z5yk4ngSDup1HfjRI87Gt9Zq38MPNnWMZl/frH17H4rFVYjzcbXRVBiuvfbajqVq7hsyeq3rWpA6r7b56m2EAITt6TNtnC/DHnhsr04cm3Iy9v5HHm76E/z01KSeeOxHIVW0MceOHNahfY87GbsRrraabs6N3lLNv1lGz3NdCVLrcpuvfla6MXnpGLH19C/TkMO1/udjA6t77/qOjk8eiW5Ma/X4Iw9q395wenAefeA+HXh0byjHWq/JQwf1wL/fFemYYWjv6NLwiPsG1PW68ppv/p5kXue6DqTeq6588bd+y3URSA9zyeUvtP0DI4l5Zvvw2GZN7LpA7Z2tCSs2sDpxbEqPP/JgQ+v+z6enr19bd1+onk19LdsfYH72hPbvfURThw+15PhRmZo8pBPTU/rBnd+M7eWAq178sousNd+XFP6jHYFnq/h1/7nf/va/uLmkiFTJdff0JWbyl6QjB5/QkYNPqNTWpnJbu/IhrbO31mp1ZUVL83OqtrDpcOb4MX3/jtuVLxTU3tmpfKGksHLA6uqqlhcXtLKcjqftDQyOql6r11zXcS7W6iYx+SM6pbpf/wNJb3ZdCJLP3PDWd9lk3W9FttilW27+eLvrKtZy1UtescsG9iHR8Y9o1evS9nu++ZUDrgtBsnlM/oi3GP9+BvatYvJH9PyctVwBQNM4eQENslavdl0DMsoYfvfQNAIA0IAXvehFnTK61HUdyCYrXbnz+uvj+YAPJAYBAGhAVW27xX8/cCffO1fZ6boIJBsnMKABnjTqugZkmyeP30E0hQAANMB6QZvrGpBtgUyn6xqQbAQAoAFBoHg8LQuZZYzhdxBNIQAAAJBBnqQZ10UA5xD+fswAAHkySvaG8Ug7fj8BoAU8We1zXQRwNlb8fgJAK3iSvdV1EcDZeNKXXNcAAGnkSfl/kmRdFwKsoW59jwAAAC3g3XLzhw9I5vOuCwHOZKXP3PLJj065rgMA0sg7+X/2tyVVHdcCnK5ilPt910UAQFp5kvR3N3/sESv7AdfFAKd5z8mrUwCAVnh6I6C/v/nj75Ps37ksBnjKp2+5+WN/5roIAEiz03cCtFouvt0Y3eKsGmSelT610O39ius6ACDtcqf/4ZZb/ueypDe+4a3vutfK/K6kgpuykEEVSe/5+6R88jfmqOsSkHE2OOK6BCTbWs8CsJ+9+ePv94x30VO3BIKoi0Km1I01N0u53Um67B8sl++Q9LjrOpBZj7Tl63e5LgLJZs73DTf88ruGTV0/bY13naQtkkYlW2p9aUipZVkdNJ72BTK3Gs/8c1KX+l31klfsstZ+SFZX6IyraUCL1CT7HSvzX+/65lcec10MAAAAAAAAAAAAAAAAAAAAAAAAAAAAAAAAAAAAAAAAAAAAAAAAAAAAAAAAAAAAAAAAAAAAAAAAAAAAAAAAAAAAAAAAAAAAAAAAAAAAAAAAAAAAAAAAAAAAAAAAAAAAAAAAAAAAAAAAAABIpP8Pgeo9u+f6/ZwAAAAASUVORK5CYII=;" vertex="1" parent="1">
          <mxGeometry x="450" y="30" width="82" height="82" as="geometry" />
        </mxCell>
        <mxCell id="VC3NsQKQv-s5LEQHh1L6-15" value="" style="endArrow=none;dashed=1;html=1;rounded=0;fillColor=#f8cecc;strokeColor=#b85450;strokeWidth=5;exitX=1;exitY=0.75;exitDx=0;exitDy=0;" edge="1" parent="1" source="VC3NsQKQv-s5LEQHh1L6-14">
          <mxGeometry width="50" height="50" relative="1" as="geometry">
            <mxPoint x="560" y="118.15" as="sourcePoint" />
            <mxPoint x="700" y="222.2525641025641" as="targetPoint" />
          </mxGeometry>
        </mxCell>
        <mxCell id="VC3NsQKQv-s5LEQHh1L6-16" value="1 Mbps" style="text;html=1;align=center;verticalAlign=middle;whiteSpace=wrap;rounded=0;strokeWidth=1;fontSize=17;fontStyle=1;fillColor=none;strokeColor=none;gradientColor=none;glass=0;shadow=0;fontColor=#664803;" vertex="1" parent="1">
          <mxGeometry x="350" y="220" width="80" height="30" as="geometry" />
        </mxCell>
        <mxCell id="VC3NsQKQv-s5LEQHh1L6-18" value="100 Mbps" style="text;html=1;align=center;verticalAlign=middle;whiteSpace=wrap;rounded=0;strokeWidth=1;fontSize=17;fontStyle=1;fillColor=none;strokeColor=none;gradientColor=none;glass=0;shadow=0;fontColor=#664803;" vertex="1" parent="1">
          <mxGeometry x="150" y="220" width="80" height="30" as="geometry" />
        </mxCell>
        <mxCell id="VC3NsQKQv-s5LEQHh1L6-19" value="10 Mbps" style="text;html=1;align=center;verticalAlign=middle;whiteSpace=wrap;rounded=0;strokeWidth=1;fontSize=17;fontStyle=1;fillColor=none;strokeColor=none;gradientColor=none;glass=0;shadow=0;fontColor=#664803;" vertex="1" parent="1">
          <mxGeometry x="550" y="222.25" width="80" height="30" as="geometry" />
        </mxCell>
        <mxCell id="VC3NsQKQv-s5LEQHh1L6-20" value="10 Gbps" style="text;html=1;align=center;verticalAlign=middle;whiteSpace=wrap;rounded=0;strokeWidth=1;fontSize=17;fontStyle=1;fillColor=none;strokeColor=none;gradientColor=none;glass=0;shadow=0;fontColor=#664803;" vertex="1" parent="1">
          <mxGeometry x="590" y="112" width="80" height="30" as="geometry" />
        </mxCell>
        <mxCell id="VC3NsQKQv-s5LEQHh1L6-21" value="&lt;div&gt;ESCRITÃRIO&lt;/div&gt;&lt;div&gt;REMOTO&lt;br&gt;&lt;/div&gt;" style="text;html=1;align=center;verticalAlign=middle;whiteSpace=wrap;rounded=0;strokeWidth=1;fontSize=17;fontStyle=1;fillColor=none;strokeColor=none;gradientColor=none;glass=0;shadow=0;fontColor=#664803;" vertex="1" parent="1">
          <mxGeometry x="422.58" y="120" width="140" height="48" as="geometry" />
        </mxCell>
        <mxCell id="VC3NsQKQv-s5LEQHh1L6-22" value="MATRIZ" style="text;html=1;align=center;verticalAlign=middle;whiteSpace=wrap;rounded=0;strokeWidth=1;fontSize=17;fontStyle=1;fillColor=none;strokeColor=none;gradientColor=none;glass=0;shadow=0;fontColor=#664803;" vertex="1" parent="1">
          <mxGeometry x="11" y="137" width="140" height="48" as="geometry" />
        </mxCell>
      </root>
    </mxGraphModel>
  </diagram>
</mxfile>
